<svg width="220" height="162" viewBox="0 0 220 162" fill="none" xmlns="http://www.w3.org/2000/svg">
  <g clip-path="url(#clip0_188_10827)">
    <path d="M107.105 18.605C112.243 18.605 116.408 14.4401 116.408 9.30251C116.408 4.16488 112.243 0 107.105 0C101.968 0 97.803 4.16488 97.803 9.30251C97.803 14.4401 101.968 18.605 107.105 18.605Z" fill="#FF5655"/>
    <path d="M97.9172 68.2828L87.405 68.4291L83.1909 21.4455C83.0874 20.3037 83.4585 19.1511 84.2007 18.2805L94.5345 6.2054C95.9796 4.51404 98.4417 4.21073 100.258 5.49531L113.204 14.6658C114.26 15.4151 114.913 16.5855 114.999 17.8737L117.325 53.2746L123.181 60.2042L123.191 60.2185L124.69 67.9081L97.9136 68.2792L97.9172 68.2828Z" fill="#DFDFDF"/>
    <path d="M95.7155 17.1317L95.5478 14.9514C95.5014 14.3769 95.9368 13.8702 96.5113 13.8274L99.5764 13.5884C100.151 13.542 100.658 13.9773 100.7 14.5518L100.868 16.732C100.915 17.3065 100.479 17.8132 99.9047 17.856L96.8396 18.0951C96.2651 18.1415 95.7584 17.7061 95.7155 17.1317Z" fill="#3917B3"/>
    <path d="M90.5558 34.5622L89.9314 26.4943C89.885 25.9198 90.3203 25.4131 90.8948 25.3703L95.4301 25.0171C96.0046 24.9707 96.5113 25.406 96.5541 25.9805L97.1785 34.0484C97.2249 34.6229 96.7896 35.1296 96.2151 35.1724L91.6798 35.5257C91.1053 35.572 90.5986 35.1367 90.5558 34.5622Z" fill="#3A3A3A"/>
    <path d="M102.274 52.6537C101.725 52.6751 101.246 52.2647 101.189 51.7188L100.354 43.9363C100.319 43.6045 100.44 43.2833 100.683 43.055C100.929 42.8266 101.257 42.7338 101.585 42.7945L101.821 42.8373C102.288 42.923 102.638 43.3119 102.674 43.7865L103.273 51.5225C103.295 51.808 103.202 52.0827 103.013 52.2968C102.831 52.5002 102.584 52.6251 102.31 52.6465C102.295 52.6465 102.285 52.6465 102.27 52.6465L102.274 52.6537Z" fill="#3A3A3A"/>
    <path d="M92.6718 52.3145L92.0438 44.2216C92.001 43.6507 92.4114 43.1582 92.9823 43.0976L97.0965 42.6765C97.6674 42.623 98.1813 43.0369 98.2455 43.6079L99.1197 51.7828C99.1483 52.0682 99.0662 52.343 98.8842 52.5642C98.7022 52.7855 98.4453 52.9175 98.1599 52.9389L93.7994 53.2779C93.2249 53.3243 92.7182 52.889 92.6754 52.3145H92.6718Z" fill="#3A3A3A"/>
    <path d="M117.468 55.9546L121.143 61.4498L122.014 67.8798L124.601 67.8442L123.124 60.258L117.254 53.3105C116.861 54.1705 116.94 55.1696 117.468 55.9546Z" fill="#929292"/>
    <path d="M121.769 66.039L111.293 66.9961L111.307 67.1418L121.782 66.1847L121.769 66.039Z" fill="#3A3A3A"/>
    <path d="M121.037 64.7768L111.1 65.627L111.113 65.7727L121.05 64.9226L121.037 64.7768Z" fill="#3A3A3A"/>
    <path d="M120.419 63.4915L110.922 64.416L110.936 64.5616L120.433 63.6372L120.419 63.4915Z" fill="#3A3A3A"/>
    <path d="M120.019 62.2026L110.908 63.2148L110.924 63.3602L120.035 62.348L120.019 62.2026Z" fill="#3A3A3A"/>
    <path d="M119.483 61.0644L110.733 62.0537L110.749 62.1991L119.5 61.2098L119.483 61.0644Z" fill="#3A3A3A"/>
    <path d="M118.822 60.0686L110.273 60.7324L110.285 60.8783L118.833 60.2145L118.822 60.0686Z" fill="#3A3A3A"/>
    <path d="M118.296 59.0714L109.997 59.8135L110.01 59.9592L118.309 59.2171L118.296 59.0714Z" fill="#3A3A3A"/>
    <path d="M117.776 58.0766L109.746 58.9688L109.762 59.1142L117.792 58.2221L117.776 58.0766Z" fill="#3A3A3A"/>
    <path d="M117.397 57.0848L109.458 57.8408L109.472 57.9865L117.411 57.2304L117.397 57.0848Z" fill="#3A3A3A"/>
    <path d="M116.731 56.0991L109.14 56.9277L109.156 57.0732L116.747 56.2445L116.731 56.0991Z" fill="#3A3A3A"/>
    <path d="M116.372 55.2222L108.833 55.8818L108.845 56.0276L116.385 55.368L116.372 55.2222Z" fill="#3A3A3A"/>
    <path d="M108.037 52.8253L107.262 42.8448C107.216 42.2703 107.651 41.7637 108.226 41.7208L113.057 41.3462C113.632 41.2998 114.138 41.7351 114.181 42.3096L114.956 52.2901C115.002 52.8646 114.567 53.3713 113.992 53.4141L109.161 53.7888C108.586 53.8351 108.08 53.3998 108.037 52.8253Z" fill="#3917B3"/>
    <path d="M97.9171 68.2825L89.3247 68.4002H89.2569L88.743 61.7846C88.6788 60.9461 89.3068 60.2146 90.1418 60.1503L98.5879 59.4938C99.4265 59.4295 100.158 60.0576 100.222 60.8925L100.779 68.0577L100.704 68.0648L97.9171 68.2825Z" fill="#929292"/>
    <path d="M107.223 34.6726L106.631 27.0472C106.584 26.4727 107.02 25.966 107.594 25.9232L109.186 25.7983C109.76 25.7519 110.267 26.1873 110.31 26.7617L110.902 34.3872C110.948 34.9617 110.513 35.4684 109.939 35.5112L108.347 35.6361C107.773 35.6825 107.266 35.2471 107.223 34.6726Z" fill="#3A3A3A"/>
    <path d="M111.434 67.976L110.488 61.5352L108.683 55.4549L108.183 53.7921C107.387 53.3353 106.413 53.9883 106.531 54.8982L106.624 55.6154L108.429 61.6958L109.375 68.1365" fill="#929292"/>
    <path d="M61.0854 68.7711L50.5768 68.9174L46.3626 21.9338C46.2592 20.792 46.6303 19.6394 47.3725 18.7687L57.7062 6.69368C59.1514 5.00232 61.6135 4.69901 63.4297 5.9836L76.3755 15.1541C77.4317 15.9034 78.0847 17.0738 78.1703 18.362L80.4968 53.7629L86.3524 60.6925L86.3631 60.7068L87.8618 68.3964L61.0854 68.7675V68.7711Z" fill="#DFDFDF"/>
    <path d="M58.8837 17.6199L58.716 15.4397C58.6696 14.8652 59.105 14.3585 59.6795 14.3157L62.7446 14.0766C63.3191 14.0302 63.8258 14.4656 63.8686 15.0401L64.0363 17.2203C64.0827 17.7948 63.6474 18.3015 63.0729 18.3443L60.0078 18.5834C59.4333 18.6298 58.9266 18.1944 58.8837 17.6199Z" fill="#3917B3"/>
    <path d="M53.7205 35.0515L53.096 26.9836C53.0497 26.4091 53.485 25.9024 54.0595 25.8596L58.5948 25.5063C59.1693 25.4599 59.676 25.8953 59.7188 26.4698L60.3432 34.5376C60.3896 35.1121 59.9543 35.6188 59.3798 35.6616L54.8445 36.0149C54.27 36.0613 53.7633 35.626 53.7205 35.0515Z" fill="#3A3A3A"/>
    <path d="M63.9472 43.6548C63.7367 43.851 63.6332 44.1258 63.6653 44.4112L64.5003 52.1937C64.5502 52.6647 64.9606 53.0179 65.4316 52.9965C65.6814 52.9858 65.9026 52.8788 66.0668 52.6932C66.2309 52.5077 66.3094 52.2722 66.2916 52.026L65.6921 44.2899C65.66 43.8831 65.3602 43.5477 64.9606 43.4763L64.7251 43.4335C64.6466 43.4193 64.5681 43.4157 64.4896 43.4193C64.2897 43.4335 64.1006 43.5156 63.9508 43.6583L63.9472 43.6548Z" fill="#3A3A3A"/>
    <path d="M51.5082 53.9272C51.2869 53.7452 51.1549 53.4883 51.1299 53.1992L50.5305 45.4632C50.4948 44.9922 50.7802 44.5533 51.2263 44.3927L51.4511 44.3142C51.7651 44.2036 52.1076 44.2464 52.3824 44.432C52.6607 44.6175 52.8284 44.9173 52.8427 45.2491L53.2174 53.0672C53.2424 53.6167 52.8356 54.0949 52.2896 54.1591C52.2754 54.1591 52.2646 54.1591 52.2504 54.1591C51.9792 54.1805 51.7151 54.0985 51.5046 53.9236L51.5082 53.9272Z" fill="#3A3A3A"/>
    <path d="M80.636 56.4429L84.3114 61.9381L85.182 68.3681L87.769 68.3324L86.2918 60.7463L80.4219 53.7988C80.0294 54.6588 80.1079 55.6579 80.636 56.4429Z" fill="#929292"/>
    <path d="M84.9347 66.5303L74.459 67.4873L74.4723 67.633L84.948 66.676L84.9347 66.5303Z" fill="#3A3A3A"/>
    <path d="M84.2067 65.2709L74.2697 66.1211L74.2821 66.2669L84.2192 65.4167L84.2067 65.2709Z" fill="#3A3A3A"/>
    <path d="M83.5861 63.9818L74.0894 64.9062L74.1035 65.0519L83.6002 64.1274L83.5861 63.9818Z" fill="#3A3A3A"/>
    <path d="M83.1843 62.6918L74.0735 63.7041L74.0896 63.8495L83.2005 62.8372L83.1843 62.6918Z" fill="#3A3A3A"/>
    <path d="M82.6471 61.5527L73.8964 62.542L73.9128 62.6874L82.6636 61.6981L82.6471 61.5527Z" fill="#3A3A3A"/>
    <path d="M81.9852 60.5559L73.4364 61.2197L73.4477 61.3656L81.9966 60.7018L81.9852 60.5559Z" fill="#3A3A3A"/>
    <path d="M81.4611 59.5596L73.1622 60.3018L73.1753 60.4475L81.4741 59.7054L81.4611 59.5596Z" fill="#3A3A3A"/>
    <path d="M80.9375 58.5659L72.9083 59.458L72.9245 59.6034L80.9537 58.7113L80.9375 58.5659Z" fill="#3A3A3A"/>
    <path d="M80.5638 57.573L72.6246 58.3291L72.6385 58.4747L80.5777 57.7187L80.5638 57.573Z" fill="#3A3A3A"/>
    <path d="M79.8989 56.5893L72.3079 57.418L72.3237 57.5634L79.9148 56.7347L79.8989 56.5893Z" fill="#3A3A3A"/>
    <path d="M79.541 55.7115L72.0015 56.3711L72.0142 56.5168L79.5537 55.8572L79.541 55.7115Z" fill="#3A3A3A"/>
    <path d="M71.2051 53.3136L70.4308 43.3331C70.3844 42.7586 70.8197 42.2519 71.3942 42.2091L76.2256 41.8344C76.8001 41.7881 77.3068 42.2234 77.3497 42.7979L78.124 52.7784C78.1704 53.3529 77.735 53.8596 77.1605 53.9024L72.3291 54.277C71.7546 54.3234 71.2479 53.8881 71.2051 53.3136Z" fill="#3917B3"/>
    <path d="M61.0854 68.7717L52.493 68.8895H52.4252L51.9114 62.2739C51.8472 61.4353 52.4752 60.7038 53.3101 60.6396L61.7563 59.983C62.5948 59.9188 63.3263 60.5468 63.3905 61.3818L63.9472 68.5469L63.8723 68.554L61.0854 68.7717Z" fill="#929292"/>
    <path d="M70.388 35.1619L69.7956 27.5365C69.7492 26.962 70.1846 26.4553 70.7591 26.4125L72.3505 26.2876C72.925 26.2412 73.4317 26.6765 73.4745 27.251L74.0669 34.8764C74.1132 35.4509 73.6779 35.9576 73.1034 36.0004L71.512 36.1253C70.9375 36.1717 70.4308 35.7364 70.388 35.1619Z" fill="#3A3A3A"/>
    <path d="M74.602 68.4643L73.6564 62.0235L71.8509 55.9432L71.3513 54.2803C70.5556 53.8236 69.5814 54.4766 69.6992 55.3865L69.792 56.1037L71.5975 62.1841L72.5431 68.6248" fill="#929292"/>
    <path d="M24.25 69.2639L13.7415 69.4102L9.52731 22.4231C9.42383 21.2812 9.79493 20.1287 10.5371 19.258L20.8709 7.18294C22.316 5.49158 24.7781 5.18827 26.5944 6.47285L39.5401 15.6433C40.5963 16.3927 41.2493 17.5631 41.335 18.8512L43.6615 54.2521L49.517 61.1818L49.5278 61.196L51.0264 68.8857L24.25 69.2568V69.2639Z" fill="#DFDFDF"/>
    <path d="M22.0484 18.1092L21.8807 15.929C21.8343 15.3545 22.2697 14.8478 22.8441 14.805L25.9093 14.5659C26.4838 14.5195 26.9905 14.9548 27.0333 15.5293L27.201 17.7095C27.2474 18.284 26.8121 18.7907 26.2376 18.8336L23.1724 19.0726C22.5979 19.119 22.0912 18.6837 22.0484 18.1092Z" fill="#3917B3"/>
    <path d="M16.885 35.5398L16.2606 27.4719C16.2142 26.8974 16.6495 26.3907 17.224 26.3479L21.7593 25.9946C22.3338 25.9482 22.8405 26.3835 22.8833 26.958L23.5078 35.0259C23.5542 35.6004 23.1188 36.1071 22.5443 36.1499L18.0091 36.5032C17.4346 36.5496 16.9279 36.1142 16.885 35.5398Z" fill="#3A3A3A"/>
    <path d="M14.4158 44.9532L14.6406 44.8747C15.2543 44.657 15.9038 45.0959 15.9359 45.7454L16.3105 53.5635C16.3355 54.0773 15.9573 54.5198 15.447 54.5769C14.9011 54.6375 14.4087 54.2343 14.3658 53.6848L13.7664 45.9488C13.7307 45.5099 13.9983 45.1031 14.4122 44.9568L14.4158 44.9532Z" fill="#3A3A3A"/>
    <path d="M19.0046 53.292L18.3766 45.1991C18.3338 44.6282 18.7441 44.1358 19.3151 44.0751L23.4293 43.6541C24.0038 43.6005 24.5176 44.0145 24.5783 44.5854L25.4525 52.7603C25.4811 53.0458 25.399 53.3205 25.217 53.5418C25.035 53.763 24.7781 53.895 24.4926 53.9165L20.1322 54.2554C19.5577 54.3018 19.051 53.8665 19.0082 53.292H19.0046Z" fill="#3A3A3A"/>
    <path d="M43.8006 56.9322L47.4759 62.4273L48.3466 68.8574L50.9336 68.8217L49.4563 61.2355L43.5865 54.2881C43.194 55.148 43.2725 56.1472 43.8006 56.9322Z" fill="#929292"/>
    <path d="M48.1038 67.0166L37.6282 67.9736L37.6415 68.1193L48.1172 67.1623L48.1038 67.0166Z" fill="#3A3A3A"/>
    <path d="M47.3722 65.7612L37.4352 66.6113L37.4477 66.7571L47.3847 65.9069L47.3722 65.7612Z" fill="#3A3A3A"/>
    <path d="M46.7501 64.473L37.2534 65.3975L37.2676 65.5431L46.7643 64.6186L46.7501 64.473Z" fill="#3A3A3A"/>
    <path d="M46.3499 63.1811L37.239 64.1934L37.2552 64.3388L46.366 63.3265L46.3499 63.1811Z" fill="#3A3A3A"/>
    <path d="M45.8144 62.04L37.0636 63.0293L37.08 63.1747L45.8308 62.1854L45.8144 62.04Z" fill="#3A3A3A"/>
    <path d="M45.1555 61.0471L36.6067 61.7109L36.618 61.8568L45.1669 61.193L45.1555 61.0471Z" fill="#3A3A3A"/>
    <path d="M44.6266 60.0509L36.3278 60.793L36.3408 60.9387L44.6396 60.1966L44.6266 60.0509Z" fill="#3A3A3A"/>
    <path d="M44.1034 59.0591L36.0742 59.9512L36.0904 60.0966L44.1196 59.2045L44.1034 59.0591Z" fill="#3A3A3A"/>
    <path d="M43.7302 58.0623L35.791 58.8184L35.8049 58.964L43.7441 58.2079L43.7302 58.0623Z" fill="#3A3A3A"/>
    <path d="M43.063 57.0795L35.4719 57.9082L35.4878 58.0536L43.0788 57.225L43.063 57.0795Z" fill="#3A3A3A"/>
    <path d="M42.7064 56.2046L35.1669 56.8643L35.1796 57.01L42.7191 56.3504L42.7064 56.2046Z" fill="#3A3A3A"/>
    <path d="M34.3696 53.8029L33.5953 43.8224C33.5489 43.2479 33.9843 42.7412 34.5587 42.6984L39.3902 42.3237C39.9647 42.2773 40.4714 42.7126 40.5142 43.2871L41.2885 53.2676C41.3349 53.8421 40.8996 54.3488 40.3251 54.3916L35.4936 54.7663C34.9191 54.8127 34.4124 54.3774 34.3696 53.8029Z" fill="#3917B3"/>
    <path d="M24.25 69.2639L15.6576 69.3817H15.5898L15.0759 62.7661C15.0117 61.9275 15.6397 61.196 16.4747 61.1318L24.9208 60.4752C25.7594 60.411 26.4909 61.039 26.5551 61.874L27.1117 69.0391L27.0368 69.0462L24.25 69.2639Z" fill="#929292"/>
    <path d="M33.5525 35.6541L32.9602 28.0287C32.9138 27.4542 33.3491 26.9475 33.9236 26.9046L35.5151 26.7798C36.0896 26.7334 36.5963 27.1687 36.6391 27.7432L37.2314 35.3686C37.2778 35.9431 36.8425 36.4498 36.268 36.4926L34.6765 36.6175C34.102 36.6639 33.5953 36.2286 33.5525 35.6541Z" fill="#3A3A3A"/>
    <path d="M37.7667 68.9535L36.8211 62.5128L35.0155 56.4324L34.516 54.7696C33.7202 54.3129 32.7461 54.9658 32.8639 55.8758L32.9566 56.593L34.7622 62.6733L35.7078 69.1141" fill="#929292"/>
    <path d="M134.6 67.7234L-0.00268555 69.4619L0.00113949 69.7581L134.603 68.0195L134.6 67.7234Z" fill="#929292"/>
    <path d="M44.6605 129.435C44.3608 128.929 43.0548 129.471 42.8157 129.011C42.5767 128.55 43.7863 127.851 44.4786 126.252C44.6035 125.963 45.3885 124.147 44.8068 123.587C43.7042 122.524 38.6551 126.909 36.8888 125.475C36.4999 125.161 36.2287 124.533 35.0583 123.508C34.5909 123.102 34.309 122.92 34.0378 122.987C33.6488 123.084 33.6203 123.605 33.2028 124.622C32.5783 126.153 32.2108 126.06 31.8468 127.28C31.5757 128.186 31.6399 128.715 31.3223 128.814C30.8727 128.961 30.4588 127.997 29.8914 128.083C29.3098 128.172 28.9601 129.289 28.8495 130.128C28.6425 131.701 29.217 132.736 29.5382 133.828C29.8843 135.013 30.0913 136.815 29.2884 139.369L21.3383 161.768C23.0939 157.172 28.1751 144.572 30.3089 139.89C30.9262 138.538 31.6042 137.168 33.003 136.625C34.3482 136.105 36.1966 136.415 38.5516 135.848C38.8264 135.78 39.59 135.587 39.6864 135.137C39.7649 134.766 39.3153 134.559 39.3866 134.21C39.4794 133.742 40.3608 133.739 41.4491 133.2C42.2127 132.822 42.6909 132.369 43.1012 131.98C43.2261 131.862 45.0638 130.103 44.6605 129.425V129.435Z" fill="white"/>
    <path d="M13.3846 141.226C13.0491 141.226 12.9385 142.025 12.6424 142.007C12.3498 141.993 12.3533 141.197 11.7681 140.394C11.6611 140.251 10.9974 139.338 10.5549 139.463C9.71636 139.698 10.4122 143.442 9.19539 143.895C8.92777 143.995 8.5424 143.945 7.70385 144.227C7.36843 144.337 7.19715 144.423 7.15433 144.576C7.09011 144.794 7.33632 144.958 7.71812 145.458C8.28905 146.203 8.13561 146.36 8.6316 146.888C8.99914 147.281 9.27389 147.402 9.23464 147.588C9.17755 147.848 8.58522 147.777 8.46389 148.08C8.339 148.391 8.78861 148.887 9.16685 149.183C9.87693 149.74 10.5549 149.754 11.1829 149.911C11.8645 150.082 12.8101 150.5 13.8306 151.631L22.5301 161.993C20.7816 159.806 16.0643 153.675 14.3837 151.277C13.8984 150.585 13.4202 149.854 13.5594 149.015C13.6914 148.205 14.3765 147.388 14.7798 146.068C14.8261 145.914 14.951 145.483 14.7583 145.308C14.5978 145.161 14.3694 145.322 14.216 145.186C14.0126 145.008 14.2659 144.573 14.3159 143.884C14.3516 143.399 14.2659 143.035 14.1946 142.721C14.1731 142.628 13.8377 141.215 13.3917 141.218L13.3846 141.226Z" fill="white"/>
    <path d="M20.0929 142.731L19.8895 140.922L19.9823 140.786C20.4105 140.151 20.6282 139.534 20.6317 138.945C20.6317 138.852 20.6282 138.759 20.6246 138.663C20.6068 138.285 20.5853 137.817 20.8316 137.271C20.9671 136.968 21.3525 136.261 21.9342 136.347C22.0912 136.368 22.2089 136.44 22.2981 136.525C22.3124 136.504 22.3231 136.483 22.3409 136.461C22.5229 136.187 22.6656 136.069 22.8012 135.955C22.9083 135.869 23.0153 135.776 23.1866 135.566C23.2616 135.473 23.3186 135.391 23.3686 135.319C23.5185 135.112 23.7147 134.863 24.0573 134.866C24.4248 134.884 24.6175 135.187 24.746 135.391C24.9743 135.751 25.0778 136.012 25.1456 136.183C25.1706 136.247 25.1991 136.315 25.2134 136.34C25.3312 136.515 26.2982 136.351 26.6621 136.294C27.4793 136.158 28.1858 136.04 28.4784 136.554C28.6853 136.922 28.5319 137.41 28.0038 138.042C27.8397 138.238 27.6648 138.388 27.5078 138.506C27.6363 138.584 27.7505 138.702 27.7968 138.884C27.9075 139.323 27.5292 139.762 26.6764 140.19C26.4659 140.297 26.1804 140.44 25.7808 140.511C25.5916 140.543 25.4239 140.551 25.2776 140.554C25.2776 140.636 25.2562 140.729 25.2027 140.822C25.0528 141.096 24.7424 141.229 24.2714 141.196C23.754 141.168 23.3293 141.071 22.9547 140.986C22.6264 140.911 22.3445 140.847 22.1233 140.861C21.7129 140.893 21.3953 141.225 21.0242 141.65L20.0965 142.734L20.0929 142.731Z" fill="white"/>
    <path d="M21.0349 131.962L19.3364 132.615L19.1794 132.561C18.4586 132.308 17.802 132.255 17.2347 132.401C17.1455 132.426 17.0563 132.451 16.9635 132.479C16.6031 132.594 16.1535 132.733 15.5647 132.633C15.2364 132.579 14.455 132.383 14.3943 131.801C14.3765 131.644 14.4157 131.512 14.4728 131.405C14.4479 131.398 14.4264 131.391 14.4015 131.38C14.091 131.277 13.9412 131.166 13.7949 131.063C13.6842 130.984 13.5701 130.899 13.3203 130.788C13.2097 130.738 13.1169 130.702 13.0384 130.674C12.7993 130.581 12.5067 130.456 12.4246 130.121C12.3497 129.76 12.5923 129.496 12.7565 129.321C13.0455 129.011 13.2703 128.843 13.4202 128.733C13.4737 128.693 13.5344 128.647 13.5522 128.629C13.6914 128.469 13.2882 127.577 13.1383 127.241C12.7993 126.485 12.5067 125.832 12.9313 125.418C13.2346 125.122 13.7449 125.15 14.4907 125.5C14.7226 125.61 14.9117 125.742 15.0652 125.86C15.108 125.718 15.1901 125.575 15.3578 125.482C15.7538 125.264 16.2748 125.518 16.9064 126.235C17.0634 126.413 17.2739 126.652 17.4416 127.02C17.5201 127.195 17.5701 127.355 17.6129 127.495C17.695 127.477 17.7878 127.473 17.8912 127.495C18.1946 127.569 18.4015 127.837 18.4907 128.301C18.5942 128.808 18.6085 129.243 18.6192 129.628C18.6299 129.964 18.6406 130.253 18.712 130.463C18.8475 130.852 19.2472 131.077 19.7539 131.327L21.0385 131.951L21.0349 131.962Z" fill="white"/>
    <path d="M20.0929 126.635L19.8895 124.826L19.9823 124.69C20.4105 124.055 20.6282 123.438 20.6317 122.849C20.6317 122.756 20.6282 122.664 20.6246 122.567C20.6068 122.189 20.5853 121.722 20.8316 121.176C20.9671 120.872 21.3525 120.166 21.9342 120.251C22.0912 120.273 22.2089 120.344 22.2981 120.43C22.3124 120.408 22.3231 120.387 22.3409 120.366C22.5229 120.091 22.6656 119.973 22.8012 119.859C22.9083 119.773 23.0153 119.68 23.1866 119.47C23.2616 119.377 23.3186 119.295 23.3686 119.224C23.5185 119.017 23.7147 118.767 24.0573 118.771C24.4248 118.788 24.6175 119.092 24.746 119.295C24.9743 119.655 25.0778 119.916 25.1456 120.087C25.1706 120.151 25.1991 120.219 25.2134 120.244C25.3312 120.419 26.2982 120.255 26.6621 120.198C27.4793 120.062 28.1858 119.945 28.4784 120.458C28.6853 120.826 28.5319 121.315 28.0038 121.946C27.8397 122.143 27.6648 122.292 27.5078 122.41C27.6363 122.489 27.7505 122.606 27.7968 122.788C27.9075 123.227 27.5292 123.666 26.6764 124.094C26.4659 124.201 26.1804 124.344 25.7808 124.416C25.5916 124.448 25.4239 124.455 25.2776 124.458C25.2776 124.54 25.2562 124.633 25.2027 124.726C25.0528 125.001 24.7424 125.133 24.2714 125.101C23.754 125.072 23.3293 124.976 22.9547 124.89C22.6264 124.815 22.3445 124.751 22.1233 124.765C21.7129 124.797 21.3953 125.129 21.0242 125.554L20.0965 126.639L20.0929 126.635Z" fill="white"/>
    <path d="M21.9449 161.74L21.5667 161.501L21.1242 161.551C21.1171 161.508 21.0921 161.415 21.0564 161.269C20.8601 160.459 20.2571 158 19.754 154.125C19.4043 151.42 19.2045 148.637 19.1616 145.857C19.1188 143.071 19.2508 140.962 19.3579 139.267C19.4364 137.989 19.5363 136.773 19.6291 135.584C19.8824 132.416 20.1215 129.422 19.9431 126.111C19.9038 125.372 19.8218 123.83 18.9226 122.193C18.4016 121.243 17.6808 120.398 16.7852 119.688L17.3418 118.988C18.3302 119.777 19.1259 120.712 19.704 121.764C20.6996 123.581 20.7923 125.258 20.8352 126.064C21.0171 129.436 20.7745 132.459 20.5176 135.656C20.4248 136.837 20.3249 138.05 20.2464 139.324C20.1429 141.005 20.0109 143.092 20.0501 145.843C20.0894 148.591 20.2856 151.338 20.6318 154.011C21.1278 157.836 21.7237 160.263 21.9163 161.058C22.0198 161.483 22.0412 161.572 21.9342 161.74H21.9449Z" fill="white"/>
    <path d="M15.1473 121.111C15.1117 121.111 15.0724 121.111 15.0367 121.111C14.2767 121.068 13.5702 120.615 12.9421 119.755C12.646 119.352 12.4961 118.891 12.1964 117.974C12.15 117.832 11.9216 117.114 11.786 116.126C11.6968 115.48 11.7075 115.213 11.836 114.973C11.9787 114.709 12.2071 114.524 12.4676 114.399C12.4569 114.313 12.4676 114.224 12.5032 114.135C12.6567 113.764 13.0599 113.81 13.2811 113.835C13.3917 113.849 13.5309 113.867 13.6808 113.86C13.9163 113.849 14.0412 113.778 14.2339 113.675C14.4158 113.575 14.6442 113.45 14.9832 113.382C15.6469 113.243 16.2071 113.432 16.3891 113.493C17.3561 113.814 17.8343 114.567 18.3838 115.437C18.4944 115.612 18.8726 116.247 19.1224 117.118C19.3008 117.746 19.2758 118.028 19.2223 118.235C19.1117 118.663 18.8512 118.906 18.1911 119.445C17.5024 120.008 17.1563 120.294 16.8601 120.465C16.1679 120.865 15.7361 121.115 15.158 121.115L15.1473 121.111Z" fill="white"/>
    <path d="M214.957 161.333C214.957 161.497 214.821 161.633 214.657 161.633H6.91174V161.033H214.657C214.821 161.033 214.957 161.169 214.957 161.333Z" fill="#DFDFDF"/>
    <path d="M154.985 66.5853C154.985 66.5853 143.802 67.9305 145.689 59.0883C147.577 50.2461 158.271 33.9141 158.271 33.9141L164.341 37.3182L157.372 53.7894L160.373 56.1552L154.988 66.5853H154.985Z" fill="#6E445A"/>
    <path d="M191.631 55.8197L190.054 68.7797L150.571 68.587L158.499 54.8027L191.631 55.8197Z" fill="#FF5655"/>
    <path d="M168.157 34.596C170.573 31.2214 170.766 27.2219 168.589 25.6629C166.411 24.1038 162.687 25.5756 160.271 28.9503C157.855 32.3249 157.662 36.3244 159.839 37.8834C162.017 39.4425 165.741 37.9706 168.157 34.596Z" fill="#6E445A"/>
    <path d="M190.257 105.229H187.834V161.473H190.257V105.229Z" fill="#3A3A3A"/>
    <path d="M178.621 105.229H176.198V161.473H178.621V105.229Z" fill="#3A3A3A"/>
    <path d="M113.404 69.8359H110.981V161.477H113.404V69.8359Z" fill="#DFDFDF"/>
    <path d="M152.437 105.229H150.014V161.473H152.437V105.229Z" fill="#3A3A3A"/>
    <path d="M143.159 105.229H140.737V161.473H143.159V105.229Z" fill="#3A3A3A"/>
    <path d="M185.651 104.016H138.835L129.853 116.754L176.441 119.534L185.651 104.016Z" fill="#3A3A3A"/>
    <path d="M99.9261 60.4326L100.14 51.1943L71.883 53.3674L71.7402 59.6298L99.9261 60.4326Z" fill="#6E445A"/>
    <path d="M80.8037 52.2649L79.4513 55.5156L77.5102 55.5763C77.5102 55.5763 79.7832 56.2721 80.4147 60.4006L78.5485 60.9608C78.5485 60.9608 76.7572 62.6308 73.4102 62.4702L64.4324 61.7209L64.3967 58.5915L70.602 57.8742C70.602 57.8742 71.9829 56.9643 65.1425 53.2248C65.1425 53.2248 62.8766 51.8403 64.9141 44.9927C65.196 44.0507 66.0417 43.3763 67.023 43.3549C67.5654 43.3442 68.0721 43.5369 68.2754 44.2113C68.7928 45.9241 68.2683 47.6297 69.6849 48.7002C71.1015 49.7707 80.8001 52.2649 80.8001 52.2649H80.8037Z" fill="#21213F"/>
    <path d="M182.15 95.7514C182.15 95.7514 172.401 112.333 150.339 109.343C145.09 108.633 140.469 105.511 137.839 100.911C132.754 92.0226 125.029 76.4613 127.534 67.6512L90.224 60.5289L87.2837 51.4691L127.662 46.2237C131.234 45.7598 134.731 47.4976 136.522 50.6234L156.191 84.9752L162.053 85.614L182.146 95.7479L182.15 95.7514Z" fill="#21213F"/>
    <path d="M100.661 64.2162L100.133 54.9922L72.1434 59.4311L72.5003 65.6828L100.661 64.2162Z" fill="#6E445A"/>
    <path d="M80.9429 57.6111L79.8581 60.9617L77.9277 61.1794C77.9277 61.1794 80.247 61.6897 81.2105 65.7539L79.3978 66.4605C79.3978 66.4605 77.7457 68.2696 74.3986 68.3766L65.3923 68.3516L65.1068 65.2365L71.2336 64.0233C71.2336 64.0233 72.5396 63.0064 65.4173 59.8306C65.4173 59.8306 63.0479 58.6316 64.5288 51.6449C64.7322 50.6851 65.5208 49.9429 66.4985 49.843C67.0373 49.7894 67.5582 49.9393 67.8152 50.5959C68.4682 52.2623 68.0828 54.0036 69.5815 54.9563C71.0801 55.909 80.95 57.6147 80.95 57.6147L80.9429 57.6111Z" fill="#21213F"/>
    <path d="M185.462 92.8048C185.462 92.8048 177.08 110.118 154.849 108.912C149.561 108.627 144.705 105.886 141.711 101.515C135.927 93.0652 126.977 78.1748 128.765 69.1934L91.002 65.097L87.3445 56.3012L127.17 47.823C130.692 47.0737 134.321 48.5224 136.355 51.4948L158.724 84.1517L164.619 84.3194L185.462 92.8048Z" fill="#21213F"/>
    <path d="M159.905 19.7012L157.964 21.1535L168.148 35.2161L170.086 34.7308L159.905 19.7012Z" fill="#3A3A3A"/>
    <path d="M186.378 50.9238L197.529 50.4385L202.379 72.2585C202.379 72.2585 192.195 110.564 180.073 109.108C180.073 109.108 172.558 103.531 172.558 101.593C172.558 99.6558 162.375 94.8065 162.375 94.8065L159.952 86.5638L167.224 75.4129C167.224 75.4129 170.132 66.6849 179.831 61.8356L186.375 50.9273L186.378 50.9238Z" fill="#FF5655"/>
    <path d="M122.62 67.8945H23.465V70.321H71.9508V161.476H74.3736V70.321H122.62V67.8945Z" fill="#DFDFDF"/>
    <path d="M192.198 48.9858C199.429 48.9858 205.29 43.1243 205.29 35.8938C205.29 28.6633 199.429 22.8018 192.198 22.8018C184.968 22.8018 179.106 28.6633 179.106 35.8938C179.106 43.1243 184.968 48.9858 192.198 48.9858Z" fill="#6E445A"/>
    <path d="M146.553 52.6221L137.407 56.2582L155.349 80.0158L161.65 75.1665L146.553 52.6221Z" fill="#DFDFDF"/>
    <path d="M182.257 98.2006C182.257 98.2006 178.864 108.941 171.591 103.571C164.319 98.2006 153.864 81.7151 153.864 81.7151L159.47 77.5938L171.591 90.7429L174.985 88.9873L182.257 98.2006Z" fill="#6E445A"/>
    <path d="M187.592 60.3799L198.743 67.1668L182.257 103.049L171.592 88.5015L187.592 60.3799Z" fill="#FF5655"/>
    <path d="M158.136 81.9166C160.456 80.5775 160.654 76.5782 158.579 72.9839C156.503 69.3896 152.941 67.5614 150.621 68.9005C148.302 70.2396 148.104 74.2389 150.179 77.8332C152.254 81.4275 155.817 83.2557 158.136 81.9166Z" fill="#6E445A"/>
    <path d="M193.629 75.5306C196.99 64.5153 200.594 61.0291 204.384 63.2129C207.271 64.8757 208.138 68.6545 206.446 71.5234C202.136 78.8348 193.254 95.5843 195.106 106.685C195.106 106.685 198.015 122.2 174.742 122.2C151.47 122.2 129.165 116.866 129.165 116.866L141.286 114.924L168.851 116.894C175.149 117.344 180.459 111.956 179.616 105.697C179.588 105.49 179.556 105.283 179.517 105.069C178.136 97.4684 193.629 75.527 193.629 75.527V75.5306Z" fill="#3A3A3A"/>
    <path d="M187.292 30.4662C186.222 33.46 188.573 36.5715 191.745 36.3575H191.82C193.954 39.0194 194.011 42.7911 191.963 45.5208C191.795 49.0427 192.345 52.5574 193.583 55.8581L197.058 65.1285L202.411 62.6307L204.951 69.4104L219.895 61.7101L210.839 41.3316L208.074 30.2771C206.108 22.4126 198.083 17.6775 190.247 19.7578L184.234 21.3564C179.485 22.6196 176.751 27.5902 178.229 32.2789L187.285 30.4662" fill="#21213F"/>
  </g>
  <defs>
    <clipPath id="clip0_188_10827">
      <rect width="219.899" height="162" fill="white"/>
    </clipPath>
  </defs>
</svg>
