<svg width="182" height="162" viewBox="0 0 182 162" fill="none" xmlns="http://www.w3.org/2000/svg">
  <g clip-path="url(#clip0_188_10941)">
    <path d="M1.07896 150.372C3.15078 155.11 7.75515 158.011 12.4695 160.368C13.1264 160.698 13.7863 161.016 14.4402 161.328C14.4432 161.328 14.4492 161.334 14.4551 161.334C14.4878 161.349 14.5175 161.364 14.5473 161.379C14.684 161.444 14.8178 161.507 14.9515 161.569L14.8891 161.608L14.6899 161.73C14.7583 161.691 14.8267 161.652 14.895 161.614C14.9158 161.602 14.9367 161.59 14.9575 161.578C17.3354 160.232 19.7491 158.805 21.4256 156.653C23.1615 154.417 23.9195 151.169 22.4957 148.722C22.3084 148.401 22.0855 148.104 21.8328 147.83C21.7288 147.717 21.6188 147.608 21.5029 147.503C19.3478 145.485 15.9622 145.595 13.9438 147.75C13.2721 148.467 12.8113 149.355 12.6092 150.318C11.8988 147.402 14.0122 144.599 16.1167 142.459C18.2242 140.319 20.6289 137.977 20.6943 134.974C20.6914 133.322 19.9809 131.752 18.7474 130.655C18.7087 130.62 18.6731 130.587 18.6344 130.554C17.1749 129.238 15.2725 128.521 13.3077 128.545C9.65456 128.646 6.40861 131.018 4.12278 133.869C0.442853 138.455 -1.28416 144.983 1.07302 150.372H1.07896Z" fill="white"/>
    <path d="M6.9972 143.033C6.44729 144.201 6.07276 145.44 5.88252 146.716C5.72796 147.854 5.74579 149.007 5.93306 150.14C6.34028 152.467 7.29742 154.664 8.73016 156.546C9.80917 157.972 11.0665 159.257 12.4695 160.371C13.1264 160.701 13.7863 161.019 14.4403 161.331C14.4433 161.331 14.4492 161.337 14.4551 161.337C14.4878 161.352 14.5176 161.367 14.5473 161.382C14.684 161.447 14.8178 161.51 14.9515 161.572L14.8891 161.611L14.69 161.733C14.7583 161.694 14.8267 161.655 14.8951 161.617C14.9159 161.605 14.9367 161.593 14.9575 161.581C14.0033 157.895 14.898 153.974 17.3563 151.064C18.572 149.649 20.1058 148.541 21.8328 147.833C21.7288 147.72 21.6188 147.61 21.5029 147.506C20.8371 147.792 20.198 148.134 19.5946 148.532C17.4306 149.947 15.7809 152.019 14.8891 154.444C14.0925 156.644 13.9379 159.028 14.4462 161.311C14.3303 161.23 14.2144 161.15 14.1014 161.067C11.9196 159.572 10.0291 157.69 8.52803 155.514C7.2677 153.647 6.48594 151.501 6.25111 149.263C6.02223 146.817 6.69401 144.436 7.83841 142.29C9.09874 139.992 10.6682 137.881 12.5022 136.009C14.3452 134.086 16.417 132.394 18.6701 130.973C18.7742 130.905 18.8098 130.768 18.7474 130.658C18.7236 130.611 18.685 130.575 18.6344 130.557C18.5839 130.542 18.5274 130.551 18.4858 130.584C18.2064 130.759 17.9329 130.938 17.6595 131.119C15.3885 132.641 13.3137 134.442 11.4856 136.475C9.66946 138.422 8.1535 140.634 6.99423 143.03L6.9972 143.033Z" fill="#CFCFCF"/>
    <path d="M80.7593 110.065C76.5235 110.065 73.0903 106.632 73.0903 102.396C73.0903 98.1603 76.5235 94.7271 80.7593 94.7271C84.9951 94.7271 88.4283 98.1603 88.4283 102.396C88.4224 106.629 84.9921 110.062 80.7593 110.065ZM80.7593 95.3215C76.8505 95.3215 73.6848 98.4902 73.6848 102.396C73.6848 106.302 76.8535 109.471 80.7593 109.471C84.6652 109.471 87.8338 106.302 87.8338 102.396C87.8308 98.4902 84.6652 95.3245 80.7593 95.3215Z" fill="#FF5655"/>
    <path d="M80.0309 105.208C79.8645 105.208 79.704 105.154 79.5702 105.056L79.5613 105.05L77.8283 103.725C77.4895 103.466 77.427 102.982 77.6857 102.646C77.9443 102.31 78.4288 102.244 78.7647 102.503L79.8883 103.365L82.5397 99.9051C82.7983 99.5692 83.2828 99.5038 83.6187 99.7624C83.9546 100.021 84.02 100.506 83.7614 100.841L80.6433 104.908C80.4976 105.098 80.2717 105.208 80.0309 105.208Z" fill="#FF5655"/>
    <path d="M53.6146 63.9529C57.6465 63.9529 60.915 60.6844 60.915 56.6525C60.915 52.6206 57.6465 49.3521 53.6146 49.3521C49.5827 49.3521 46.3142 52.6206 46.3142 56.6525C46.3142 60.6844 49.5827 63.9529 53.6146 63.9529Z" fill="#C08C65"/>
    <path d="M50.978 99.8546C50.8858 99.8546 50.7937 99.8516 50.7015 99.8427C48.9002 99.6911 47.5656 98.1127 47.7142 96.3114C47.7231 96.1866 47.741 96.0647 47.7647 95.9428C47.7855 95.8388 47.8123 95.7348 47.845 95.6307L37.0698 82.8877C36.3474 82.0287 36.2761 80.7981 36.8944 79.8617L36.9152 79.8379L46.6144 70.2755C47.7172 69.1876 49.4917 69.1995 50.5797 70.3022C51.6676 71.405 51.6557 73.1796 50.5529 74.2675C50.541 74.2794 50.5291 74.2913 50.5172 74.3032L43.4933 80.9824L51.1831 93.3241C51.3287 93.333 51.4744 93.3508 51.6171 93.3776C53.3887 93.7313 54.539 95.4524 54.1853 97.224C53.8791 98.7518 52.5415 99.8516 50.9839 99.8546H50.978Z" fill="#C08C65"/>
    <path d="M65.6382 158.26H69.2824L71.0154 144.204H65.6382V158.26Z" fill="#C08C65"/>
    <path d="M64.7078 157.072H71.8833C74.4099 157.072 76.458 159.12 76.458 161.646V161.795H64.7078V157.072Z" fill="#161616"/>
    <path d="M29.4155 153.222L32.5485 155.086L41.2282 143.898L36.6089 141.145L29.4155 153.222Z" fill="#C08C65"/>
    <path d="M29.2255 151.724L35.3934 155.395C37.5633 156.688 38.2767 159.494 36.9836 161.664L36.9063 161.792L26.8088 155.782L29.2255 151.724Z" fill="#161616"/>
    <path d="M70.1416 153.297H66.0604C65.3768 153.297 64.8001 152.782 64.7317 152.102L60.6178 113.43C60.5911 113.186 60.3711 113.008 60.1274 113.034C59.9698 113.052 59.8331 113.15 59.7677 113.293L52.3454 129.728L39.2071 151.153C38.8563 151.721 38.14 151.944 37.5276 151.68L32.2782 149.37C31.6005 149.073 31.2943 148.282 31.5916 147.607C31.6124 147.557 31.6391 147.509 31.6689 147.462L43.749 127.237L47.4527 110.196C46.2875 102.806 51.2813 91.8198 51.3318 91.7098L51.3556 91.6563L66.3755 85.6489L66.4439 85.7322C75.3673 96.6263 73.9167 123.331 71.4733 152.075C71.4109 152.764 70.8342 153.297 70.1387 153.3L70.1416 153.297Z" fill="#161616"/>
    <path d="M50.8025 93.4517L50.7372 93.3179C50.7074 93.2525 47.6487 86.8023 45.2886 79.9061C44.3731 77.2101 44.6287 74.2525 45.9931 71.7556C47.3753 69.2319 49.7562 67.4009 52.5504 66.7143C57.5114 65.5253 62.5944 68.147 64.4997 72.8792C66.3694 77.5578 67.0352 81.9214 66.4734 85.8451L66.4616 85.9224L66.3902 85.9581L50.7996 93.4547L50.8025 93.4517Z" fill="#FF5655"/>
    <path d="M76.4907 103.918C75.8635 104.703 74.9183 105.166 73.9106 105.181C72.0558 105.208 70.5279 103.722 70.5042 101.867C70.5042 101.822 70.5042 101.775 70.5042 101.73C70.5101 101.564 70.5279 101.4 70.5577 101.237L56.1828 74.4607C55.3951 73.2004 55.7785 71.5418 57.0388 70.754C58.2992 69.9663 59.9578 70.3498 60.7455 71.6101C60.7515 71.619 60.7574 71.628 60.7604 71.6369L74.8053 98.6002C76.5858 99.1174 77.6084 100.981 77.0912 102.762C76.9693 103.184 76.7642 103.579 76.4878 103.921L76.4907 103.918Z" fill="#C08C65"/>
    <path d="M62.4667 52.5294H50.874V47.4762C53.4185 46.4656 55.9094 45.6065 57.4135 47.4762C60.2046 47.4762 62.4667 49.7383 62.4667 52.5294Z" fill="#161616"/>
    <path d="M50.2319 46.5845C43.3031 46.5845 41.3621 55.27 41.3621 60.1717C41.3621 62.9034 42.5986 63.8813 44.5396 64.2142L45.2263 60.5551L46.8314 64.3718C47.3784 64.3718 47.9491 64.3629 48.5436 64.3539L49.0875 63.2333L50.3033 64.3361C55.1692 64.3421 59.0988 65.0525 59.0988 60.1776C59.0988 55.3027 57.3986 46.5904 50.229 46.5904L50.2319 46.5845Z" fill="#161616"/>
    <path d="M113.103 47.2623C114.416 47.2623 115.481 46.1977 115.481 44.8843C115.481 43.571 114.416 42.5063 113.103 42.5063C111.79 42.5063 110.725 43.571 110.725 44.8843C110.725 46.1977 111.79 47.2623 113.103 47.2623Z" fill="#929292"/>
    <path d="M174.095 73.8009C169.859 73.8009 166.426 70.3677 166.426 66.1319C166.426 61.8961 169.859 58.4629 174.095 58.4629C178.331 58.4629 181.764 61.8961 181.764 66.1319C181.758 70.3647 178.328 73.7979 174.095 73.8009ZM174.095 59.0574C170.186 59.0574 167.021 62.226 167.021 66.1319C167.021 70.0377 170.189 73.2064 174.095 73.2064C178.001 73.2064 181.17 70.0377 181.17 66.1319C181.167 62.226 178.001 59.0604 174.095 59.0574Z" fill="#FF5655"/>
    <path d="M173.367 68.9438C173.2 68.9438 173.04 68.8903 172.906 68.7922L172.897 68.7863L171.164 67.4605C170.825 67.2019 170.763 66.7174 171.022 66.3815C171.28 66.0427 171.765 65.9802 172.101 66.2389L173.224 67.1009L175.876 63.6409C176.134 63.305 176.619 63.2396 176.955 63.4982C177.291 63.7568 177.356 64.2414 177.097 64.5772L173.979 68.6436C173.834 68.8338 173.608 68.9438 173.367 68.9438Z" fill="#FF5655"/>
    <path d="M173.147 45.1814H120.831C120.668 45.1814 120.534 45.0476 120.534 44.8842C120.534 44.7207 120.668 44.5869 120.831 44.5869H173.147C173.31 44.5869 173.444 44.7207 173.444 44.8842C173.444 45.0476 173.31 45.1814 173.147 45.1814Z" fill="#161616"/>
    <path d="M173.147 50.8294H120.831C120.668 50.8294 120.534 50.6956 120.534 50.5321C120.534 50.3686 120.668 50.2349 120.831 50.2349H173.147C173.31 50.2349 173.444 50.3686 173.444 50.5321C173.444 50.6956 173.31 50.8294 173.147 50.8294Z" fill="#161616"/>
    <path d="M173.147 56.4773H120.831C120.668 56.4773 120.534 56.3435 120.534 56.1801C120.534 56.0166 120.668 55.8828 120.831 55.8828H173.147C173.31 55.8828 173.444 56.0166 173.444 56.1801C173.444 56.3435 173.31 56.4773 173.147 56.4773Z" fill="#161616"/>
    <path d="M161.257 62.1248H120.831C120.668 62.1248 120.534 61.991 120.534 61.8275C120.534 61.664 120.668 61.5303 120.831 61.5303H161.257C161.42 61.5303 161.554 61.664 161.554 61.8275C161.554 61.991 161.42 62.1248 161.257 62.1248Z" fill="#161616"/>
    <path d="M160.96 67.7722H120.831C120.668 67.7722 120.534 67.6385 120.534 67.475C120.534 67.3115 120.668 67.1777 120.831 67.1777H160.96C161.123 67.1777 161.257 67.3115 161.257 67.475C161.257 67.6385 161.123 67.7722 160.96 67.7722Z" fill="#161616"/>
    <path d="M113.103 4.75596C114.416 4.75596 115.481 3.6913 115.481 2.37798C115.481 1.06466 114.416 0 113.103 0C111.79 0 110.725 1.06466 110.725 2.37798C110.725 3.6913 111.79 4.75596 113.103 4.75596Z" fill="#929292"/>
    <path d="M174.095 31.294C169.859 31.294 166.426 27.8608 166.426 23.625C166.426 19.3893 169.859 15.9561 174.095 15.9561C178.331 15.9561 181.764 19.3893 181.764 23.625C181.758 27.8579 178.328 31.2911 174.095 31.294ZM174.095 16.5506C170.186 16.5506 167.021 19.7192 167.021 23.625C167.021 27.5309 170.189 30.6995 174.095 30.6995C178.001 30.6995 181.17 27.5309 181.17 23.625C181.167 19.7192 178.001 16.5535 174.095 16.5506Z" fill="#FF5655"/>
    <path d="M173.367 26.437C173.2 26.437 173.04 26.3835 172.906 26.2854L172.897 26.2794L171.164 24.9537C170.825 24.6951 170.763 24.2106 171.022 23.8747C171.28 23.5358 171.765 23.4734 172.101 23.732L173.224 24.594L175.876 21.1341C176.134 20.7982 176.619 20.7328 176.955 20.9914C177.291 21.25 177.356 21.7345 177.097 22.0704L173.979 26.1368C173.834 26.327 173.608 26.437 173.367 26.437Z" fill="#FF5655"/>
    <path d="M173.147 2.67506H120.831C120.668 2.67506 120.534 2.5413 120.534 2.37781C120.534 2.21433 120.668 2.08057 120.831 2.08057H173.147C173.31 2.08057 173.444 2.21433 173.444 2.37781C173.444 2.5413 173.31 2.67506 173.147 2.67506Z" fill="#161616"/>
    <path d="M173.147 8.32301H120.831C120.668 8.32301 120.534 8.18925 120.534 8.02576C120.534 7.86228 120.668 7.72852 120.831 7.72852H173.147C173.31 7.72852 173.444 7.86228 173.444 8.02576C173.444 8.18925 173.31 8.32301 173.147 8.32301Z" fill="#161616"/>
    <path d="M173.147 13.9705H120.831C120.668 13.9705 120.534 13.8367 120.534 13.6732C120.534 13.5097 120.668 13.376 120.831 13.376H173.147C173.31 13.376 173.444 13.5097 173.444 13.6732C173.444 13.8367 173.31 13.9705 173.147 13.9705Z" fill="#161616"/>
    <path d="M161.257 19.6184H120.831C120.668 19.6184 120.534 19.4847 120.534 19.3212C120.534 19.1577 120.668 19.0239 120.831 19.0239H161.257C161.42 19.0239 161.554 19.1577 161.554 19.3212C161.554 19.4847 161.42 19.6184 161.257 19.6184Z" fill="#161616"/>
    <path d="M160.96 25.2659H120.831C120.668 25.2659 120.534 25.1321 120.534 24.9686C120.534 24.8051 120.668 24.6714 120.831 24.6714H160.96C161.123 24.6714 161.257 24.8051 161.257 24.9686C161.257 25.1321 161.123 25.2659 160.96 25.2659Z" fill="#161616"/>
    <path d="M113.103 89.4718C114.416 89.4718 115.481 88.4071 115.481 87.0938C115.481 85.7805 114.416 84.7158 113.103 84.7158C111.79 84.7158 110.725 85.7805 110.725 87.0938C110.725 88.4071 111.79 89.4718 113.103 89.4718Z" fill="#929292"/>
    <path d="M174.095 116.01C169.859 116.01 166.426 112.577 166.426 108.341C166.426 104.105 169.859 100.672 174.095 100.672C178.331 100.672 181.764 104.105 181.764 108.341C181.758 112.574 178.328 116.007 174.095 116.01ZM174.095 101.266C170.186 101.266 167.021 104.435 167.021 108.341C167.021 112.247 170.189 115.415 174.095 115.415C178.001 115.415 181.17 112.247 181.17 108.341C181.167 104.435 178.001 101.269 174.095 101.266Z" fill="#CFCFCF"/>
    <path d="M173.367 111.153C173.2 111.153 173.04 111.099 172.906 111.001L172.897 110.995L171.164 109.67C170.825 109.411 170.763 108.926 171.022 108.591C171.28 108.255 171.765 108.189 172.101 108.448L173.224 109.31L175.876 105.85C176.134 105.514 176.619 105.449 176.955 105.707C177.291 105.966 177.356 106.45 177.097 106.786L173.979 110.853C173.834 111.043 173.608 111.153 173.367 111.153Z" fill="#CFCFCF"/>
    <path d="M173.147 87.3909H120.831C120.668 87.3909 120.534 87.2571 120.534 87.0936C120.534 86.9301 120.668 86.7964 120.831 86.7964H173.147C173.31 86.7964 173.444 86.9301 173.444 87.0936C173.444 87.2571 173.31 87.3909 173.147 87.3909Z" fill="#161616"/>
    <path d="M173.147 93.0383H120.831C120.668 93.0383 120.534 92.9046 120.534 92.7411C120.534 92.5776 120.668 92.4438 120.831 92.4438H173.147C173.31 92.4438 173.444 92.5776 173.444 92.7411C173.444 92.9046 173.31 93.0383 173.147 93.0383Z" fill="#161616"/>
    <path d="M173.147 98.6863H120.831C120.668 98.6863 120.534 98.5525 120.534 98.389C120.534 98.2256 120.668 98.0918 120.831 98.0918H173.147C173.31 98.0918 173.444 98.2256 173.444 98.389C173.444 98.5525 173.31 98.6863 173.147 98.6863Z" fill="#161616"/>
    <path d="M161.257 104.334H120.831C120.668 104.334 120.534 104.2 120.534 104.037C120.534 103.873 120.668 103.739 120.831 103.739H161.257C161.42 103.739 161.554 103.873 161.554 104.037C161.554 104.2 161.42 104.334 161.257 104.334Z" fill="#161616"/>
    <path d="M160.96 109.982H120.831C120.668 109.982 120.534 109.848 120.534 109.684C120.534 109.521 120.668 109.387 120.831 109.387H160.96C161.123 109.387 161.257 109.521 161.257 109.684C161.257 109.848 161.123 109.982 160.96 109.982Z" fill="#161616"/>
    <path d="M114.815 162H1.56361C1.40012 162 1.26636 161.866 1.26636 161.703C1.26636 161.539 1.40012 161.405 1.56361 161.405H114.815C114.978 161.405 115.112 161.539 115.112 161.703C115.112 161.866 114.978 162 114.815 162Z" fill="#161616"/>
  </g>
  <defs>
    <clipPath id="clip0_188_10941">
      <rect width="181.767" height="162" fill="white"/>
    </clipPath>
  </defs>
</svg>
