<svg width="174" height="162" viewBox="0 0 174 162" fill="none" xmlns="http://www.w3.org/2000/svg">
  <g clip-path="url(#clip0_188_10789)">
    <path d="M117.111 114.845H54.7857C49.5466 114.845 45.2849 110.584 45.2849 105.345V43.0193C45.2849 37.7802 49.5466 33.5186 54.7857 33.5186H117.111C122.35 33.5186 126.612 37.7802 126.612 43.0193V105.345C126.612 110.584 122.35 114.845 117.111 114.845ZM54.7857 35.0365C50.3794 35.0365 46.806 38.6099 46.806 43.0162V105.342C46.806 109.748 50.3794 113.321 54.7857 113.321H98.4426C113.16 113.321 125.091 101.391 125.091 86.6731V43.0162C125.091 38.6099 121.517 35.0365 117.111 35.0365H54.7857Z" fill="#F2F2F2"/>
    <path d="M61.5051 41.5195C58.554 41.5195 56.156 43.9206 56.156 46.8686V55.2411C56.156 58.1922 58.5571 60.5902 61.5051 60.5902H69.8776C72.8287 60.5902 75.2267 58.1891 75.2267 55.2411V46.8686C75.2267 43.9175 72.8255 41.5195 69.8776 41.5195H61.5051Z" fill="#F2F2F2"/>
    <path d="M61.5051 65.0908C58.554 65.0908 56.156 67.4919 56.156 70.4399V78.8124C56.156 81.7635 58.5571 84.1615 61.5051 84.1615H69.8776C72.8287 84.1615 75.2267 81.7604 75.2267 78.8124V70.4399C75.2267 67.4888 72.8255 65.0908 69.8776 65.0908H61.5051Z" fill="#F2F2F2"/>
    <path d="M61.5051 88.6621C58.554 88.6621 56.156 91.0632 56.156 94.0112V102.384C56.156 105.335 58.5571 107.733 61.5051 107.733H69.8776C72.8287 107.733 75.2267 105.332 75.2267 102.384V94.0112C75.2267 91.0601 72.8255 88.6621 69.8776 88.6621H61.5051Z" fill="#F2F2F2"/>
    <path d="M67.0585 21.0918C63.3405 21.0918 60.3171 24.1152 60.3171 27.8332V38.3836C60.3171 42.1016 63.3405 45.125 67.0585 45.125H77.609C81.3269 45.125 84.3503 42.1016 84.3503 38.3836V27.8332C84.3503 24.1152 81.3269 21.0918 77.609 21.0918H67.0585Z" fill="#60E0EB"/>
    <path d="M101.793 50.5742C98.0749 50.5742 95.0515 53.5976 95.0515 57.3156V67.866C95.0515 71.584 98.0749 74.6074 101.793 74.6074H112.343C116.061 74.6074 119.085 71.584 119.085 67.866V57.3156C119.085 53.5976 116.061 50.5742 112.343 50.5742H101.793Z" fill="#60E0EB"/>
    <path d="M86.6917 156.767L84.5483 156.749L83.5991 148.288L86.7639 148.316L86.6917 156.767Z" fill="#F4BFB1"/>
    <path d="M79.8277 160.174C79.8245 160.702 80.2488 161.136 80.7768 161.142L85.0385 161.177L85.7833 159.665L86.0567 161.186L87.6659 161.202L87.2604 155.78L86.701 155.743L84.4193 155.585L83.6839 155.535L83.6713 157.069L80.2488 159.391C79.9879 159.567 79.8308 159.863 79.8277 160.177V160.174Z" fill="#161616"/>
    <path d="M97.5974 156.767L95.454 156.749L94.5049 148.288L97.6697 148.316L97.5974 156.767Z" fill="#F4BFB1"/>
    <path d="M90.7334 160.174C90.7303 160.702 91.1546 161.136 91.6825 161.142L95.9442 161.177L96.6891 159.665L96.9625 161.186L98.5716 161.202L98.1662 155.78L97.6068 155.743L95.3251 155.585L94.5897 155.535L94.5771 157.069L91.1546 159.391C90.8937 159.567 90.7366 159.863 90.7334 160.177V160.174Z" fill="#161616"/>
    <path d="M78.2814 88.3701L86.9682 88.6435L95.1992 90.4727C95.1992 90.4727 94.3758 91.4784 97.1195 94.2221C97.1195 94.2221 100.778 100.624 98.2164 106.844L97.1195 131.719C97.1195 131.719 100.319 149.253 97.8738 154.835L94.643 155.036L89.1744 131.92L86.5093 107.026L85.2302 131.534C85.2302 131.534 90.1267 148.357 87.0342 155.036L83.5362 154.835L77.5491 131.537C77.5491 131.537 74.9877 104.65 75.3555 99.5303C75.72 94.4075 78.2814 88.3733 78.2814 88.3733V88.3701Z" fill="#161616"/>
    <path d="M107.456 49.0631C106.268 49.3711 105.555 50.5842 105.863 51.769C106.004 52.3128 106.334 52.7559 106.768 53.0482L106.598 57.1307L109.722 58.5764L109.971 52.297H109.949C110.219 51.8162 110.313 51.2316 110.162 50.6533C109.854 49.4654 108.641 48.7519 107.456 49.0599V49.0631Z" fill="#F4BFB1"/>
    <path d="M90.0042 63.6269C89.3474 62.9763 88.9671 62.0963 88.9545 61.1378C88.9356 59.8524 89.5799 58.6832 90.6799 58.0138C91.9465 57.2438 93.5273 57.3224 94.709 58.2118L104.515 65.5943L106.262 54.959L110.015 56.1658L109.119 70.0163C109.056 70.9842 108.509 71.8391 107.654 72.2979C106.799 72.7599 105.784 72.7474 104.942 72.2665L90.7711 64.202C90.4851 64.0386 90.2305 63.8437 90.0074 63.6238L90.0042 63.6269Z" fill="#465F9D"/>
    <path d="M75.0507 43.1138C75.6761 44.1697 75.3304 45.5306 74.2775 46.1591C73.7935 46.4451 73.2467 46.5269 72.7344 46.4326L69.9813 49.4528L66.7473 48.2806L70.9901 43.6449L71.0058 43.6606C71.1535 43.1263 71.4961 42.6486 72.0115 42.3438C73.0675 41.7183 74.4284 42.0641 75.0569 43.1169L75.0507 43.1138Z" fill="#F4BFB1"/>
    <path d="M76.2386 65.6196L60.4962 61.3673C59.5597 61.1128 58.8305 60.4088 58.5477 59.4785C58.2648 58.5482 58.4785 57.5582 59.1134 56.826L68.2307 46.3604L71.7444 48.1455L65.4965 56.9297L77.6592 58.5891C79.1269 58.7902 80.3055 59.8494 80.6606 61.2856C80.9686 62.5333 80.604 63.8156 79.6863 64.7176C79.0012 65.387 78.1118 65.7453 77.1878 65.7453C76.8735 65.7453 76.5529 65.7044 76.2355 65.6196H76.2386Z" fill="#465F9D"/>
    <path d="M98.6815 92.0288L76.6691 93.0376C76.0657 92.1199 76.2291 90.7402 77.0745 89.0116C80.2708 82.484 77.8445 70.139 76.2103 63.7088C75.7514 61.9048 76.9834 60.1102 78.8345 59.9248L80.9088 59.7174L82.8259 53.8623H89.5453L92.333 57.046L97.0629 59.9185C96.2018 68.7876 92.5341 81.3117 97.7606 87.5942C98.9046 88.9676 99.2283 90.4542 98.6783 92.0288H98.6815Z" fill="#465F9D"/>
    <path d="M85.3339 53.9969C88.9477 53.9969 91.8772 51.0673 91.8772 47.4535C91.8772 43.8397 88.9477 40.9102 85.3339 40.9102C81.7201 40.9102 78.7905 43.8397 78.7905 47.4535C78.7905 51.0673 81.7201 53.9969 85.3339 53.9969Z" fill="#F4BFB1"/>
    <path d="M92.7385 43.2644C93.6499 39.9455 83.7248 37.0981 81.7952 39.7727C81.528 39.3924 80.5349 39.163 80.0823 39.2793C79.6266 39.3955 79.2463 39.6878 78.8723 39.9707C78.36 40.3635 77.8289 40.7721 77.5115 41.3409C77.1941 41.9067 77.1469 42.6735 77.5712 43.1638C77.9106 43.5535 78.5046 45.6215 79.0106 45.7252C79.3657 45.7975 79.6643 45.8572 79.9189 45.898C80.1483 45.5649 80.7297 45.1469 80.6889 44.7415C81.0346 44.9709 80.9089 45.3732 80.8397 45.7818C80.6072 47.1489 75.3869 57.7433 78.3789 54.6194C78.6743 54.7954 79.042 54.9588 79.4632 55.1065C80.1797 54.0254 80.7675 52.7525 81.154 51.4231V51.4483C81.2892 52.6048 82.1346 53.554 83.2534 53.8777C87.7414 55.1788 91.3713 53.2711 92.619 49.8297C92.1633 48.9026 91.9622 49.0032 92.003 48.9749C92.575 48.5914 93.3576 48.8429 93.6027 49.484C93.675 49.6726 93.741 49.836 93.7976 49.9586C94.4482 47.6329 95.2213 47.966 92.7353 43.2675L92.7385 43.2644Z" fill="#161616"/>
    <path d="M89.6427 40.8537L89.1839 38.5091C89.1462 38.3111 89.1085 38.0974 89.1965 37.9183C89.3096 37.6857 89.605 37.5914 89.8596 37.6292C90.1142 37.6669 90.3059 37.8994 90.5604 37.9434C91.4436 38.1006 92.6096 37.2269 92.927 39.4331C93.059 40.354 94.5267 40.4514 95.017 41.2403C95.5073 42.0291 95.567 43.17 94.8976 43.8142C94.3633 44.3297 93.5053 44.3894 92.8107 44.1254C92.1161 43.8614 91.5599 43.3302 91.0727 42.7708C90.5856 42.2114 90.1456 41.6048 89.583 41.1177" fill="#161616"/>
    <path d="M93.0874 44.4212C91.296 44.1698 90.0766 43.5192 89.4606 42.4852C88.6529 41.1307 89.1935 39.641 89.2186 39.5781L89.5958 39.7196C89.5958 39.7196 89.0992 41.0992 89.8095 42.2841C90.3595 43.2049 91.4814 43.7895 93.144 44.0221L93.0874 44.4212Z" fill="#60E0EB"/>
    <path d="M101.491 19.0958C96.227 19.0958 91.9434 14.8121 91.9434 9.5479C91.9434 4.28367 96.227 0 101.491 0C106.755 0 111.039 4.28367 111.039 9.5479C111.039 14.8121 106.755 19.0958 101.491 19.0958ZM101.491 3.81853C98.3327 3.81853 95.7619 6.38936 95.7619 9.5479C95.7619 12.7064 98.3327 15.2773 101.491 15.2773C104.65 15.2773 107.221 12.7064 107.221 9.5479C107.221 6.38936 104.65 3.81853 101.491 3.81853Z" fill="#60E0EB"/>
    <path d="M116.184 25.5859C115.716 25.5859 115.247 25.4162 114.88 25.0705L105.92 16.6729C105.15 15.9532 105.109 14.7432 105.832 13.9732C106.551 13.2 107.761 13.1623 108.531 13.8852L117.491 22.2828C118.261 23.0025 118.302 24.2125 117.579 24.9825C117.202 25.3848 116.696 25.5859 116.187 25.5859H116.184Z" fill="#60E0EB"/>
    <path d="M156.686 156.554C157.336 156.595 157.694 155.787 157.201 155.319L157.151 155.124C157.151 155.124 157.163 155.092 157.17 155.077C157.826 153.512 160.052 153.521 160.702 155.089C161.28 156.482 162.016 157.874 162.198 159.348C162.28 159.998 162.242 160.658 162.098 161.296C163.452 158.339 164.166 155.108 164.166 151.862C164.166 151.045 164.122 150.231 164.03 149.417C163.955 148.75 163.851 148.09 163.719 147.433C162.993 143.888 161.425 140.513 159.162 137.694C158.075 137.1 157.166 136.17 156.62 135.054C156.422 134.652 156.268 134.221 156.195 133.778C156.318 133.794 156.664 131.908 156.569 131.792C156.742 131.531 157.05 131.399 157.239 131.144C158.175 129.874 159.467 130.094 160.143 131.823C161.582 132.549 161.598 133.756 160.712 134.916C160.149 135.654 160.074 136.65 159.58 137.439C159.63 137.505 159.684 137.568 159.734 137.631C160.664 138.825 161.469 140.108 162.148 141.456C161.956 139.957 162.239 138.153 162.723 136.99C163.273 135.664 164.301 134.548 165.209 133.401C166.299 132.024 168.531 132.624 168.723 134.369C168.723 134.384 168.726 134.403 168.729 134.419C168.594 134.494 168.462 134.576 168.333 134.661C167.597 135.148 167.852 136.286 168.723 136.421H168.741C168.691 136.908 168.609 137.389 168.487 137.864C169.65 142.364 167.139 144.001 163.553 144.074C163.474 144.115 163.396 144.155 163.317 144.193C163.682 145.218 163.971 146.264 164.184 147.33C164.376 148.269 164.511 149.219 164.587 150.174C164.681 151.378 164.672 152.588 164.571 153.788L164.577 153.744C164.835 152.421 165.555 151.186 166.598 150.328C168.154 149.052 170.347 148.581 172.026 147.556C172.833 147.063 173.867 147.701 173.726 148.637L173.72 148.681C173.471 148.782 173.226 148.901 172.991 149.033C172.855 149.109 172.723 149.19 172.595 149.275C171.859 149.762 172.114 150.9 172.984 151.035H173.003C173.003 151.035 173.028 151.041 173.044 151.045C172.617 152.063 172.019 153.006 171.271 153.82C170.545 157.748 167.418 158.119 164.078 156.975C163.713 158.565 163.179 160.121 162.494 161.604H156.83C156.811 161.542 156.792 161.476 156.774 161.413C157.298 161.444 157.826 161.413 158.342 161.318C157.921 160.803 157.503 160.284 157.082 159.769C157.072 159.76 157.063 159.75 157.056 159.738C156.843 159.474 156.629 159.213 156.415 158.949C156.403 158.138 156.5 157.33 156.692 156.548L156.686 156.554Z" fill="#F2F2F2"/>
    <path d="M0 161.626C0 161.833 0.16657 162 0.373996 162H173.32C173.528 162 173.694 161.833 173.694 161.626C173.694 161.419 173.528 161.252 173.32 161.252H0.373996C0.16657 161.252 0 161.419 0 161.626Z" fill="#CCCCCC"/>
  </g>
  <defs>
    <clipPath id="clip0_188_10789">
      <rect width="173.738" height="162" fill="white"/>
    </clipPath>
  </defs>
</svg>
