<svg width="57" height="72" viewBox="0 0 57 72" fill="none" xmlns="http://www.w3.org/2000/svg">
  <path d="M16.2869 50L17.2869 61.5L14.7869 71H18.7869" stroke="black" stroke-linejoin="round"/>
  <path d="M20.212 1.12553C21.6337 -0.375179 24.0237 -0.375176 25.4454 1.12553L44.6695 21.4177C45.3038 22.0872 45.6574 22.9744 45.6574 23.8967V46.9693C45.6574 48.9601 44.0436 50.5739 42.0528 50.5739H3.60453C1.6138 50.5739 0 48.9601 0 46.9693V23.8967C0 22.9744 0.353523 22.0872 0.987812 21.4177L20.212 1.12553Z" fill="white"/>
  <path fill-rule="evenodd" clip-rule="evenodd" d="M20.212 1.43092C20.937 0.665638 21.9138 -0.0149642 22.8855 0.00026074C23.8194 0.0148917 24.7487 0.695495 25.4454 1.43092L44.6695 21.7231C45.3038 22.3926 45.6573 23.2798 45.6573 24.2021V47.2747C45.6573 48.2274 45.6573 50.9587 45.6573 50.9587C45.6573 50.9587 43.0909 50.8793 42.0528 50.8793H3.60453C2.65264 50.8793 4.51057e-06 50.8793 4.51057e-06 50.8793C4.51057e-06 50.8793 0 48.3136 0 47.2747V24.2021C0 23.2798 0.353523 22.3926 0.987812 21.7231L20.212 1.43092ZM23.7009 3.08359C23.227 2.58335 22.4303 2.58335 21.9564 3.08358L2.73229 23.3757C2.52086 23.5989 2.40302 23.8947 2.40302 24.2021V47.2747C2.40302 47.9383 2.94095 48.4762 3.60453 48.4762H42.0528C42.7164 48.4762 43.2543 47.9383 43.2543 47.2747V24.2021C43.2543 23.8947 43.1365 23.5989 42.9251 23.3757L23.7009 3.08359Z" fill="#FF5655"/>
  <path d="M16.7869 34L14.2869 37.5L6.78687 47L1.28687 32" stroke="black" stroke-linecap="round" stroke-linejoin="round"/>
  <path d="M28.7869 50.5L29.7869 60.5L26.7869 71H29.7869" stroke="black" stroke-linejoin="round"/>
  <path d="M26.6363 25.2445C26.6363 25.9081 26.3674 26.446 26.0356 26.446C25.7038 26.446 25.4348 25.9081 25.4348 25.2445C25.4348 24.5809 25.7038 24.043 26.0356 24.043C26.3674 24.043 26.6363 24.5809 26.6363 25.2445Z" fill="black"/>
  <path d="M20.6288 25.2445C20.6288 25.9081 20.3598 26.446 20.028 26.446C19.6962 26.446 19.4272 25.9081 19.4272 25.2445C19.4272 24.5809 19.6962 24.043 20.028 24.043C20.3598 24.043 20.6288 24.5809 20.6288 25.2445Z" fill="black"/>
  <path d="M44.7869 31.5L56.2869 38L44.7869 46V49.5" stroke="black" stroke-linecap="round" stroke-linejoin="round"/>
  <ellipse cx="22.7869" cy="37" rx="4.5" ry="1" stroke="black"/>
</svg>
