<svg width="25" height="24" viewBox="0 0 25 24" fill="none" xmlns="http://www.w3.org/2000/svg">
  <path fill-rule="evenodd" clip-rule="evenodd" d="M7.25635 4.48676H17.7563V7.21107C16.7079 7.89799 16.0119 9.10833 16.0119 10.4868L16.0119 12.6118H9.00087L9.00083 10.4867C9.00083 9.10829 8.3048 7.89795 7.25635 7.21104V4.48676ZM5.50635 6.62043V4.48676C5.50635 3.38219 6.40178 2.48676 7.50635 2.48676H17.5063C18.6109 2.48676 19.5063 3.38219 19.5063 4.48676V6.62043C19.5899 6.61468 19.6742 6.61176 19.7591 6.61176C21.8287 6.61176 23.5063 8.34665 23.5063 10.4868C23.5063 12.326 22.2673 13.8659 20.6053 14.2626V18.3618C20.6053 19.4663 19.7098 20.3618 18.6053 20.3618H17.7041V22.4868H16.0118V20.3618H9.00083V22.4868H7.30853V20.3618H6.40749C5.30292 20.3618 4.4075 19.4663 4.40749 18.3618L4.40745 14.2626C2.74543 13.8659 1.50635 12.326 1.50635 10.4868C1.50635 8.34665 3.18404 6.61176 5.25359 6.61176C5.33853 6.61176 5.42281 6.61468 5.50635 6.62043ZM3.19865 10.4868C3.19865 9.31314 4.11867 8.36176 5.25359 8.36176C6.38851 8.36176 7.30853 9.31316 7.30853 10.4868L7.30861 14.3618H17.7041L17.7042 10.4868C17.7042 9.31313 18.6243 8.36176 19.7591 8.36176C20.894 8.36176 21.814 9.31314 21.814 10.4868C21.814 11.6604 20.894 12.6118 19.7591 12.6118H18.913V18.6118H6.09979L6.09973 12.6118H5.25359C4.11867 12.6118 3.19865 11.6604 3.19865 10.4868Z" fill="#3917B3"/>
</svg>
