<svg width="83" height="76" viewBox="0 0 83 76" fill="none" xmlns="http://www.w3.org/2000/svg">
  <path d="M35.2869 51L36.2869 62.5L33.7869 72V76" stroke="black" stroke-linejoin="round"/>
  <path d="M47.7869 51.5L55.4999 57L52.4999 67.5V71.5" stroke="black" stroke-linejoin="round"/>
  <path d="M39.212 3.12553C40.6337 1.62482 43.0237 1.62482 44.4454 3.12553L63.6695 23.4177C64.3038 24.0872 64.6574 24.9744 64.6574 25.8967V48.9693C64.6574 50.9601 63.0436 52.5739 61.0528 52.5739H22.6045C20.6138 52.5739 19 50.9601 19 48.9693V25.8967C19 24.9744 19.3535 24.0872 19.9878 23.4177L39.212 3.12553Z" fill="white"/>
  <path fill-rule="evenodd" clip-rule="evenodd" d="M39.212 2.43092C39.937 1.66564 40.9138 0.985036 41.8855 1.00026C42.8194 1.01489 43.7487 1.6955 44.4454 2.43092L63.6695 22.7231C64.3038 23.3926 64.6573 24.2798 64.6573 25.2021V48.2747C64.6573 49.2274 64.6573 51.9587 64.6573 51.9587C64.6573 51.9587 62.0909 51.8793 61.0528 51.8793H22.6045C21.6526 51.8793 19 51.8793 19 51.8793C19 51.8793 19 49.3136 19 48.2747V25.2021C19 24.2798 19.3535 23.3926 19.9878 22.7231L39.212 2.43092ZM42.7009 4.08359C42.227 3.58335 41.4303 3.58335 40.9564 4.08358L21.7323 24.3757C21.5209 24.5989 21.403 24.8947 21.403 25.2021V48.2747C21.403 48.9383 21.941 49.4762 22.6045 49.4762H61.0528C61.7164 49.4762 62.2543 48.9383 62.2543 48.2747V25.2021C62.2543 24.8947 62.1365 24.5989 61.9251 24.3757L42.7009 4.08359Z" fill="#FF5655" stroke="#FF5655" stroke-linecap="round"/>
  <path d="M43 27L43.5858 26.4142C44.3668 25.6332 45.6332 25.6332 46.4142 26.4142L47 27" stroke="black" stroke-linecap="round" stroke-linejoin="round"/>
  <path d="M37 27L37.5858 26.4142C38.3668 25.6332 39.6332 25.6332 40.4142 26.4142L41 27" stroke="black" stroke-linecap="round" stroke-linejoin="round"/>
  <path d="M44.4384 36H39.5616C38.2604 36 37.3459 37.2546 38.1915 38.2435C39.0026 39.1922 40.2388 40 42 40C43.7612 40 44.9974 39.1922 45.8085 38.2435C46.6541 37.2546 45.7396 36 44.4384 36Z" stroke="black" stroke-linecap="round" stroke-linejoin="round"/>
  <path d="M63.5 33L73 21L80.5 6.5M80.5 6.5L79.5 4.5M80.5 6.5L81.5 4.5M80.5 6.5H82.5" stroke="black" stroke-linecap="round" stroke-linejoin="round"/>
  <path d="M20 33L10.5 21L3 6.5M3 6.5L4 4.5M3 6.5L2 4.5M3 6.5H1" stroke="black" stroke-linecap="round" stroke-linejoin="round"/>
</svg>
