<svg width="82" height="70" viewBox="0 0 82 70" fill="none" xmlns="http://www.w3.org/2000/svg">
  <path d="M34.9251 2.43092C36.3468 0.93021 38.7368 0.930213 40.1585 2.43092L59.3827 22.7231C60.017 23.3926 60.3705 24.2798 60.3705 25.2021V48.2747C60.3705 50.2655 58.7567 51.8793 56.766 51.8793H18.3177C16.3269 51.8793 14.7131 50.2655 14.7131 48.2747V25.2021C14.7131 24.2798 15.0667 23.3926 15.7009 22.7231L34.9251 2.43092Z" fill="white"/>
  <path fill-rule="evenodd" clip-rule="evenodd" d="M41.6473 50.7595C41.9339 50.5923 42.3017 50.6891 42.4689 50.9757L46.7662 58.3426L46.194 67.4988H50.3605C50.6923 67.4988 50.9613 67.7678 50.9613 68.0996C50.9613 68.4314 50.6923 68.7003 50.3605 68.7003H44.915L45.5443 58.6324L41.4311 51.5811C41.2639 51.2945 41.3607 50.9267 41.6473 50.7595Z" fill="black"/>
  <path fill-rule="evenodd" clip-rule="evenodd" d="M31.5216 50.117C31.8312 49.9979 32.1788 50.1524 32.2979 50.4621L35.3846 58.4876L32.4649 66.0789L36.2917 68.8123C36.5617 69.0051 36.6242 69.3804 36.4314 69.6503C36.2385 69.9203 35.8633 69.9829 35.5933 69.79L31.0095 66.5159L34.0973 58.4876L31.1765 50.8934C31.0574 50.5837 31.2119 50.2362 31.5216 50.117Z" fill="black"/>
  <path fill-rule="evenodd" clip-rule="evenodd" d="M34.9251 2.43092C35.6501 1.66564 36.6269 0.985036 37.5987 1.00026C38.5326 1.01489 39.4618 1.6955 40.1585 2.43092L59.3827 22.7231C60.017 23.3926 60.3705 24.2798 60.3705 25.2021V48.2747C60.3705 49.2274 60.3705 51.9587 60.3705 51.9587C60.3705 51.9587 57.804 51.8793 56.766 51.8793H18.3177C17.3658 51.8793 14.7131 51.8793 14.7131 51.8793C14.7131 51.8793 14.7131 49.3136 14.7131 48.2747V25.2021C14.7131 24.2798 15.0667 23.3926 15.7009 22.7231L34.9251 2.43092ZM38.4141 4.08359C37.9401 3.58335 37.1435 3.58335 36.6696 4.08358L17.4454 24.3757C17.234 24.5989 17.1162 24.8947 17.1162 25.2021V48.2747C17.1162 48.9383 17.6541 49.4762 18.3177 49.4762H56.766C57.4295 49.4762 57.9675 48.9383 57.9675 48.2747V25.2021C57.9675 24.8947 57.8496 24.5989 57.6382 24.3757L38.4141 4.08359Z" fill="#FF5655" stroke="#FF5655" stroke-linecap="round"/>
  <path d="M41.3495 24.2445C41.3495 24.9081 41.0805 25.446 40.7487 25.446C40.4169 25.446 40.1479 24.9081 40.1479 24.2445C40.1479 23.5809 40.4169 23.043 40.7487 23.043C41.0805 23.043 41.3495 23.5809 41.3495 24.2445Z" fill="black"/>
  <path d="M35.3416 24.2445C35.3416 24.9081 35.0727 25.446 34.7409 25.446C34.4091 25.446 34.1401 24.9081 34.1401 24.2445C34.1401 23.5809 34.4091 23.043 34.7409 23.043C35.0727 23.043 35.3416 23.5809 35.3416 24.2445Z" fill="black"/>
  <path fill-rule="evenodd" clip-rule="evenodd" d="M33.8715 33.3192C34.1683 33.1709 34.5291 33.2911 34.6775 33.5879C34.9618 34.1564 35.4767 35.0132 36.0825 35.7177C36.3853 36.0698 36.6958 36.366 36.9958 36.5702C37.2996 36.777 37.5497 36.8603 37.7447 36.8603C37.9397 36.8603 38.1898 36.777 38.4937 36.5702C38.7937 36.366 39.1041 36.0698 39.4069 35.7177C40.0128 35.0132 40.5277 34.1564 40.8119 33.5879C40.9603 33.2911 41.3212 33.1709 41.6179 33.3192C41.9147 33.4676 42.035 33.8285 41.8866 34.1252C41.5701 34.7582 41.0036 35.7037 40.3179 36.5011C39.9748 36.9 39.5869 37.2796 39.1697 37.5635C38.7565 37.8448 38.2706 38.0618 37.7447 38.0618C37.2188 38.0618 36.733 37.8448 36.3197 37.5635C35.9026 37.2796 35.5146 36.9 35.1716 36.5011C34.4858 35.7037 33.9194 34.7582 33.6029 34.1252C33.4545 33.8285 33.5748 33.4676 33.8715 33.3192Z" fill="black"/>
  <path d="M15.5 33L11 43.5L4 51H1" stroke="black" stroke-linecap="round" stroke-linejoin="round"/>
  <path d="M59.5 33L69 37L78.5 24M78.5 24L77.5 21M78.5 24L80.5 21M78.5 24L81 24.5" stroke="black" stroke-linecap="round" stroke-linejoin="round"/>
</svg>
