<svg width="78" height="67" viewBox="0 0 78 67" fill="none" xmlns="http://www.w3.org/2000/svg">
  <path d="M29.5 51L36 55V66.5H38.5" stroke="black" stroke-linejoin="round"/>
  <path d="M18 51L24.5 55V66.5H27" stroke="black" stroke-linejoin="round"/>
  <path d="M21.212 2.12553C22.6337 0.624821 25.0237 0.624824 26.4454 2.12553L45.6695 22.4177C46.3038 23.0872 46.6574 23.9744 46.6574 24.8967V47.9693C46.6574 49.9601 45.0436 51.5739 43.0528 51.5739H4.60453C2.6138 51.5739 1 49.9601 1 47.9693V24.8967C1 23.9744 1.35352 23.0872 1.98781 22.4177L21.212 2.12553Z" fill="white"/>
  <path d="M26.4384 36H21.5616C20.2604 36 19.3459 37.2546 20.1915 38.2435C21.0026 39.1922 22.2388 40 24 40C25.7612 40 26.9974 39.1922 27.8085 38.2435C28.6541 37.2546 27.7396 36 26.4384 36Z" stroke="black" stroke-linecap="round" stroke-linejoin="round"/>
  <path fill-rule="evenodd" clip-rule="evenodd" d="M21.212 2.43092C21.937 1.66564 22.9138 0.985036 23.8855 1.00026C24.8194 1.01489 25.7487 1.6955 26.4454 2.43092L45.6695 22.7231C46.3038 23.3926 46.6573 24.2798 46.6573 25.2021V48.2747C46.6573 49.2274 46.6573 51.9587 46.6573 51.9587C46.6573 51.9587 44.0909 51.8793 43.0528 51.8793H4.60453C3.65264 51.8793 1 51.8793 1 51.8793C1 51.8793 1 49.3136 1 48.2747V25.2021C1 24.2798 1.35352 23.3926 1.98781 22.7231L21.212 2.43092ZM24.7009 4.08359C24.227 3.58335 23.4303 3.58335 22.9564 4.08358L3.73229 24.3757C3.52086 24.5989 3.40302 24.8947 3.40302 25.2021V48.2747C3.40302 48.9383 3.94095 49.4762 4.60453 49.4762H43.0528C43.7164 49.4762 44.2543 48.9383 44.2543 48.2747V25.2021C44.2543 24.8947 44.1365 24.5989 43.9251 24.3757L24.7009 4.08359Z" fill="#FF5655" stroke="#FF5655" stroke-linecap="round"/>
  <path d="M45.5 33.5L53.1501 39.3501C53.6811 39.7561 54.3799 39.87 55.0124 39.6537L73 33.5L77.5 32" stroke="black" stroke-linecap="round" stroke-linejoin="round"/>
  <path d="M2.5 33L14.7273 44.2868C15.2111 44.7333 15.8835 44.9132 16.5256 44.7678L42 39" stroke="black" stroke-linecap="round" stroke-linejoin="round"/>
  <path d="M27.2091 26.2015C27.2091 26.8651 26.9401 27.403 26.6083 27.403C26.2765 27.403 26.0076 26.8651 26.0076 26.2015C26.0076 25.5379 26.2765 25 26.6083 25C26.9401 25 27.2091 25.5379 27.2091 26.2015Z" fill="black"/>
  <path d="M21.2015 26.2015C21.2015 26.8651 20.9325 27.403 20.6008 27.403C20.269 27.403 20 26.8651 20 26.2015C20 25.5379 20.269 25 20.6008 25C20.9325 25 21.2015 25.5379 21.2015 26.2015Z" fill="black"/>
</svg>
