<svg width="288" height="162" viewBox="0 0 288 162" fill="none" xmlns="http://www.w3.org/2000/svg">
<g clip-path="url(#clip0_180_10733)">
<path d="M264.906 161.682C269.112 161.682 272.522 161.114 272.522 160.413C272.522 159.712 269.112 159.144 264.906 159.144C260.699 159.144 257.29 159.712 257.29 160.413C257.29 161.114 260.699 161.682 264.906 161.682Z" fill="white"/>
<path d="M273.791 39.1914H273.156V52.5195H273.791V39.1914Z" fill="white"/>
<path d="M266.81 30.623H263.002V162H266.81V30.623Z" fill="white"/>
<path d="M282.34 40.9363H247.471C245.983 40.9363 244.774 39.7273 244.774 38.239C244.774 38.1279 244.78 38.0168 244.796 37.9058L249.239 2.36415C249.41 1.01548 250.556 0.00317336 251.914 0H277.897C279.256 0 280.404 1.01548 280.573 2.36415L285.015 37.9058C285.199 39.3846 284.152 40.7332 282.673 40.9173C282.562 40.93 282.451 40.9395 282.34 40.9395V40.9363Z" fill="white"/>
<path d="M273.474 54.7406C274.701 54.7406 275.695 53.746 275.695 52.5192C275.695 51.2924 274.701 50.2979 273.474 50.2979C272.247 50.2979 271.252 51.2924 271.252 52.5192C271.252 53.746 272.247 54.7406 273.474 54.7406Z" fill="white"/>
<path d="M39.8448 126.731C38.2422 132.294 33.5615 136.188 28.6777 139.494C27.9955 139.958 27.3132 140.408 26.6309 140.849C26.6278 140.849 26.6214 140.856 26.6182 140.859C26.5865 140.881 26.5516 140.9 26.523 140.922C26.3834 141.014 26.2406 141.103 26.101 141.192L26.1771 141.227C26.1771 141.227 26.2533 141.268 26.1708 141.233C26.1454 141.224 26.12 141.214 26.0946 141.205C23.2576 140.059 20.3699 138.831 18.1961 136.689C15.9399 134.465 14.6229 130.974 15.8447 128.048C16.0065 127.664 16.2064 127.302 16.4476 126.963C16.546 126.82 16.6539 126.687 16.765 126.553C18.8594 123.996 22.6293 123.624 25.187 125.719C26.0375 126.417 26.6817 127.334 27.0435 128.372C27.4021 125.03 24.6476 122.234 21.9978 120.169C19.3449 118.106 16.3334 115.859 15.8193 112.537C15.5337 110.69 16.1747 108.897 17.3457 107.459C17.3806 107.415 17.4187 107.37 17.4567 107.329C18.8816 105.654 20.8871 104.578 23.0704 104.318C27.1355 103.896 31.0863 106.047 34.0407 108.875C38.7944 113.422 41.6695 120.41 39.848 126.734L39.8448 126.731Z" fill="white"/>
<path d="M32.2032 119.458C32.9839 120.674 33.5837 121.994 33.9803 123.381C34.3167 124.621 34.469 125.903 34.4246 127.189C34.3167 129.832 33.5741 132.409 32.2604 134.703C31.2703 136.445 30.0676 138.054 28.6745 139.495C27.9922 139.958 27.3099 140.409 26.6276 140.85C26.6245 140.85 26.6181 140.856 26.615 140.859C26.5832 140.882 26.5483 140.901 26.5198 140.923C26.3801 141.015 26.2373 141.104 26.0977 141.193C26.0977 141.193 26.25 141.266 26.1675 141.234C26.1421 141.224 26.1167 141.215 26.0913 141.205C26.6086 136.975 25.041 132.758 21.8866 129.892C20.3285 128.502 18.4658 127.5 16.4443 126.963C16.5427 126.82 16.6506 126.687 16.7617 126.554C17.5423 126.773 18.3008 127.058 19.0306 127.411C21.636 128.661 23.7716 130.72 25.1171 133.278C26.3262 135.601 26.8434 138.222 26.615 140.831C26.7324 140.726 26.8498 140.618 26.9608 140.51C29.1156 138.502 31.0323 136.195 32.327 133.532C33.4504 131.279 34.0025 128.782 33.9359 126.262C33.8312 123.517 32.7364 120.972 31.1529 118.757C29.417 116.396 27.367 114.279 25.0568 112.474C22.7308 110.611 20.1826 109.037 17.4757 107.793C17.3487 107.733 17.2916 107.587 17.3424 107.457C17.3614 107.399 17.3995 107.355 17.4535 107.326C17.5074 107.304 17.5709 107.304 17.6217 107.333C17.9549 107.488 18.2881 107.644 18.6181 107.806C21.363 109.161 23.9271 110.855 26.2532 112.842C28.4999 114.758 30.6166 116.948 32.1969 119.455L32.2032 119.458Z" fill="white"/>
<path d="M16.7014 140.738H34.2691C35.0212 140.738 35.6273 141.348 35.6273 142.096C35.6273 142.154 35.6241 142.211 35.6178 142.265L33.3806 160.172C33.2949 160.851 32.7173 161.362 32.0319 161.362H18.9386C18.2532 161.362 17.6756 160.851 17.5899 160.172L15.3527 142.265C15.2607 141.519 15.7875 140.84 16.5332 140.748C16.5903 140.741 16.6443 140.738 16.7014 140.738Z" fill="white"/>
<path d="M73.9838 161.505C75.1984 161.505 76.1829 160.52 76.1829 159.306C76.1829 158.091 75.1984 157.106 73.9838 157.106C72.7693 157.106 71.7847 158.091 71.7847 159.306C71.7847 160.52 72.7693 161.505 73.9838 161.505Z" fill="#CFCFCF"/>
<path d="M212.869 161.505C214.084 161.505 215.068 160.52 215.068 159.306C215.068 158.091 214.084 157.106 212.869 157.106C211.655 157.106 210.67 158.091 210.67 159.306C210.67 160.52 211.655 161.505 212.869 161.505Z" fill="#CFCFCF"/>
<path d="M114.292 128.705H79.8448C76.5064 128.702 73.8027 125.995 73.7996 122.66V99.2054C73.8027 95.867 76.5096 93.1633 79.8448 93.1602H114.292C117.63 93.1633 120.334 95.8702 120.337 99.2054V122.66C120.334 125.998 117.627 128.702 114.292 128.705Z" fill="#DFDFDF"/>
<path d="M160.648 128.89H126.201C122.863 128.886 120.159 126.179 120.156 122.844V99.39C120.159 96.0516 122.866 93.3479 126.201 93.3447H160.648C163.986 93.3479 166.69 96.0548 166.693 99.39V122.844C166.69 126.183 163.983 128.886 160.648 128.89Z" fill="#DFDFDF"/>
<path d="M207.008 129.073H172.561C169.223 129.07 166.519 126.363 166.516 123.028V99.5736C166.519 96.2352 169.226 93.5315 172.561 93.5283H207.008C210.346 93.5315 213.05 96.2384 213.053 99.5736V123.028C213.05 126.366 210.343 129.07 207.008 129.073Z" fill="#DFDFDF"/>
<path d="M220.2 127.423H68.4875V159.122H220.2V127.423Z" fill="#DFDFDF"/>
<path d="M73.9837 159.305H67.3863C64.0511 159.305 61.3411 156.224 61.3411 152.441V119.362H73.9837V159.305Z" fill="#DFDFDF"/>
<path d="M219.466 159.306H212.869V114.231H225.512V151.56C225.512 155.831 222.798 159.306 219.466 159.306Z" fill="#DFDFDF"/>
<path d="M120.524 134.017H73.9836V124.123C89.4982 115.225 105.01 115.225 120.524 124.123V134.017Z" fill="#CFCFCF"/>
<path d="M166.881 134.201H120.34V124.306C135.855 115.408 151.366 115.408 166.881 124.306V134.201Z" fill="#CFCFCF"/>
<path d="M213.237 134.385H166.697V124.491C182.211 115.593 197.722 115.593 213.237 124.491V134.385Z" fill="#CFCFCF"/>
<path d="M65.0062 127.791C70.9773 127.791 75.8179 122.951 75.8179 116.98C75.8179 111.009 70.9773 106.168 65.0062 106.168C59.0351 106.168 54.1946 111.009 54.1946 116.98C54.1946 122.951 59.0351 127.791 65.0062 127.791Z" fill="#CFCFCF"/>
<path d="M223.313 127.423C229.284 127.423 234.124 122.583 234.124 116.611C234.124 110.64 229.284 105.8 223.313 105.8C217.342 105.8 212.501 110.64 212.501 116.611C212.501 122.583 217.342 127.423 223.313 127.423Z" fill="#CFCFCF"/>
<path d="M191.468 95.4321C191.493 95.6066 191.503 95.7812 191.503 95.9557L204.46 104.886L207.915 103.248L211.067 108.141L205.231 111.632C204.263 112.213 203.028 112.083 202.2 111.315L189.078 99.1354C187.308 99.6336 185.467 98.6023 184.969 96.8315C184.471 95.0608 185.502 93.2203 187.273 92.722C189.043 92.2238 190.884 93.2552 191.382 95.0259C191.42 95.1592 191.449 95.2925 191.468 95.4289V95.4321Z" fill="#D69E75"/>
<path d="M204.71 104.121C204.825 103.721 205.11 103.394 205.488 103.219L212.003 100.233C213.837 99.0369 216.296 99.5574 217.489 101.392C218.679 103.219 218.172 105.666 216.347 106.869L210.962 111.632C210.372 112.156 209.467 112.098 208.947 111.508C208.899 111.454 208.858 111.4 208.82 111.34L204.885 105.295C204.66 104.946 204.593 104.517 204.71 104.117V104.121Z" fill="#60E0EB"/>
<path d="M191.306 96.0166H191.239L191.062 93.5636C191.004 92.7766 190.497 92.1736 189.926 92.2149L186.146 92.4878C185.575 92.5291 184.528 93.2462 184.585 94.03L184.629 94.6615L185.559 107.514C185.616 108.301 186.759 108.856 187.327 108.815L191.106 108.542C191.677 108.501 192.093 107.831 192.036 107.044L191.363 97.7683H191.43L191.303 96.0134L191.306 96.0166Z" fill="#161616"/>
<path d="M190.843 93.5883L191.817 107.053C191.858 107.64 191.547 108.141 191.122 108.17L187.327 108.446C186.901 108.478 186.521 108.027 186.479 107.44L185.505 93.9755C185.464 93.3884 185.775 92.887 186.2 92.8585L186.66 92.8236C186.594 93.0679 186.695 93.3281 186.908 93.4678C186.952 93.49 187 93.4995 187.047 93.4963L189.212 93.3408C189.415 93.325 189.561 93.0869 189.542 92.8077C189.538 92.7442 189.523 92.6808 189.5 92.6205L189.992 92.5856C190.418 92.5538 190.798 93.0044 190.84 93.5915L190.843 93.5883Z" fill="white"/>
<path d="M137.584 124.678L136.331 120.994L149.945 114.412L151.791 119.848L137.584 124.678Z" fill="#D69E75"/>
<path d="M134.335 126.833L130.298 114.955L130.447 114.904C133.002 114.035 135.772 115.403 136.642 117.954L139.107 125.208L134.335 126.83V126.833Z" fill="#161616"/>
<path d="M191.608 127.305C188.688 127.47 185.778 126.861 183.17 125.538L167.163 114.65L148.472 121.571C147.444 121.92 146.317 121.416 145.898 120.413L144.981 118.21C144.547 117.179 145.019 115.989 146.041 115.538L163.898 107.519C166.043 106.561 168.445 106.352 170.724 106.929L195.511 113.247L202.064 121.028L201.991 121.13C198.773 125.566 194.959 127.067 191.608 127.312V127.305Z" fill="#161616"/>
<path d="M211.854 94.7916C216.158 94.7916 219.647 91.3023 219.647 86.9979C219.647 82.6935 216.158 79.2041 211.854 79.2041C207.549 79.2041 204.06 82.6935 204.06 86.9979C204.06 91.3023 207.549 94.7916 211.854 94.7916Z" fill="#D69E75"/>
<path d="M203.85 124.494L191.306 115.158L199.861 109.078C199.617 108.291 198.532 103.788 204.469 100.719C206.348 99.7484 207.703 98.9107 208.493 98.2347C209.616 97.2669 211.054 96.7433 212.536 96.7591C215.861 96.8131 218.514 99.5517 218.46 102.874C218.451 103.442 218.362 104.007 218.194 104.553C216.956 108.577 214.986 113.908 212.618 116.459C209.943 119.341 207.043 122.003 203.945 124.421L203.85 124.491V124.494Z" fill="#60E0EB"/>
<path d="M139.574 127.944L138.32 124.259L151.934 117.678L153.781 123.114L139.574 127.944Z" fill="#D69E75"/>
<path d="M136.321 130.095L132.285 118.217L132.434 118.166C134.988 117.297 137.759 118.664 138.628 121.216L141.094 128.47L136.321 130.092V130.095Z" fill="#161616"/>
<path d="M193.597 130.571C190.678 130.736 187.768 130.127 185.159 128.803L169.153 117.916L150.462 124.837C149.434 125.186 148.307 124.681 147.888 123.678L146.971 121.476C146.536 120.445 147.009 119.255 148.031 118.804L165.887 110.785C168.033 109.827 170.435 109.617 172.713 110.195L197.5 116.513L204.053 124.294L203.98 124.396C200.763 128.832 196.948 130.333 193.597 130.577V130.571Z" fill="#161616"/>
<path d="M189.998 104.785C190.097 104.931 190.183 105.086 190.252 105.245L205.786 107.768L208.207 104.81L213.148 107.882L209.369 113.534C208.74 114.473 207.569 114.882 206.494 114.543L189.418 109.154C188.031 110.364 185.927 110.218 184.718 108.831C183.509 107.444 183.655 105.34 185.042 104.131C186.428 102.922 188.532 103.068 189.741 104.455C189.833 104.559 189.916 104.667 189.992 104.782L189.998 104.785Z" fill="#D69E75"/>
<path d="M205.685 106.965C205.618 106.555 205.732 106.136 206.002 105.819L210.613 100.332C211.758 98.4663 214.202 97.8824 216.068 99.0312C217.927 100.174 218.514 102.604 217.382 104.467L214.554 111.077C214.243 111.801 213.405 112.137 212.679 111.829C212.615 111.801 212.552 111.769 212.491 111.734L206.348 107.955C205.992 107.736 205.751 107.377 205.688 106.968L205.685 106.965Z" fill="#60E0EB"/>
<path d="M209.769 95.5812C212.034 92.6681 213.288 89.0949 213.348 85.4074C212.282 86.2008 211.076 86.7815 209.791 87.1242C208.429 87.486 206.932 87.559 205.649 86.9751C203.844 86.1532 202.778 84.0556 202.981 82.0818C203.184 80.1079 204.548 78.3467 206.325 77.4613C208.144 76.6109 210.216 76.4871 212.123 77.1091C214.183 75.3542 217.08 74.9671 219.527 76.1222C222.284 77.4772 223.811 80.6125 224.077 83.6748C224.344 86.7371 223.557 89.7803 222.776 92.7538L222.687 93.0901C222.443 94.0168 221.738 95.7907 221.738 95.7907C221.738 95.7907 217.638 94.9815 216.011 94.4642C213.65 95.3178 209.769 95.5812 209.769 95.5812Z" fill="#FCD17B"/>
<path d="M190.23 96.3308L186.892 96.572C186.717 96.5847 186.565 96.4514 186.552 96.2769C186.54 96.1024 186.67 95.95 186.844 95.9373L190.183 95.6962C190.357 95.6835 190.51 95.8136 190.522 95.9881C190.535 96.1627 190.405 96.315 190.23 96.3277V96.3308Z" fill="#161616"/>
<path d="M190.345 97.9107L187.006 98.1518C186.832 98.1645 186.679 98.0344 186.667 97.8599C186.654 97.6854 186.784 97.533 186.959 97.5203L190.297 97.2792C190.471 97.2665 190.624 97.3998 190.637 97.5743C190.649 97.7488 190.519 97.9011 190.345 97.9138V97.9107Z" fill="#161616"/>
<path d="M190.459 99.4939L187.12 99.7351C186.946 99.7478 186.794 99.6145 186.781 99.44C186.768 99.2654 186.898 99.1131 187.073 99.1004L190.411 98.8592C190.586 98.8465 190.738 98.9798 190.751 99.1544C190.763 99.3289 190.633 99.4812 190.459 99.4939Z" fill="#161616"/>
<path d="M287.189 162H0.317336C0.142801 162 0 161.857 0 161.683C0 161.508 0.142801 161.365 0.317336 161.365H287.189C287.364 161.365 287.506 161.508 287.506 161.683C287.506 161.857 287.364 162 287.189 162Z" fill="#161616"/>
<path d="M152.569 56.3271H120.518C118.941 56.3271 117.665 55.0482 117.662 53.4711V25.8629C117.662 24.2857 118.941 23.01 120.518 23.0068H152.569C154.146 23.0068 155.422 24.2857 155.425 25.8629V53.4711C155.425 55.0482 154.146 56.3239 152.569 56.3271ZM120.518 23.6415C119.293 23.6415 118.297 24.6379 118.297 25.8629V53.4711C118.297 54.696 119.293 55.6924 120.518 55.6924H152.569C153.794 55.6924 154.79 54.696 154.79 53.4711V25.8629C154.79 24.6379 153.794 23.6415 152.569 23.6415H120.518Z" fill="white"/>
<path d="M147.882 52.0432H125.202C123.713 52.0432 122.508 50.8342 122.504 49.3459V29.9884C122.504 28.5001 123.713 27.2942 125.202 27.291H147.882C149.37 27.291 150.576 28.5001 150.579 29.9884V49.3459C150.579 50.8342 149.37 52.04 147.882 52.0432Z" fill="#DFDFDF"/>
<path d="M136.702 18.8814C137.578 18.8814 138.289 18.171 138.289 17.2947C138.289 16.4184 137.578 15.708 136.702 15.708C135.826 15.708 135.115 16.4184 135.115 17.2947C135.115 18.171 135.826 18.8814 136.702 18.8814Z" fill="white"/>
<path d="M140.037 23.4858L136.702 17.9134L133.386 23.4858L132.84 23.1621L136.702 16.6758L140.583 23.1621L140.037 23.4858Z" fill="white"/>
<path d="M140.351 37.4456C140.351 36.9664 140.297 36.4872 140.193 36.0176H135.433C134.731 36.0176 134.163 36.5856 134.163 37.2869V44.0843C137.648 43.8367 140.351 40.9395 140.351 37.4456Z" fill="#60E0EB"/>
<path d="M133.687 44.4266C129.832 44.4266 126.706 41.3041 126.703 37.4484C126.699 33.5928 129.825 30.467 133.681 30.4639C136.962 30.4639 139.799 32.7455 140.504 35.9506L140.589 36.3346H135.433C134.906 36.3346 134.481 36.7598 134.481 37.2866V44.3822L134.131 44.4076C133.986 44.4171 133.836 44.4298 133.687 44.4298V44.4266ZM133.687 31.0985C130.181 31.0985 127.34 33.9387 127.34 37.4453C127.34 40.9518 130.181 43.792 133.687 43.792C133.741 43.792 133.792 43.792 133.846 43.7888V37.2866C133.846 36.4107 134.557 35.6999 135.433 35.6999H139.786C138.996 32.9835 136.515 31.1112 133.687 31.0985Z" fill="white"/>
<path d="M143.049 46.4896H135.433C134.557 46.4896 133.846 45.7788 133.846 44.9029V43.7891L134.141 43.7669C137.629 43.5257 140.259 40.5047 140.018 37.0171C139.996 36.703 139.951 36.392 139.882 36.0842L139.796 35.7002H143.046C143.921 35.7002 144.632 36.411 144.632 37.2869V44.9029C144.632 45.7788 143.921 46.4896 143.046 46.4896H143.049ZM134.481 44.3762V44.9029C134.481 45.4297 134.906 45.8549 135.433 45.8549H143.049C143.575 45.8549 144.001 45.4297 144.001 44.9029V37.2869C144.001 36.7601 143.575 36.3349 143.049 36.3349H140.577C140.637 36.703 140.669 37.0743 140.669 37.4455C140.656 40.987 138 43.9636 134.481 44.3762Z" fill="white"/>
</g>
<defs>
<clipPath id="clip0_180_10733">
<rect width="287.506" height="162" fill="white"/>
</clipPath>
</defs>
</svg>
