<svg width="169" height="162" viewBox="0 0 169 162" fill="none" xmlns="http://www.w3.org/2000/svg">
  <g clip-path="url(#clip0_180_10629)">
    <path d="M78.0935 158.955H82.2994L84.2996 142.854H78.0935V158.955Z" fill="#CA795C"/>
    <path d="M92.5022 158.86C92.6335 159.078 92.7008 159.786 92.7008 160.039C92.7008 160.821 92.0625 161.458 91.2717 161.458H78.246C77.707 161.458 77.2708 161.025 77.2708 160.49V159.951C77.2708 159.951 76.6254 158.332 77.9517 156.34C77.9517 156.34 79.6007 157.903 82.0654 155.456L82.7924 154.15L88.0516 157.966L90.9667 158.322C91.605 158.399 92.1689 158.311 92.4987 158.857L92.5022 158.86Z" fill="#343434"/>
    <path d="M62.1351 158.955H66.3411L68.3412 142.854H62.1351V158.955Z" fill="#CA795C"/>
    <path d="M76.5439 158.86C76.6751 159.078 76.7425 159.786 76.7425 160.039C76.7425 160.821 76.1041 161.458 75.3133 161.458H62.2876C61.7486 161.458 61.3124 161.025 61.3124 160.49V159.951C61.3124 159.951 60.667 158.332 61.9933 156.34C61.9933 156.34 63.6423 157.903 66.107 155.456L66.834 154.15L72.0932 157.966L75.0083 158.322C75.6466 158.399 76.2105 158.311 76.5403 158.857L76.5439 158.86Z" fill="#343434"/>
    <path d="M59.0392 72.4639L53.7197 84.4321L60.4577 149.905L68.7916 150.433L72.1606 92.5282L75.3523 150.609L85.282 149.553L87.6368 75.8185L59.0392 72.4639Z" fill="#343434"/>
    <path d="M79.998 24.7671L69.3236 22.8311L67.1674 24.9712L56.2022 29.5192L57.9753 63.6637C57.9753 63.6637 54.429 66.0081 56.2022 69.236C57.9753 72.4638 57.6207 76.3359 57.6207 76.3359H87.6368L86.3459 56.9756L89.8922 32.3352L81.6045 28.442L79.9945 24.7671H79.998Z" fill="#3917B3"/>
    <path d="M75.3309 21.8277C80.5075 21.8277 84.7039 17.6624 84.7039 12.5242C84.7039 7.38603 80.5075 3.2207 75.3309 3.2207C70.1544 3.2207 65.958 7.38603 65.958 12.5242C65.958 17.6624 70.1544 21.8277 75.3309 21.8277Z" fill="#CA795C"/>
    <path d="M68.6071 20.786C67.4829 20.8845 65.6495 18.0333 65.731 15.2736C65.7842 13.4959 64.2309 13.1475 64.1139 10.8559C64.0465 9.5218 66.114 9.10291 66.2559 8.03282C66.5148 6.09327 67.7737 4.78733 67.9298 4.62892C69.288 3.25962 70.2491 3.70315 71.8449 2.1156C72.806 1.15815 72.5613 0.897664 73.2102 0.475258C75.0791 -0.749722 78.4411 0.577339 80.4518 2.36553C81.1469 2.98506 83.7393 2.30921 84.8705 4.05515C86.204 6.11087 85.8954 10.3068 85.3245 10.8594C84.9769 11.1973 84.1826 10.3737 82.0335 9.84565C80.0405 9.35636 81.92 11.7711 79.6184 11.3663C76.8949 10.8876 76.3629 10.0639 75.3416 10.5567C74.2635 11.0777 73.423 12.6934 73.6677 13.9606C73.7883 14.5907 74.1394 14.9427 73.9408 15.263C73.5791 15.8473 73.1641 15.2736 72.6996 15.8614C72.1605 16.5443 73.501 18.2938 73.2492 18.4627C73.1996 18.4979 73.0436 18.4909 71.5967 17.1075C71.0186 16.5549 70.8484 16.2169 70.7349 16.2697C70.5505 16.3542 69.3518 17.463 69.8093 18.3431C70.5221 19.7088 69.6107 19.7511 69.8093 20.6698C70.015 21.6167 69.3235 20.7261 68.6107 20.7895L68.6071 20.786Z" fill="#343434"/>
    <path d="M78.5723 65.994C75.8097 67.4266 74.3132 70.0033 75.2317 71.7493C76.1502 73.4952 79.1362 73.7487 81.8988 72.316C83.0123 71.7598 83.9734 70.9467 84.7039 69.9435L96.3358 63.7306L93.2825 58.373L82.1399 65.0682C80.8951 65.0893 79.6717 65.4096 78.5759 65.9975L78.5723 65.994Z" fill="#CA795C"/>
    <path d="M87.7643 32.6868C87.7643 32.6868 90.956 30.5747 93.0838 36.2068C94.7612 40.6491 97.8749 53.7472 99.1161 59.0766C99.4459 60.4917 98.9707 61.9701 97.8749 62.9346L96.4528 64.1877L89.5375 69.2918L84.8209 62.4805L90.5482 59.052L84.0159 44.9893L87.7608 32.6797L87.7643 32.6868Z" fill="#3917B3"/>
    <path d="M87.8921 61.8089V54.5892C87.8921 54.1739 88.2325 53.8359 88.651 53.8359H92.169C92.5874 53.8359 92.9279 54.1739 92.9279 54.5892V61.8089C92.9279 62.2242 92.5874 62.5622 92.169 62.5622H88.651C88.2325 62.5622 87.8921 62.2242 87.8921 61.8089Z" fill="#3917B3"/>
    <path d="M138.182 50.1889C143.939 50.1889 148.605 45.5571 148.605 39.8435C148.605 34.1299 143.939 29.498 138.182 29.498C132.426 29.498 127.76 34.1299 127.76 39.8435C127.76 45.5571 132.426 50.1889 138.182 50.1889Z" fill="#FF5655"/>
    <path d="M127.887 105.454L116.11 105.616L111.386 53.35C111.273 52.0828 111.684 50.798 112.518 49.83L124.1 36.3974C125.721 34.5177 128.48 34.1798 130.512 35.6089L145.02 45.8101C146.204 46.6408 146.938 47.9432 147.031 49.3794L157.62 84.6891L156.201 96.4637L156.216 96.4813L157.893 105.035L127.887 105.447V105.454Z" fill="#DFDFDF"/>
    <path d="M125.423 48.5553L125.235 46.13C125.185 45.4894 125.668 44.9297 126.313 44.8769L129.746 44.6129C130.391 44.5636 130.955 45.0423 131.005 45.683L131.193 48.1083C131.242 48.7489 130.76 49.3086 130.115 49.3579L126.682 49.6219C126.036 49.6712 125.473 49.1925 125.419 48.5518L125.423 48.5553Z" fill="#3917B3"/>
    <path d="M119.635 67.9442L118.933 58.9681C118.883 58.3274 119.366 57.7677 120.011 57.7184L125.093 57.3277C125.738 57.2784 126.302 57.7572 126.352 58.3978L127.054 67.3739C127.104 68.0146 126.621 68.5743 125.976 68.6236L120.894 69.0143C120.249 69.0636 119.685 68.5848 119.635 67.9442Z" fill="#343434"/>
    <path d="M132.767 88.0686C132.15 88.0932 131.618 87.6391 131.551 87.0302L130.615 78.3744C130.576 78.0048 130.71 77.6492 130.983 77.3958C131.256 77.1423 131.625 77.0367 131.994 77.1036L132.256 77.1529C132.778 77.2479 133.171 77.6844 133.214 78.2089L133.888 86.8155C133.913 87.1323 133.81 87.4385 133.597 87.6779C133.395 87.9067 133.115 88.044 132.81 88.0651C132.796 88.0651 132.781 88.0651 132.767 88.0651V88.0686Z" fill="#343434"/>
    <path d="M122.011 87.6916L121.309 78.6908C121.259 78.0537 121.72 77.5081 122.359 77.4412L126.969 76.973C127.607 76.9132 128.185 77.3708 128.256 78.0079L129.235 87.1002C129.271 87.417 129.175 87.7233 128.969 87.9697C128.763 88.2126 128.476 88.3604 128.157 88.3851L123.27 88.7617C122.625 88.811 122.061 88.3322 122.011 87.6916Z" fill="#343434"/>
    <path d="M149.8 91.7396L153.921 97.8505L154.9 105.003L157.797 104.964L156.141 96.5269L149.563 88.7969C149.123 89.7508 149.212 90.8667 149.8 91.7396Z" fill="#929292"/>
    <path d="M154.619 102.96L142.88 104.024L142.896 104.189L154.635 103.125L154.619 102.96Z" fill="#343434"/>
    <path d="M153.801 101.554L142.664 102.5L142.678 102.665L153.815 101.719L153.801 101.554Z" fill="#343434"/>
    <path d="M153.106 100.127L142.464 101.155L142.48 101.32L153.122 100.292L153.106 100.127Z" fill="#343434"/>
    <path d="M152.656 98.6913L142.446 99.8174L142.464 99.9818L152.675 98.8557L152.656 98.6913Z" fill="#343434"/>
    <path d="M152.056 97.4239L142.249 98.5244L142.268 98.6888L152.075 97.5883L152.056 97.4239Z" fill="#343434"/>
    <path d="M151.312 96.3126L141.734 97.0508L141.747 97.2157L151.325 96.4775L151.312 96.3126Z" fill="#343434"/>
    <path d="M150.724 95.2067L141.424 96.0322L141.439 96.197L150.739 95.3715L150.724 95.2067Z" fill="#343434"/>
    <path d="M150.14 94.0994L141.141 95.0918L141.16 95.2562L150.158 94.2638L150.14 94.0994Z" fill="#343434"/>
    <path d="M149.717 93.0008L140.821 93.8418L140.836 94.0065L149.733 93.1655L149.717 93.0008Z" fill="#343434"/>
    <path d="M148.975 91.8992L140.465 92.8213L140.483 92.9858L148.993 92.0636L148.975 91.8992Z" fill="#343434"/>
    <path d="M148.567 90.9247L140.12 91.6582L140.134 91.823L148.581 91.0895L148.567 90.9247Z" fill="#343434"/>
    <path d="M139.229 88.2586L138.36 77.1564C138.31 76.5157 138.792 75.956 139.438 75.9032L144.849 75.4879C145.495 75.4386 146.059 75.9173 146.108 76.558L146.977 87.6602C147.027 88.3009 146.545 88.8606 145.899 88.9098L140.488 89.3252C139.842 89.3745 139.278 88.8958 139.229 88.2551V88.2586Z" fill="#3917B3"/>
    <path d="M127.887 105.453L118.259 105.587H118.181L117.607 98.2267C117.532 97.2974 118.238 96.4808 119.174 96.4069L128.639 95.6782C129.576 95.6043 130.398 96.3048 130.473 97.2341L131.097 105.207L131.015 105.214L127.891 105.453H127.887Z" fill="#929292"/>
    <path d="M138.314 68.0671L137.65 59.5838C137.601 58.9431 138.083 58.3834 138.729 58.3341L140.512 58.1968C141.158 58.1476 141.722 58.6263 141.771 59.2669L142.434 67.7503C142.484 68.3909 142.002 68.9506 141.356 68.9999L139.573 69.1372C138.927 69.1865 138.363 68.7077 138.314 68.0671Z" fill="#343434"/>
    <path d="M143.037 105.112L141.981 97.9454L139.959 91.1834L139.399 89.3318C138.505 88.825 137.417 89.5501 137.544 90.5603L137.647 91.3594L139.668 98.1214L140.725 105.288" fill="#929292"/>
    <path d="M24.498 106.777L12.7206 106.939L7.99693 54.6733C7.88345 53.4061 8.29482 52.1212 9.12821 51.1532L20.7105 37.7207C22.3312 35.841 25.0902 35.503 27.1222 36.9322L41.6303 47.1333C42.8147 47.964 43.5488 49.2665 43.641 50.7026L54.2303 86.0123L52.8118 97.7869L52.826 97.8045L54.5034 106.358L24.498 106.77V106.777Z" fill="#DFDFDF"/>
    <path d="M22.0333 49.8756L21.8453 47.4503C21.7957 46.8097 22.278 46.25 22.9234 46.1972L26.3562 45.9332C27.0017 45.8839 27.5655 46.3626 27.6152 47.0033L27.8031 49.4286C27.8528 50.0692 27.3705 50.6289 26.7251 50.6782L23.2922 50.9422C22.6468 50.9915 22.0829 50.5128 22.0297 49.8721L22.0333 49.8756Z" fill="#3917B3"/>
    <path d="M16.2457 69.2635L15.5436 60.2874C15.4939 59.6467 15.9762 59.087 16.6216 59.0378L21.7035 58.647C22.3489 58.5978 22.9128 59.0765 22.9625 59.7171L23.6646 68.6933C23.7143 69.3339 23.232 69.8936 22.5865 69.9429L17.5047 70.3336C16.8592 70.3829 16.2954 69.9042 16.2422 69.2635H16.2457Z" fill="#343434"/>
    <path d="M29.3777 89.3879C28.7607 89.4126 28.2287 88.9585 28.1614 88.3495L27.2251 79.6937C27.1861 79.3241 27.3209 78.9686 27.5939 78.7151C27.867 78.4617 28.2358 78.3561 28.6046 78.423L28.8671 78.4722C29.3884 78.5673 29.782 79.0038 29.8246 79.5283L30.4984 88.1348C30.5232 88.4516 30.4204 88.7578 30.2076 88.9972C30.0054 89.226 29.7253 89.3633 29.4203 89.3844C29.4061 89.3844 29.3919 89.3844 29.3777 89.3844V89.3879Z" fill="#343434"/>
    <path d="M18.6217 89.0109L17.9196 80.0102C17.8699 79.373 18.3309 78.8274 18.9693 78.7605L23.5795 78.2924C24.2178 78.2325 24.7959 78.6901 24.8668 79.3273L25.8456 88.4196C25.881 88.7364 25.7853 89.0426 25.5796 89.289C25.3739 89.5319 25.0867 89.6797 24.7675 89.7044L19.8807 90.081C19.2352 90.1303 18.6714 89.6516 18.6217 89.0109Z" fill="#343434"/>
    <path d="M46.4106 93.0599L50.5315 99.1708L51.5103 106.324L54.4076 106.285L52.7515 97.8472L46.173 90.1172C45.7333 91.0711 45.8219 92.187 46.4106 93.0599Z" fill="#929292"/>
    <path d="M51.2301 104.279L39.491 105.344L39.5061 105.509L51.2452 104.444L51.2301 104.279Z" fill="#343434"/>
    <path d="M50.4117 102.883L39.2744 103.829L39.2886 103.994L50.4259 103.048L50.4117 102.883Z" fill="#343434"/>
    <path d="M49.7182 101.45L39.0763 102.479L39.0924 102.643L49.7343 101.615L49.7182 101.45Z" fill="#343434"/>
    <path d="M49.2695 100.011L39.0586 101.137L39.077 101.301L49.2879 100.175L49.2695 100.011Z" fill="#343434"/>
    <path d="M48.6656 98.7462L38.8586 99.8467L38.8774 100.011L48.6843 98.9106L48.6656 98.7462Z" fill="#343434"/>
    <path d="M47.9248 97.6417L38.3467 98.3799L38.3596 98.5448L47.9377 97.8066L47.9248 97.6417Z" fill="#343434"/>
    <path d="M47.3358 96.53L38.0354 97.3555L38.0502 97.5203L47.3506 96.6947L47.3358 96.53Z" fill="#343434"/>
    <path d="M46.7494 95.4266L37.751 96.4189L37.7694 96.5834L46.7678 95.591L46.7494 95.4266Z" fill="#343434"/>
    <path d="M46.3269 94.3104L37.4304 95.1514L37.4462 95.3161L46.3427 94.4751L46.3269 94.3104Z" fill="#343434"/>
    <path d="M45.5855 93.2243L37.0752 94.1465L37.0933 94.311L45.6036 93.3888L45.5855 93.2243Z" fill="#343434"/>
    <path d="M45.1792 92.2499L36.7322 92.9834L36.7467 93.1482L45.1937 92.4147L45.1792 92.2499Z" fill="#343434"/>
    <path d="M35.8392 89.578L34.9703 78.4757C34.9207 77.8351 35.403 77.2754 36.0484 77.2226L41.4601 76.8072C42.1055 76.7579 42.6694 77.2366 42.719 77.8773L43.5879 88.9796C43.6375 89.6202 43.1552 90.1799 42.5098 90.2292L37.0981 90.6445C36.4527 90.6938 35.8888 90.2151 35.8356 89.5744L35.8392 89.578Z" fill="#3917B3"/>
    <path d="M24.498 106.778L14.8697 106.911H14.7917L14.2172 99.5509C14.1427 98.6216 14.8484 97.805 15.7847 97.7311L25.2498 97.0024C26.186 96.9285 27.0088 97.629 27.0832 98.5583L27.7074 106.531L27.6258 106.538L24.5015 106.778H24.498Z" fill="#929292"/>
    <path d="M34.9241 69.3903L34.261 60.907C34.2113 60.2663 34.6936 59.7067 35.339 59.6574L37.1228 59.5201C37.7683 59.4708 38.3321 59.9495 38.3818 60.5902L39.0449 69.0735C39.0946 69.7142 38.6123 70.2739 37.9669 70.3231L36.1831 70.4604C35.5376 70.5097 34.9738 70.031 34.9241 69.3903Z" fill="#343434"/>
    <path d="M39.6478 106.433L38.591 99.2657L36.5696 92.5037L36.0093 90.6522C35.1156 90.1453 34.0269 90.8704 34.1546 91.8806L34.2574 92.6797L36.2788 99.4417L37.3356 106.609" fill="#929292"/>
    <path d="M86.6083 106L74.831 106.162L70.1073 53.8959C69.9938 52.6287 70.4052 51.3439 71.2386 50.3759L82.8208 36.9433C84.4415 35.0636 87.2006 34.7257 89.2326 36.1548L103.741 46.356C104.925 47.1867 111.291 51.9106 111.386 53.3468L108.361 89.3042L114.922 97.0131L114.936 97.0307L116.614 105.584L86.6083 105.996V106Z" fill="#DFDFDF"/>
    <path d="M84.1436 49.0973L83.9557 46.672C83.906 46.0313 84.3883 45.4717 85.0337 45.4189L88.4666 45.1549C89.112 45.1056 89.6759 45.5843 89.7255 46.225L89.9135 48.6503C89.9631 49.2909 89.4808 49.8506 88.8354 49.8999L85.4026 50.1639C84.7571 50.2132 84.1933 49.7344 84.1401 49.0938L84.1436 49.0973Z" fill="#3917B3"/>
    <path d="M78.3561 68.4858L77.6539 59.5097C77.6043 58.869 78.0866 58.3093 78.732 58.2565L83.8139 57.8658C84.4593 57.8165 85.0232 58.2952 85.0728 58.9359L85.775 67.912C85.8246 68.5527 85.3423 69.1124 84.6969 69.1616L79.615 69.5524C78.9696 69.6017 78.4057 69.1229 78.3525 68.4823L78.3561 68.4858Z" fill="#343434"/>
    <path d="M89.8213 78.0569C89.5837 78.2751 89.4702 78.5813 89.5056 78.8981L90.4419 87.554C90.4986 88.0785 90.9561 88.4692 91.488 88.4481C91.7647 88.4375 92.0164 88.3178 92.2008 88.1137C92.3853 87.9095 92.4739 87.6455 92.4526 87.3709L91.7788 78.7644C91.7434 78.3138 91.4065 77.9407 90.9561 77.8597L90.6937 77.8105C90.605 77.7929 90.5163 77.7893 90.4277 77.7964C90.2043 77.814 89.995 77.9055 89.8248 78.0604L89.8213 78.0569Z" fill="#343434"/>
    <path d="M75.8772 89.4872C75.6289 89.283 75.48 88.9979 75.4551 88.6775L74.7813 80.071C74.7388 79.5465 75.0615 79.0572 75.5615 78.8812L75.8133 78.7932C76.1644 78.67 76.5474 78.7193 76.8559 78.927C77.168 79.1347 77.356 79.4656 77.3737 79.8387L77.7957 88.5332C77.8241 89.1457 77.3702 89.6772 76.7566 89.7476C76.7425 89.7476 76.7283 89.7476 76.7141 89.7512C76.4091 89.7758 76.1148 89.6808 75.8772 89.4872Z" fill="#343434"/>
    <path d="M108.521 92.2816L112.642 98.3924L113.621 105.545L116.518 105.506L114.862 97.0689L108.283 89.3389C107.844 90.2928 107.932 91.4087 108.521 92.2816Z" fill="#929292"/>
    <path d="M113.338 103.503L101.599 104.567L101.614 104.732L113.353 103.668L113.338 103.503Z" fill="#343434"/>
    <path d="M112.524 102.098L101.386 103.044L101.4 103.209L112.538 102.263L112.524 102.098Z" fill="#343434"/>
    <path d="M111.826 100.669L101.184 101.697L101.2 101.862L111.842 100.834L111.826 100.669Z" fill="#343434"/>
    <path d="M111.378 99.2342L101.167 100.36L101.185 100.525L111.396 99.3987L111.378 99.2342Z" fill="#343434"/>
    <path d="M110.777 97.9679L100.97 99.0684L100.989 99.2328L110.796 98.1323L110.777 97.9679Z" fill="#343434"/>
    <path d="M110.033 96.8604L100.455 97.5986L100.467 97.7636L110.046 97.0254L110.033 96.8604Z" fill="#343434"/>
    <path d="M109.445 95.7526L100.145 96.5781L100.16 96.7429L109.46 95.9174L109.445 95.7526Z" fill="#343434"/>
    <path d="M108.861 94.6463L99.863 95.6387L99.8814 95.8031L108.88 94.8107L108.861 94.6463Z" fill="#343434"/>
    <path d="M108.438 93.5419L99.5417 94.3828L99.5575 94.5475L108.454 93.7066L108.438 93.5419Z" fill="#343434"/>
    <path d="M107.694 92.4421L99.1841 93.3643L99.2022 93.5287L107.712 92.6066L107.694 92.4421Z" fill="#343434"/>
    <path d="M107.29 91.4706L98.8428 92.2041L98.8573 92.3689L107.304 91.6354L107.29 91.4706Z" fill="#343434"/>
    <path d="M97.9495 88.8035L97.0807 77.7013C97.031 77.0606 97.5133 76.5009 98.1587 76.4481L103.57 76.0328C104.216 75.9835 104.78 76.4622 104.829 77.1029L105.698 88.2051C105.748 88.8458 105.266 89.4055 104.62 89.4548L99.2085 89.8701C98.563 89.9194 97.9992 89.4407 97.9495 88.8V88.8035Z" fill="#3917B3"/>
    <path d="M86.6082 105.999L76.9799 106.133H76.9019L76.3274 98.7726C76.2529 97.8433 76.9587 97.0267 77.8949 96.9528L87.36 96.2241C88.2963 96.1502 89.119 96.8507 89.1935 97.78L89.8176 105.753L89.7361 105.76L86.6117 105.999H86.6082Z" fill="#929292"/>
    <path d="M97.0344 68.613L96.3712 60.1296C96.3215 59.489 96.8038 58.9293 97.4493 58.88L99.2331 58.7427C99.8785 58.6935 100.442 59.1722 100.492 59.8128L101.155 68.2962C101.205 68.9368 100.723 69.4965 100.077 69.5458L98.2933 69.6831C97.6479 69.7324 97.084 69.2536 97.0344 68.613Z" fill="#343434"/>
    <path d="M101.758 105.658L100.701 98.4913L98.6799 91.7293L98.1196 89.8777C97.2259 89.3708 96.1372 90.096 96.2649 91.1062L96.3677 91.9053L98.3891 98.6673L99.446 105.834" fill="#929292"/>
    <path d="M168.994 104.835L18.1492 106.769L18.1534 107.096L168.998 105.162L168.994 104.835Z" fill="#929292"/>
    <path d="M68.5433 56.5393C72.2744 56.5393 75.2991 53.5371 75.2991 49.8336C75.2991 46.1302 72.2744 43.1279 68.5433 43.1279C64.8122 43.1279 61.7876 46.1302 61.7876 49.8336C61.7876 53.5371 64.8122 56.5393 68.5433 56.5393Z" fill="#60E0EB"/>
    <path d="M72.9301 42.7685C72.5365 42.5397 71.9336 42.6594 71.7173 43.0853C70.8626 44.7644 70.2385 46.5244 69.8306 48.3443C69.1817 47.5487 68.5327 46.7567 67.8837 45.9612C67.5823 45.5916 66.9439 45.6514 66.6283 45.9612C66.2595 46.3273 66.3269 46.8342 66.6283 47.2073C67.6603 48.471 68.6923 49.7347 69.7278 50.9984C69.9477 51.2659 70.4052 51.3082 70.696 51.1814C71.047 51.0266 71.1924 50.7414 71.2421 50.3789C71.5364 48.1577 72.2315 45.9718 73.2458 43.9759C73.4621 43.5535 73.3592 43.022 72.9266 42.772L72.9301 42.7685Z" fill="white"/>
    <path d="M72.2599 64.5437C75.292 65.2617 78.1255 64.2902 78.583 62.3753C79.044 60.4604 76.9588 58.3237 73.9231 57.6056C72.7139 57.3029 71.4514 57.2888 70.2385 57.5704L57.3512 54.6875L56.1171 60.7209L68.9512 62.9244C69.9052 63.72 71.04 64.2761 72.2564 64.5472L72.2599 64.5437Z" fill="#CA795C"/>
    <path d="M58.3299 31.2796L56.2021 29.5195C56.2021 29.5195 51.9465 31.6316 51.2372 33.3916C50.528 35.1516 46.2724 52.0479 46.2724 52.0479C46.2724 52.0479 45.439 61.3091 47.6271 62.4848C49.8152 63.6605 63.6494 62.9601 63.6494 62.9601L64.7133 55.9199L59.0391 53.8079L58.3299 31.2796Z" fill="#3917B3"/>
    <path d="M143.193 129.872C142.896 129.373 141.598 129.908 141.36 129.454C141.122 128.999 142.325 128.31 143.013 126.733C143.137 126.447 143.917 124.656 143.339 124.103C142.243 123.054 137.225 127.38 135.47 125.965C135.083 125.655 134.813 125.036 133.65 124.026C133.186 123.624 132.906 123.445 132.636 123.512C132.249 123.607 132.221 124.121 131.806 125.124C131.186 126.634 130.82 126.542 130.459 127.746C130.189 128.64 130.253 129.161 129.937 129.26C129.49 129.404 129.079 128.454 128.515 128.538C127.937 128.626 127.59 129.728 127.48 130.555C127.274 132.108 127.845 133.129 128.164 134.206C128.508 135.374 128.714 137.152 127.916 139.672L120.015 161.768C121.759 157.234 126.809 144.805 128.93 140.186C129.544 138.852 130.217 137.5 131.608 136.965C132.945 136.451 134.782 136.758 137.122 136.198C137.395 136.131 138.154 135.941 138.25 135.498C138.328 135.131 137.881 134.927 137.952 134.582C138.044 134.121 138.92 134.118 140.002 133.586C140.761 133.213 141.236 132.766 141.644 132.382C141.768 132.266 143.594 130.531 143.193 129.862V129.872Z" fill="#F6F6F6"/>
    <path d="M112.113 141.502C111.78 141.502 111.67 142.291 111.376 142.273C111.085 142.259 111.088 141.474 110.507 140.682C110.4 140.541 109.741 139.64 109.301 139.763C108.468 139.996 109.159 143.688 107.95 144.135C107.684 144.234 107.301 144.185 106.468 144.463C106.134 144.572 105.964 144.656 105.921 144.808C105.858 145.022 106.102 145.184 106.482 145.677C107.049 146.413 106.897 146.568 107.39 147.089C107.755 147.476 108.028 147.596 107.989 147.779C107.932 148.036 107.344 147.965 107.223 148.264C107.099 148.571 107.546 149.06 107.922 149.352C108.627 149.901 109.301 149.915 109.925 150.07C110.603 150.239 111.542 150.651 112.557 151.767L121.203 161.989C119.465 159.831 114.777 153.784 113.106 151.418C112.624 150.736 112.149 150.014 112.287 149.187C112.418 148.388 113.099 147.582 113.5 146.279C113.546 146.128 113.67 145.702 113.479 145.529C113.319 145.385 113.092 145.543 112.94 145.41C112.738 145.234 112.989 144.804 113.039 144.125C113.074 143.646 112.989 143.287 112.918 142.977C112.897 142.886 112.564 141.492 112.12 141.495L112.113 141.502Z" fill="#F6F6F6"/>
    <path d="M118.781 142.988L118.578 141.203L118.671 141.069C119.096 140.443 119.312 139.834 119.316 139.253C119.316 139.161 119.312 139.07 119.309 138.975C119.291 138.602 119.27 138.141 119.515 137.602C119.649 137.303 120.032 136.606 120.61 136.69C120.766 136.711 120.883 136.782 120.972 136.866C120.986 136.845 120.997 136.824 121.015 136.803C121.196 136.532 121.337 136.416 121.472 136.303C121.579 136.219 121.685 136.127 121.855 135.919C121.93 135.828 121.986 135.747 122.036 135.677C122.185 135.472 122.38 135.226 122.72 135.23C123.086 135.247 123.277 135.546 123.405 135.747C123.632 136.103 123.735 136.359 123.802 136.528C123.827 136.592 123.855 136.659 123.869 136.683C123.987 136.856 124.948 136.694 125.309 136.638C126.121 136.504 126.824 136.388 127.114 136.895C127.32 137.257 127.168 137.739 126.643 138.362C126.48 138.556 126.306 138.704 126.15 138.82C126.277 138.897 126.391 139.014 126.437 139.193C126.547 139.626 126.171 140.059 125.323 140.481C125.114 140.587 124.831 140.728 124.433 140.798C124.245 140.83 124.079 140.837 123.933 140.84C123.933 140.921 123.912 141.013 123.859 141.104C123.71 141.376 123.401 141.506 122.933 141.474C122.419 141.446 121.997 141.351 121.625 141.266C121.298 141.193 121.018 141.129 120.798 141.143C120.391 141.175 120.075 141.502 119.706 141.921L118.784 142.991L118.781 142.988Z" fill="#F6F6F6"/>
    <path d="M119.713 132.368L118.025 133.012L117.869 132.959C117.153 132.709 116.5 132.657 115.936 132.801C115.848 132.825 115.759 132.85 115.667 132.878C115.308 132.991 114.862 133.128 114.277 133.03C113.95 132.977 113.174 132.783 113.113 132.209C113.096 132.055 113.135 131.924 113.191 131.819C113.167 131.812 113.145 131.805 113.12 131.794C112.812 131.692 112.663 131.583 112.518 131.481C112.408 131.403 112.294 131.319 112.046 131.21C111.936 131.161 111.844 131.125 111.766 131.097C111.528 131.006 111.237 130.882 111.156 130.552C111.081 130.196 111.322 129.936 111.486 129.763C111.773 129.457 111.996 129.291 112.145 129.182C112.198 129.144 112.259 129.098 112.276 129.08C112.415 128.922 112.014 128.042 111.865 127.711C111.528 126.965 111.237 126.32 111.659 125.912C111.961 125.62 112.468 125.648 113.209 125.993C113.44 126.102 113.628 126.232 113.78 126.349C113.823 126.208 113.904 126.067 114.071 125.975C114.464 125.761 114.982 126.011 115.61 126.718C115.766 126.894 115.975 127.13 116.142 127.493C116.22 127.665 116.27 127.823 116.312 127.961C116.394 127.943 116.486 127.94 116.589 127.961C116.89 128.035 117.096 128.299 117.185 128.756C117.287 129.256 117.302 129.686 117.312 130.066C117.323 130.397 117.333 130.682 117.404 130.889C117.539 131.273 117.936 131.495 118.44 131.741L119.717 132.357L119.713 132.368Z" fill="#F6F6F6"/>
    <path d="M118.781 127.113L118.578 125.328L118.671 125.194C119.096 124.568 119.312 123.959 119.316 123.378C119.316 123.286 119.312 123.195 119.309 123.1C119.291 122.727 119.27 122.266 119.515 121.727C119.649 121.428 120.032 120.731 120.61 120.815C120.766 120.836 120.883 120.907 120.972 120.991C120.986 120.97 120.997 120.949 121.015 120.928C121.196 120.657 121.337 120.541 121.472 120.428C121.579 120.344 121.685 120.252 121.855 120.044C121.93 119.953 121.986 119.872 122.036 119.802C122.185 119.597 122.38 119.351 122.72 119.355C123.086 119.372 123.277 119.671 123.405 119.872C123.632 120.228 123.735 120.484 123.802 120.653C123.827 120.717 123.855 120.784 123.869 120.808C123.987 120.981 124.948 120.819 125.309 120.763C126.121 120.629 126.824 120.513 127.114 121.02C127.32 121.382 127.168 121.864 126.643 122.487C126.48 122.681 126.306 122.829 126.15 122.945C126.277 123.022 126.391 123.139 126.437 123.318C126.547 123.751 126.171 124.184 125.323 124.606C125.114 124.712 124.831 124.853 124.433 124.923C124.245 124.955 124.079 124.962 123.933 124.965C123.933 125.046 123.912 125.138 123.859 125.23C123.71 125.501 123.401 125.631 122.933 125.599C122.419 125.571 121.997 125.476 121.625 125.391C121.298 125.318 121.018 125.254 120.798 125.268C120.391 125.3 120.075 125.627 119.706 126.046L118.784 127.116L118.781 127.113Z" fill="#F6F6F6"/>
    <path d="M120.617 161.739L120.242 161.503L119.802 161.553C119.795 161.51 119.77 161.419 119.734 161.275C119.539 160.476 118.94 158.05 118.44 154.227C118.093 151.559 117.894 148.814 117.851 146.071C117.809 143.322 117.94 141.242 118.046 139.57C118.124 138.31 118.224 137.109 118.316 135.937C118.568 132.811 118.805 129.858 118.628 126.591C118.589 125.863 118.507 124.342 117.614 122.726C117.096 121.79 116.38 120.956 115.49 120.255L116.043 119.565C117.025 120.343 117.816 121.266 118.39 122.304C119.38 124.096 119.472 125.75 119.515 126.546C119.695 129.872 119.454 132.854 119.199 136.008C119.107 137.173 119.007 138.37 118.929 139.626C118.827 141.284 118.695 143.343 118.734 146.057C118.773 148.768 118.968 151.478 119.312 154.115C119.805 157.888 120.398 160.282 120.589 161.067C120.692 161.486 120.713 161.574 120.607 161.739H120.617Z" fill="#F6F6F6"/>
    <path d="M113.865 121.66C113.83 121.66 113.791 121.66 113.755 121.66C113 121.618 112.298 121.171 111.674 120.322C111.379 119.925 111.23 119.471 110.933 118.566C110.886 118.425 110.659 117.718 110.525 116.743C110.436 116.105 110.447 115.841 110.574 115.606C110.716 115.345 110.943 115.162 111.202 115.039C111.191 114.954 111.202 114.866 111.237 114.778C111.39 114.412 111.791 114.458 112.011 114.483C112.121 114.497 112.259 114.514 112.408 114.507C112.642 114.497 112.766 114.426 112.957 114.324C113.138 114.226 113.365 114.103 113.702 114.036C114.362 113.898 114.919 114.085 115.099 114.145C116.06 114.462 116.536 115.204 117.082 116.063C117.192 116.236 117.568 116.862 117.816 117.721C117.993 118.341 117.968 118.619 117.915 118.823C117.805 119.245 117.546 119.485 116.89 120.016C116.206 120.572 115.862 120.854 115.568 121.023C114.88 121.417 114.45 121.664 113.876 121.664L113.865 121.66Z" fill="#F6F6F6"/>
    <path d="M151.797 161.339C151.797 161.501 151.662 161.634 151.499 161.634H0.297891C0.13476 161.634 0 161.501 0 161.339C0 161.177 0.13476 161.043 0.297891 161.043H151.499C151.662 161.043 151.797 161.177 151.797 161.339Z" fill="#DFDFDF"/>
  </g>
  <defs>
    <clipPath id="clip0_180_10629">
      <rect width="169" height="162" fill="white"/>
    </clipPath>
  </defs>
</svg>
