<svg width="1200" height="630" viewBox="0 0 1200 630" fill="none" xmlns="http://www.w3.org/2000/svg">
<rect width="1200" height="630" fill="url(#paint0_linear_1_2)"/>
<g clip-path="url(#clip0_1_2)">
<path d="M172.625 142.117L269.752 243.511C273.03 246.882 274.734 251.291 274.734 255.958V389.249H262.544V255.958C262.544 254.402 261.888 252.976 260.839 251.81L163.711 150.415C161.352 147.952 157.289 147.952 154.93 150.415L57.8019 251.81C56.7533 252.976 56.0976 254.402 56.0976 255.958V371.226C56.0976 374.597 58.8505 377.191 62.1273 377.191H159.255C165.416 377.191 174.722 375.375 182.325 369.929C189.665 364.743 195.694 356.056 195.694 341.145C195.694 326.234 189.534 317.547 182.325 312.361C174.722 306.915 165.416 305.1 159.255 305.1H143.526V293.041H159.255C162.27 293.041 167.12 292.134 170.921 289.411C174.46 286.947 177.475 282.668 177.475 275.019C177.475 267.369 174.46 263.22 170.921 260.626C167.12 257.904 162.401 256.996 159.255 256.996H128.845C125.437 256.996 122.816 259.719 122.816 262.96V350.87H110.626V262.96C110.626 252.976 118.752 244.937 128.845 244.937H159.255C164.236 244.937 171.707 246.364 177.999 250.902C184.553 255.57 189.665 263.479 189.665 275.019C189.665 286.558 185.733 292.652 180.227 297.45C183.373 298.746 186.519 300.432 189.403 302.636C199.889 310.027 207.884 322.345 207.884 341.145C207.884 359.946 199.889 372.263 189.403 379.654C179.31 386.785 167.382 389.249 159.255 389.249H43.9076V255.958C43.9076 251.291 45.7429 246.882 48.8887 243.511L146.017 142.13C149.555 138.37 154.405 134.999 159.255 134.999C164.105 134.999 168.824 138.37 172.494 142.13H172.625V142.117Z" fill="#3917B3"/>
<path d="M173.022 428.946C172.164 428.066 170.8 427.613 168.929 427.613H162.056V437.403H168.929C170.8 437.403 172.164 436.95 173.022 436.056C173.88 435.15 174.308 433.958 174.308 432.469C174.308 430.979 173.88 429.84 173.022 428.946Z" fill="#3917B3"/>
<path d="M43.9076 402.775V473.999H273.889V402.775H43.9076ZM81.7833 452.528C79.8863 454.16 77.2356 454.975 73.8311 454.975H58.0181V422.342H73.2724C75.5463 422.342 77.4692 422.718 79.0544 423.456C80.6395 424.194 81.8351 425.217 82.6539 426.512C83.4721 427.807 83.8881 429.257 83.8881 430.876C83.8881 433.052 83.2903 434.709 82.082 435.862C80.8864 437.014 79.3921 437.752 77.6124 438.102V438.477C79.769 438.762 81.4715 439.527 82.7316 440.783C83.9922 442.039 84.6286 443.852 84.6286 446.209C84.6286 448.785 83.6803 450.897 81.7701 452.528H81.7833ZM129.988 449.666C128.884 451.466 127.403 452.865 125.545 453.862C123.687 454.859 121.621 455.351 119.347 455.351C117.073 455.351 115.085 454.859 113.292 453.862C111.499 452.865 110.069 451.466 109.017 449.666C107.951 447.866 107.432 445.729 107.432 443.282C107.432 440.834 107.965 438.711 109.043 436.924C110.122 435.136 111.564 433.751 113.396 432.754C115.215 431.757 117.268 431.264 119.542 431.264C121.816 431.264 123.829 431.757 125.675 432.754C127.519 433.751 128.975 435.136 130.053 436.924C131.132 438.711 131.664 440.834 131.664 443.282C131.664 445.729 131.106 447.866 130.001 449.666H129.988ZM173.841 454.975L166.642 442.207H162.056V454.975H155.598V422.342H169.163C171.788 422.342 173.958 422.795 175.686 423.689C177.414 424.595 178.713 425.8 179.571 427.328C180.428 428.856 180.857 430.513 180.857 432.313C180.857 433.621 180.61 434.903 180.103 436.16C179.61 437.416 178.804 438.542 177.713 439.513C176.621 440.498 175.205 441.21 173.451 441.676L181.312 454.963H173.828L173.841 454.975ZM211.82 454.975H205.415V431.666H211.82V454.975ZM211.404 427.638C210.69 428.338 209.767 428.687 208.65 428.687C207.533 428.687 206.61 428.338 205.895 427.638C205.181 426.939 204.817 426.072 204.817 425.048C204.817 424.026 205.181 423.158 205.895 422.459C206.61 421.759 207.533 421.41 208.65 421.41C209.767 421.41 210.69 421.759 211.404 422.459C212.119 423.158 212.483 424.026 212.483 425.048C212.483 426.072 212.119 426.939 211.404 427.638ZM258.804 450.456C257.92 451.919 256.608 453.085 254.88 453.978C253.152 454.859 251.047 455.312 248.591 455.312C246.59 455.312 244.745 455.015 243.03 454.406C241.315 453.797 239.86 452.93 238.678 451.79C237.495 450.65 236.716 449.265 236.339 447.62L242.277 445.988C242.563 447.296 243.251 448.307 244.355 449.019C245.46 449.731 246.798 450.093 248.357 450.093C249.916 450.093 251.216 449.705 252.164 448.928C253.113 448.151 253.594 447.154 253.594 445.95C253.594 444.926 253.295 444.111 252.684 443.502C252.073 442.893 251.268 442.401 250.254 442.013C249.241 441.625 248.137 441.262 246.928 440.938C245.733 440.614 244.525 440.239 243.303 439.825C242.082 439.41 240.977 438.866 239.977 438.193C238.976 437.519 238.171 436.652 237.573 435.564C236.975 434.476 236.663 433.078 236.663 431.368C236.663 429.413 237.157 427.729 238.132 426.305C239.119 424.893 240.47 423.805 242.198 423.067C243.927 422.329 245.915 421.954 248.163 421.954C251.034 421.954 253.464 422.562 255.465 423.767C257.466 424.984 258.804 426.693 259.492 428.895L253.645 430.527C253.399 429.568 252.775 428.778 251.775 428.17C250.774 427.561 249.605 427.25 248.266 427.211C246.928 427.146 245.746 427.457 244.732 428.118C243.719 428.791 243.212 429.801 243.212 431.174C243.212 432.106 243.511 432.87 244.122 433.453C244.732 434.036 245.538 434.541 246.551 434.942C247.565 435.344 248.669 435.719 249.878 436.056C251.073 436.393 252.281 436.781 253.477 437.221C254.672 437.662 255.79 438.219 256.803 438.918C257.816 439.617 258.622 440.511 259.233 441.599C259.843 442.686 260.143 444.033 260.143 445.652C260.143 447.387 259.701 448.993 258.804 450.456Z" fill="#3917B3"/>
<path d="M122.179 437.493C121.321 437.027 120.412 436.794 119.437 436.794C118.008 436.794 116.735 437.325 115.63 438.374C114.526 439.436 113.967 441.068 113.967 443.269C113.967 445.471 114.5 447.115 115.578 448.19C116.657 449.265 117.904 449.796 119.346 449.796C120.308 449.796 121.231 449.563 122.101 449.097C122.972 448.631 123.686 447.905 124.258 446.934C124.816 445.95 125.102 444.733 125.102 443.269C125.102 441.806 124.83 440.601 124.284 439.63C123.738 438.659 123.037 437.947 122.179 437.481V437.493Z" fill="#3917B3"/>
<path d="M72.8433 440.951H64.4756V449.809H72.9865C74.6103 449.809 75.8709 449.433 76.7805 448.669C77.6897 447.905 78.1316 446.83 78.1316 445.432C78.1316 444.033 77.6511 442.893 76.6764 442.116C75.7149 441.339 74.4285 440.951 72.8433 440.951Z" fill="#3917B3"/>
<path d="M76.0268 434.838C76.8973 434.126 77.3392 433.103 77.3392 431.756C77.3392 430.41 76.8973 429.373 76.0268 428.636C75.1563 427.885 73.9348 427.522 72.3755 427.522H64.4756V435.913H72.3755C73.9348 435.913 75.1563 435.551 76.0268 434.838Z" fill="#3917B3"/>
</g>
<path d="M345.182 266V172.909H380.818C387.545 172.909 393.136 173.97 397.591 176.091C402.076 178.182 405.424 181.045 407.636 184.682C409.879 188.318 411 192.439 411 197.045C411 200.833 410.273 204.076 408.818 206.773C407.364 209.439 405.409 211.606 402.955 213.273C400.5 214.939 397.758 216.136 394.727 216.864V217.773C398.03 217.955 401.197 218.97 404.227 220.818C407.288 222.636 409.788 225.212 411.727 228.545C413.667 231.879 414.636 235.909 414.636 240.636C414.636 245.455 413.47 249.788 411.136 253.636C408.803 257.455 405.288 260.47 400.591 262.682C395.894 264.894 389.985 266 382.864 266H345.182ZM362.045 251.909H380.182C386.303 251.909 390.712 250.742 393.409 248.409C396.136 246.045 397.5 243.015 397.5 239.318C397.5 236.561 396.818 234.076 395.455 231.864C394.091 229.621 392.152 227.864 389.636 226.591C387.121 225.288 384.121 224.636 380.636 224.636H362.045V251.909ZM362.045 212.5H378.727C381.636 212.5 384.258 211.97 386.591 210.909C388.924 209.818 390.758 208.288 392.091 206.318C393.455 204.318 394.136 201.955 394.136 199.227C394.136 195.621 392.864 192.652 390.318 190.318C387.803 187.985 384.061 186.818 379.091 186.818H362.045V212.5ZM459.034 267.364C452.216 267.364 446.307 265.864 441.307 262.864C436.307 259.864 432.428 255.667 429.67 250.273C426.943 244.879 425.58 238.576 425.58 231.364C425.58 224.152 426.943 217.833 429.67 212.409C432.428 206.985 436.307 202.773 441.307 199.773C446.307 196.773 452.216 195.273 459.034 195.273C465.852 195.273 471.761 196.773 476.761 199.773C481.761 202.773 485.625 206.985 488.352 212.409C491.11 217.833 492.489 224.152 492.489 231.364C492.489 238.576 491.11 244.879 488.352 250.273C485.625 255.667 481.761 259.864 476.761 262.864C471.761 265.864 465.852 267.364 459.034 267.364ZM459.125 254.182C462.822 254.182 465.913 253.167 468.398 251.136C470.883 249.076 472.731 246.318 473.943 242.864C475.186 239.409 475.807 235.561 475.807 231.318C475.807 227.045 475.186 223.182 473.943 219.727C472.731 216.242 470.883 213.47 468.398 211.409C465.913 209.348 462.822 208.318 459.125 208.318C455.337 208.318 452.186 209.348 449.67 211.409C447.186 213.47 445.322 216.242 444.08 219.727C442.867 223.182 442.261 227.045 442.261 231.318C442.261 235.561 442.867 239.409 444.08 242.864C445.322 246.318 447.186 249.076 449.67 251.136C452.186 253.167 455.337 254.182 459.125 254.182ZM507.182 266V172.909H542.091C549.242 172.909 555.242 174.152 560.091 176.636C564.97 179.121 568.652 182.606 571.136 187.091C573.652 191.545 574.909 196.742 574.909 202.682C574.909 208.652 573.636 213.833 571.091 218.227C568.576 222.591 564.864 225.97 559.955 228.364C555.045 230.727 549.015 231.909 541.864 231.909H517V217.909H539.591C543.773 217.909 547.197 217.333 549.864 216.182C552.53 215 554.5 213.288 555.773 211.045C557.076 208.773 557.727 205.985 557.727 202.682C557.727 199.379 557.076 196.561 555.773 194.227C554.47 191.864 552.485 190.076 549.818 188.864C547.152 187.621 543.712 187 539.5 187H524.045V266H507.182ZM555.273 223.818L578.318 266H559.5L536.864 223.818H555.273ZM589.705 266V196.182H606.159V266H589.705ZM597.977 186.273C595.371 186.273 593.129 185.409 591.25 183.682C589.371 181.924 588.432 179.818 588.432 177.364C588.432 174.879 589.371 172.773 591.25 171.045C593.129 169.288 595.371 168.409 597.977 168.409C600.614 168.409 602.856 169.288 604.705 171.045C606.583 172.773 607.523 174.879 607.523 177.364C607.523 179.818 606.583 181.924 604.705 183.682C602.856 185.409 600.614 186.273 597.977 186.273ZM674.398 198.5C673.973 194.53 672.186 191.439 669.034 189.227C665.913 187.015 661.852 185.909 656.852 185.909C653.337 185.909 650.322 186.439 647.807 187.5C645.292 188.561 643.367 190 642.034 191.818C640.701 193.636 640.019 195.712 639.989 198.045C639.989 199.985 640.428 201.667 641.307 203.091C642.216 204.515 643.443 205.727 644.989 206.727C646.534 207.697 648.246 208.515 650.125 209.182C652.004 209.848 653.898 210.409 655.807 210.864L664.534 213.045C668.049 213.864 671.428 214.97 674.67 216.364C677.943 217.758 680.867 219.515 683.443 221.636C686.049 223.758 688.11 226.318 689.625 229.318C691.14 232.318 691.898 235.833 691.898 239.864C691.898 245.318 690.504 250.121 687.716 254.273C684.928 258.394 680.898 261.621 675.625 263.955C670.383 266.258 664.034 267.409 656.58 267.409C649.337 267.409 643.049 266.288 637.716 264.045C632.413 261.803 628.261 258.53 625.261 254.227C622.292 249.924 620.686 244.682 620.443 238.5H637.034C637.277 241.742 638.277 244.439 640.034 246.591C641.792 248.742 644.08 250.348 646.898 251.409C649.746 252.47 652.928 253 656.443 253C660.11 253 663.322 252.455 666.08 251.364C668.867 250.242 671.049 248.697 672.625 246.727C674.201 244.727 675.004 242.394 675.034 239.727C675.004 237.303 674.292 235.303 672.898 233.727C671.504 232.121 669.549 230.788 667.034 229.727C664.549 228.636 661.64 227.667 658.307 226.818L647.716 224.091C640.049 222.121 633.989 219.136 629.534 215.136C625.11 211.106 622.898 205.758 622.898 199.091C622.898 193.606 624.383 188.803 627.352 184.682C630.352 180.561 634.428 177.364 639.58 175.091C644.731 172.788 650.564 171.636 657.08 171.636C663.686 171.636 669.473 172.788 674.443 175.091C679.443 177.364 683.367 180.53 686.216 184.591C689.064 188.621 690.534 193.258 690.625 198.5H674.398Z" fill="black"/>
<path d="M341.114 367V320.455H370.295V326.5H348.136V340.682H368.773V346.705H348.136V360.955H370.568V367H341.114ZM385.926 346.273V367H379.131V332.091H385.653V337.773H386.085C386.888 335.924 388.146 334.439 389.858 333.318C391.585 332.197 393.759 331.636 396.381 331.636C398.759 331.636 400.843 332.136 402.631 333.136C404.419 334.121 405.805 335.591 406.79 337.545C407.775 339.5 408.267 341.917 408.267 344.795V367H401.472V345.614C401.472 343.083 400.813 341.106 399.494 339.682C398.176 338.242 396.366 337.523 394.062 337.523C392.487 337.523 391.085 337.864 389.858 338.545C388.646 339.227 387.684 340.227 386.972 341.545C386.275 342.848 385.926 344.424 385.926 346.273ZM443.54 340.614L437.381 341.705C437.123 340.917 436.714 340.167 436.153 339.455C435.608 338.742 434.866 338.159 433.926 337.705C432.987 337.25 431.813 337.023 430.403 337.023C428.479 337.023 426.873 337.455 425.585 338.318C424.297 339.167 423.653 340.265 423.653 341.614C423.653 342.78 424.085 343.72 424.949 344.432C425.813 345.144 427.206 345.727 429.131 346.182L434.676 347.455C437.888 348.197 440.282 349.341 441.858 350.886C443.434 352.432 444.222 354.439 444.222 356.909C444.222 359 443.616 360.864 442.403 362.5C441.206 364.121 439.532 365.394 437.381 366.318C435.244 367.242 432.767 367.705 429.949 367.705C426.04 367.705 422.85 366.871 420.381 365.205C417.911 363.523 416.396 361.136 415.835 358.045L422.403 357.045C422.813 358.758 423.653 360.053 424.926 360.932C426.199 361.795 427.858 362.227 429.903 362.227C432.131 362.227 433.911 361.765 435.244 360.841C436.578 359.902 437.244 358.758 437.244 357.409C437.244 356.318 436.835 355.402 436.017 354.659C435.214 353.917 433.979 353.356 432.312 352.977L426.403 351.682C423.146 350.939 420.737 349.758 419.176 348.136C417.631 346.515 416.858 344.462 416.858 341.977C416.858 339.917 417.434 338.114 418.585 336.568C419.737 335.023 421.328 333.818 423.358 332.955C425.388 332.076 427.714 331.636 430.335 331.636C434.108 331.636 437.078 332.455 439.244 334.091C441.411 335.712 442.843 337.886 443.54 340.614ZM466.739 367.705C463.299 367.705 460.337 366.97 457.852 365.5C455.383 364.015 453.473 361.932 452.125 359.25C450.792 356.553 450.125 353.394 450.125 349.773C450.125 346.197 450.792 343.045 452.125 340.318C453.473 337.591 455.352 335.462 457.761 333.932C460.186 332.402 463.019 331.636 466.261 331.636C468.231 331.636 470.14 331.962 471.989 332.614C473.837 333.265 475.496 334.288 476.966 335.682C478.436 337.076 479.595 338.886 480.443 341.114C481.292 343.326 481.716 346.015 481.716 349.182V351.591H453.966V346.5H475.057C475.057 344.712 474.693 343.129 473.966 341.75C473.239 340.356 472.216 339.258 470.898 338.455C469.595 337.652 468.064 337.25 466.307 337.25C464.398 337.25 462.731 337.72 461.307 338.659C459.898 339.583 458.807 340.795 458.034 342.295C457.277 343.78 456.898 345.394 456.898 347.136V351.114C456.898 353.447 457.307 355.432 458.125 357.068C458.958 358.705 460.117 359.955 461.602 360.818C463.087 361.667 464.822 362.091 466.807 362.091C468.095 362.091 469.269 361.909 470.33 361.545C471.39 361.167 472.307 360.606 473.08 359.864C473.852 359.121 474.443 358.205 474.852 357.114L481.284 358.273C480.769 360.167 479.845 361.826 478.511 363.25C477.193 364.659 475.534 365.758 473.534 366.545C471.549 367.318 469.284 367.705 466.739 367.705ZM489.256 367V332.091H495.778V337.773H496.21C496.938 335.848 498.127 334.348 499.778 333.273C501.43 332.182 503.407 331.636 505.71 331.636C508.044 331.636 509.998 332.182 511.574 333.273C513.165 334.364 514.339 335.864 515.097 337.773H515.46C516.294 335.909 517.619 334.424 519.438 333.318C521.256 332.197 523.422 331.636 525.938 331.636C529.104 331.636 531.688 332.629 533.688 334.614C535.703 336.598 536.71 339.591 536.71 343.591V367H529.915V344.227C529.915 341.864 529.271 340.152 527.983 339.091C526.695 338.03 525.157 337.5 523.369 337.5C521.157 337.5 519.438 338.182 518.21 339.545C516.983 340.894 516.369 342.629 516.369 344.75V367H509.597V343.795C509.597 341.902 509.006 340.379 507.824 339.227C506.642 338.076 505.104 337.5 503.21 337.5C501.922 337.5 500.733 337.841 499.642 338.523C498.566 339.189 497.695 340.121 497.028 341.318C496.377 342.515 496.051 343.902 496.051 345.477V367H489.256ZM546.364 367V320.455H553.159V337.75H553.568C553.962 337.023 554.53 336.182 555.273 335.227C556.015 334.273 557.045 333.439 558.364 332.727C559.682 332 561.424 331.636 563.591 331.636C566.409 331.636 568.924 332.348 571.136 333.773C573.348 335.197 575.083 337.25 576.341 339.932C577.614 342.614 578.25 345.841 578.25 349.614C578.25 353.386 577.621 356.621 576.364 359.318C575.106 362 573.379 364.068 571.182 365.523C568.985 366.962 566.477 367.682 563.659 367.682C561.538 367.682 559.803 367.326 558.455 366.614C557.121 365.902 556.076 365.068 555.318 364.114C554.561 363.159 553.977 362.311 553.568 361.568H553V367H546.364ZM553.023 349.545C553.023 352 553.379 354.152 554.091 356C554.803 357.848 555.833 359.295 557.182 360.341C558.53 361.371 560.182 361.886 562.136 361.886C564.167 361.886 565.864 361.348 567.227 360.273C568.591 359.182 569.621 357.705 570.318 355.841C571.03 353.977 571.386 351.879 571.386 349.545C571.386 347.242 571.038 345.174 570.341 343.341C569.659 341.508 568.629 340.061 567.25 339C565.886 337.939 564.182 337.409 562.136 337.409C560.167 337.409 558.5 337.917 557.136 338.932C555.788 339.947 554.765 341.364 554.068 343.182C553.371 345 553.023 347.121 553.023 349.545ZM592.676 320.455V367H585.881V320.455H592.676ZM616.864 367.705C613.424 367.705 610.462 366.97 607.977 365.5C605.508 364.015 603.598 361.932 602.25 359.25C600.917 356.553 600.25 353.394 600.25 349.773C600.25 346.197 600.917 343.045 602.25 340.318C603.598 337.591 605.477 335.462 607.886 333.932C610.311 332.402 613.144 331.636 616.386 331.636C618.356 331.636 620.265 331.962 622.114 332.614C623.962 333.265 625.621 334.288 627.091 335.682C628.561 337.076 629.72 338.886 630.568 341.114C631.417 343.326 631.841 346.015 631.841 349.182V351.591H604.091V346.5H625.182C625.182 344.712 624.818 343.129 624.091 341.75C623.364 340.356 622.341 339.258 621.023 338.455C619.72 337.652 618.189 337.25 616.432 337.25C614.523 337.25 612.856 337.72 611.432 338.659C610.023 339.583 608.932 340.795 608.159 342.295C607.402 343.78 607.023 345.394 607.023 347.136V351.114C607.023 353.447 607.432 355.432 608.25 357.068C609.083 358.705 610.242 359.955 611.727 360.818C613.212 361.667 614.947 362.091 616.932 362.091C618.22 362.091 619.394 361.909 620.455 361.545C621.515 361.167 622.432 360.606 623.205 359.864C623.977 359.121 624.568 358.205 624.977 357.114L631.409 358.273C630.894 360.167 629.97 361.826 628.636 363.25C627.318 364.659 625.659 365.758 623.659 366.545C621.674 367.318 619.409 367.705 616.864 367.705ZM648.222 360.636L647.881 363.114C647.653 364.932 647.267 366.826 646.722 368.795C646.191 370.78 645.638 372.621 645.062 374.318C644.502 376.015 644.04 377.364 643.676 378.364H638.858C639.055 377.424 639.328 376.152 639.676 374.545C640.025 372.955 640.366 371.174 640.699 369.205C641.032 367.235 641.282 365.227 641.449 363.182L641.676 360.636H648.222ZM690.619 332.091V337.545H670.892V332.091H690.619ZM676.301 367V328.045C676.301 325.864 676.778 324.053 677.733 322.614C678.688 321.159 679.953 320.076 681.528 319.364C683.104 318.636 684.816 318.273 686.665 318.273C688.028 318.273 689.195 318.386 690.165 318.614C691.134 318.826 691.854 319.023 692.324 319.205L690.733 324.705C690.415 324.614 690.006 324.508 689.506 324.386C689.006 324.25 688.4 324.182 687.688 324.182C686.036 324.182 684.854 324.591 684.142 325.409C683.445 326.227 683.097 327.409 683.097 328.955V367H676.301ZM706.727 367.773C704.515 367.773 702.515 367.364 700.727 366.545C698.939 365.712 697.523 364.508 696.477 362.932C695.447 361.356 694.932 359.424 694.932 357.136C694.932 355.167 695.311 353.545 696.068 352.273C696.826 351 697.848 349.992 699.136 349.25C700.424 348.508 701.864 347.947 703.455 347.568C705.045 347.189 706.667 346.902 708.318 346.705C710.409 346.462 712.106 346.265 713.409 346.114C714.712 345.947 715.659 345.682 716.25 345.318C716.841 344.955 717.136 344.364 717.136 343.545V343.386C717.136 341.402 716.576 339.864 715.455 338.773C714.348 337.682 712.697 337.136 710.5 337.136C708.212 337.136 706.409 337.644 705.091 338.659C703.788 339.659 702.886 340.773 702.386 342L696 340.545C696.758 338.424 697.864 336.712 699.318 335.409C700.788 334.091 702.477 333.136 704.386 332.545C706.295 331.939 708.303 331.636 710.409 331.636C711.803 331.636 713.28 331.803 714.841 332.136C716.417 332.455 717.886 333.045 719.25 333.909C720.629 334.773 721.758 336.008 722.636 337.614C723.515 339.205 723.955 341.273 723.955 343.818V367H717.318V362.227H717.045C716.606 363.106 715.947 363.97 715.068 364.818C714.189 365.667 713.061 366.371 711.682 366.932C710.303 367.492 708.652 367.773 706.727 367.773ZM708.205 362.318C710.083 362.318 711.689 361.947 713.023 361.205C714.371 360.462 715.394 359.492 716.091 358.295C716.803 357.083 717.159 355.788 717.159 354.409V349.909C716.917 350.152 716.447 350.379 715.75 350.591C715.068 350.788 714.288 350.962 713.409 351.114C712.53 351.25 711.674 351.379 710.841 351.5C710.008 351.606 709.311 351.697 708.75 351.773C707.432 351.939 706.227 352.22 705.136 352.614C704.061 353.008 703.197 353.576 702.545 354.318C701.909 355.045 701.591 356.015 701.591 357.227C701.591 358.909 702.212 360.182 703.455 361.045C704.697 361.894 706.28 362.318 708.205 362.318ZM747.71 367.705C744.331 367.705 741.422 366.939 738.983 365.409C736.559 363.864 734.695 361.735 733.392 359.023C732.089 356.311 731.438 353.205 731.438 349.705C731.438 346.159 732.104 343.03 733.438 340.318C734.771 337.591 736.65 335.462 739.074 333.932C741.498 332.402 744.354 331.636 747.642 331.636C750.294 331.636 752.657 332.129 754.733 333.114C756.809 334.083 758.483 335.447 759.756 337.205C761.044 338.962 761.809 341.015 762.051 343.364H755.438C755.074 341.727 754.241 340.318 752.938 339.136C751.65 337.955 749.922 337.364 747.756 337.364C745.862 337.364 744.203 337.864 742.778 338.864C741.369 339.848 740.271 341.258 739.483 343.091C738.695 344.909 738.301 347.061 738.301 349.545C738.301 352.091 738.688 354.288 739.46 356.136C740.233 357.985 741.324 359.417 742.733 360.432C744.157 361.447 745.831 361.955 747.756 361.955C749.044 361.955 750.21 361.72 751.256 361.25C752.316 360.765 753.203 360.076 753.915 359.182C754.642 358.288 755.15 357.212 755.438 355.955H762.051C761.809 358.212 761.074 360.227 759.847 362C758.619 363.773 756.975 365.167 754.915 366.182C752.869 367.197 750.468 367.705 747.71 367.705ZM769.318 367V332.091H776.114V367H769.318ZM772.75 326.705C771.568 326.705 770.553 326.311 769.705 325.523C768.871 324.72 768.455 323.765 768.455 322.659C768.455 321.538 768.871 320.583 769.705 319.795C770.553 318.992 771.568 318.591 772.75 318.591C773.932 318.591 774.939 318.992 775.773 319.795C776.621 320.583 777.045 321.538 777.045 322.659C777.045 323.765 776.621 324.72 775.773 325.523C774.939 326.311 773.932 326.705 772.75 326.705ZM792.051 320.455V367H785.256V320.455H792.051ZM801.193 367V332.091H807.989V367H801.193ZM804.625 326.705C803.443 326.705 802.428 326.311 801.58 325.523C800.746 324.72 800.33 323.765 800.33 322.659C800.33 321.538 800.746 320.583 801.58 319.795C802.428 318.992 803.443 318.591 804.625 318.591C805.807 318.591 806.814 318.992 807.648 319.795C808.496 320.583 808.92 321.538 808.92 322.659C808.92 323.765 808.496 324.72 807.648 325.523C806.814 326.311 805.807 326.705 804.625 326.705ZM833.426 332.091V337.545H814.358V332.091H833.426ZM819.472 323.727H826.267V356.75C826.267 358.068 826.464 359.061 826.858 359.727C827.252 360.379 827.759 360.826 828.381 361.068C829.017 361.295 829.706 361.409 830.449 361.409C830.994 361.409 831.472 361.371 831.881 361.295C832.29 361.22 832.608 361.159 832.835 361.114L834.062 366.727C833.669 366.879 833.108 367.03 832.381 367.182C831.653 367.348 830.744 367.439 829.653 367.455C827.866 367.485 826.199 367.167 824.653 366.5C823.108 365.833 821.858 364.803 820.903 363.409C819.949 362.015 819.472 360.265 819.472 358.159V323.727ZM855.273 367.705C852 367.705 849.144 366.955 846.705 365.455C844.265 363.955 842.371 361.856 841.023 359.159C839.674 356.462 839 353.311 839 349.705C839 346.083 839.674 342.917 841.023 340.205C842.371 337.492 844.265 335.386 846.705 333.886C849.144 332.386 852 331.636 855.273 331.636C858.545 331.636 861.402 332.386 863.841 333.886C866.28 335.386 868.174 337.492 869.523 340.205C870.871 342.917 871.545 346.083 871.545 349.705C871.545 353.311 870.871 356.462 869.523 359.159C868.174 361.856 866.28 363.955 863.841 365.455C861.402 366.955 858.545 367.705 855.273 367.705ZM855.295 362C857.417 362 859.174 361.439 860.568 360.318C861.962 359.197 862.992 357.705 863.659 355.841C864.341 353.977 864.682 351.924 864.682 349.682C864.682 347.455 864.341 345.409 863.659 343.545C862.992 341.667 861.962 340.159 860.568 339.023C859.174 337.886 857.417 337.318 855.295 337.318C853.159 337.318 851.386 337.886 849.977 339.023C848.583 340.159 847.545 341.667 846.864 343.545C846.197 345.409 845.864 347.455 845.864 349.682C845.864 351.924 846.197 353.977 846.864 355.841C847.545 357.705 848.583 359.197 849.977 360.318C851.386 361.439 853.159 362 855.295 362ZM885.926 346.273V367H879.131V332.091H885.653V337.773H886.085C886.888 335.924 888.146 334.439 889.858 333.318C891.585 332.197 893.759 331.636 896.381 331.636C898.759 331.636 900.843 332.136 902.631 333.136C904.419 334.121 905.805 335.591 906.79 337.545C907.775 339.5 908.267 341.917 908.267 344.795V367H901.472V345.614C901.472 343.083 900.813 341.106 899.494 339.682C898.176 338.242 896.366 337.523 894.062 337.523C892.487 337.523 891.085 337.864 889.858 338.545C888.646 339.227 887.684 340.227 886.972 341.545C886.275 342.848 885.926 344.424 885.926 346.273ZM943.54 340.614L937.381 341.705C937.123 340.917 936.714 340.167 936.153 339.455C935.608 338.742 934.866 338.159 933.926 337.705C932.987 337.25 931.813 337.023 930.403 337.023C928.479 337.023 926.873 337.455 925.585 338.318C924.297 339.167 923.653 340.265 923.653 341.614C923.653 342.78 924.085 343.72 924.949 344.432C925.813 345.144 927.206 345.727 929.131 346.182L934.676 347.455C937.888 348.197 940.282 349.341 941.858 350.886C943.434 352.432 944.222 354.439 944.222 356.909C944.222 359 943.616 360.864 942.403 362.5C941.206 364.121 939.532 365.394 937.381 366.318C935.244 367.242 932.767 367.705 929.949 367.705C926.04 367.705 922.85 366.871 920.381 365.205C917.911 363.523 916.396 361.136 915.835 358.045L922.403 357.045C922.813 358.758 923.653 360.053 924.926 360.932C926.199 361.795 927.858 362.227 929.903 362.227C932.131 362.227 933.911 361.765 935.244 360.841C936.578 359.902 937.244 358.758 937.244 357.409C937.244 356.318 936.835 355.402 936.017 354.659C935.214 353.917 933.979 353.356 932.312 352.977L926.403 351.682C923.146 350.939 920.737 349.758 919.176 348.136C917.631 346.515 916.858 344.462 916.858 341.977C916.858 339.917 917.434 338.114 918.585 336.568C919.737 335.023 921.328 333.818 923.358 332.955C925.388 332.076 927.714 331.636 930.335 331.636C934.108 331.636 937.078 332.455 939.244 334.091C941.411 335.712 942.843 337.886 943.54 340.614ZM975.426 320.455V367H968.631V320.455H975.426ZM990.409 320.455V324.818C990.409 326.106 990.167 327.462 989.682 328.886C989.212 330.295 988.545 331.652 987.682 332.955C986.818 334.258 985.803 335.379 984.636 336.318L981.273 333.909C982.167 332.606 982.939 331.22 983.591 329.75C984.258 328.28 984.591 326.659 984.591 324.886V320.455H990.409ZM1003.85 367.773C1001.64 367.773 999.64 367.364 997.852 366.545C996.064 365.712 994.648 364.508 993.602 362.932C992.572 361.356 992.057 359.424 992.057 357.136C992.057 355.167 992.436 353.545 993.193 352.273C993.951 351 994.973 349.992 996.261 349.25C997.549 348.508 998.989 347.947 1000.58 347.568C1002.17 347.189 1003.79 346.902 1005.44 346.705C1007.53 346.462 1009.23 346.265 1010.53 346.114C1011.84 345.947 1012.78 345.682 1013.38 345.318C1013.97 344.955 1014.26 344.364 1014.26 343.545V343.386C1014.26 341.402 1013.7 339.864 1012.58 338.773C1011.47 337.682 1009.82 337.136 1007.62 337.136C1005.34 337.136 1003.53 337.644 1002.22 338.659C1000.91 339.659 1000.01 340.773 999.511 342L993.125 340.545C993.883 338.424 994.989 336.712 996.443 335.409C997.913 334.091 999.602 333.136 1001.51 332.545C1003.42 331.939 1005.43 331.636 1007.53 331.636C1008.93 331.636 1010.41 331.803 1011.97 332.136C1013.54 332.455 1015.01 333.045 1016.38 333.909C1017.75 334.773 1018.88 336.008 1019.76 337.614C1020.64 339.205 1021.08 341.273 1021.08 343.818V367H1014.44V362.227H1014.17C1013.73 363.106 1013.07 363.97 1012.19 364.818C1011.31 365.667 1010.19 366.371 1008.81 366.932C1007.43 367.492 1005.78 367.773 1003.85 367.773ZM1005.33 362.318C1007.21 362.318 1008.81 361.947 1010.15 361.205C1011.5 360.462 1012.52 359.492 1013.22 358.295C1013.93 357.083 1014.28 355.788 1014.28 354.409V349.909C1014.04 350.152 1013.57 350.379 1012.88 350.591C1012.19 350.788 1011.41 350.962 1010.53 351.114C1009.66 351.25 1008.8 351.379 1007.97 351.5C1007.13 351.606 1006.44 351.697 1005.88 351.773C1004.56 351.939 1003.35 352.22 1002.26 352.614C1001.19 353.008 1000.32 353.576 999.67 354.318C999.034 355.045 998.716 356.015 998.716 357.227C998.716 358.909 999.337 360.182 1000.58 361.045C1001.82 361.894 1003.41 362.318 1005.33 362.318ZM1044.84 367.705C1041.46 367.705 1038.55 366.939 1036.11 365.409C1033.68 363.864 1031.82 361.735 1030.52 359.023C1029.21 356.311 1028.56 353.205 1028.56 349.705C1028.56 346.159 1029.23 343.03 1030.56 340.318C1031.9 337.591 1033.77 335.462 1036.2 333.932C1038.62 332.402 1041.48 331.636 1044.77 331.636C1047.42 331.636 1049.78 332.129 1051.86 333.114C1053.93 334.083 1055.61 335.447 1056.88 337.205C1058.17 338.962 1058.93 341.015 1059.18 343.364H1052.56C1052.2 341.727 1051.37 340.318 1050.06 339.136C1048.77 337.955 1047.05 337.364 1044.88 337.364C1042.99 337.364 1041.33 337.864 1039.9 338.864C1038.49 339.848 1037.4 341.258 1036.61 343.091C1035.82 344.909 1035.43 347.061 1035.43 349.545C1035.43 352.091 1035.81 354.288 1036.59 356.136C1037.36 357.985 1038.45 359.417 1039.86 360.432C1041.28 361.447 1042.96 361.955 1044.88 361.955C1046.17 361.955 1047.34 361.72 1048.38 361.25C1049.44 360.765 1050.33 360.076 1051.04 359.182C1051.77 358.288 1052.27 357.212 1052.56 355.955H1059.18C1058.93 358.212 1058.2 360.227 1056.97 362C1055.74 363.773 1054.1 365.167 1052.04 366.182C1049.99 367.197 1047.59 367.705 1044.84 367.705ZM1081.15 367.705C1077.77 367.705 1074.86 366.939 1072.42 365.409C1070 363.864 1068.13 361.735 1066.83 359.023C1065.53 356.311 1064.88 353.205 1064.88 349.705C1064.88 346.159 1065.54 343.03 1066.88 340.318C1068.21 337.591 1070.09 335.462 1072.51 333.932C1074.94 332.402 1077.79 331.636 1081.08 331.636C1083.73 331.636 1086.09 332.129 1088.17 333.114C1090.25 334.083 1091.92 335.447 1093.19 337.205C1094.48 338.962 1095.25 341.015 1095.49 343.364H1088.88C1088.51 341.727 1087.68 340.318 1086.38 339.136C1085.09 337.955 1083.36 337.364 1081.19 337.364C1079.3 337.364 1077.64 337.864 1076.22 338.864C1074.81 339.848 1073.71 341.258 1072.92 343.091C1072.13 344.909 1071.74 347.061 1071.74 349.545C1071.74 352.091 1072.13 354.288 1072.9 356.136C1073.67 357.985 1074.76 359.417 1076.17 360.432C1077.59 361.447 1079.27 361.955 1081.19 361.955C1082.48 361.955 1083.65 361.72 1084.69 361.25C1085.75 360.765 1086.64 360.076 1087.35 359.182C1088.08 358.288 1088.59 357.212 1088.88 355.955H1095.49C1095.25 358.212 1094.51 360.227 1093.28 362C1092.06 363.773 1090.41 365.167 1088.35 366.182C1086.31 367.197 1083.91 367.705 1081.15 367.705ZM1117.8 367.705C1114.36 367.705 1111.4 366.97 1108.91 365.5C1106.45 364.015 1104.54 361.932 1103.19 359.25C1101.85 356.553 1101.19 353.394 1101.19 349.773C1101.19 346.197 1101.85 343.045 1103.19 340.318C1104.54 337.591 1106.41 335.462 1108.82 333.932C1111.25 332.402 1114.08 331.636 1117.32 331.636C1119.29 331.636 1121.2 331.962 1123.05 332.614C1124.9 333.265 1126.56 334.288 1128.03 335.682C1129.5 337.076 1130.66 338.886 1131.51 341.114C1132.35 343.326 1132.78 346.015 1132.78 349.182V351.591H1105.03V346.5H1126.12C1126.12 344.712 1125.76 343.129 1125.03 341.75C1124.3 340.356 1123.28 339.258 1121.96 338.455C1120.66 337.652 1119.13 337.25 1117.37 337.25C1115.46 337.25 1113.79 337.72 1112.37 338.659C1110.96 339.583 1109.87 340.795 1109.1 342.295C1108.34 343.78 1107.96 345.394 1107.96 347.136V351.114C1107.96 353.447 1108.37 355.432 1109.19 357.068C1110.02 358.705 1111.18 359.955 1112.66 360.818C1114.15 361.667 1115.88 362.091 1117.87 362.091C1119.16 362.091 1120.33 361.909 1121.39 361.545C1122.45 361.167 1123.37 360.606 1124.14 359.864C1124.91 359.121 1125.51 358.205 1125.91 357.114L1132.35 358.273C1131.83 360.167 1130.91 361.826 1129.57 363.25C1128.26 364.659 1126.6 365.758 1124.6 366.545C1122.61 367.318 1120.35 367.705 1117.8 367.705ZM1114.41 327.432L1107.39 316.955H1114.55L1119.85 327.432H1114.41ZM1166.48 340.614L1160.32 341.705C1160.06 340.917 1159.65 340.167 1159.09 339.455C1158.55 338.742 1157.8 338.159 1156.86 337.705C1155.92 337.25 1154.75 337.023 1153.34 337.023C1151.42 337.023 1149.81 337.455 1148.52 338.318C1147.23 339.167 1146.59 340.265 1146.59 341.614C1146.59 342.78 1147.02 343.72 1147.89 344.432C1148.75 345.144 1150.14 345.727 1152.07 346.182L1157.61 347.455C1160.83 348.197 1163.22 349.341 1164.8 350.886C1166.37 352.432 1167.16 354.439 1167.16 356.909C1167.16 359 1166.55 360.864 1165.34 362.5C1164.14 364.121 1162.47 365.394 1160.32 366.318C1158.18 367.242 1155.7 367.705 1152.89 367.705C1148.98 367.705 1145.79 366.871 1143.32 365.205C1140.85 363.523 1139.33 361.136 1138.77 358.045L1145.34 357.045C1145.75 358.758 1146.59 360.053 1147.86 360.932C1149.14 361.795 1150.8 362.227 1152.84 362.227C1155.07 362.227 1156.85 361.765 1158.18 360.841C1159.52 359.902 1160.18 358.758 1160.18 357.409C1160.18 356.318 1159.77 355.402 1158.95 354.659C1158.15 353.917 1156.92 353.356 1155.25 352.977L1149.34 351.682C1146.08 350.939 1143.67 349.758 1142.11 348.136C1140.57 346.515 1139.8 344.462 1139.8 341.977C1139.8 339.917 1140.37 338.114 1141.52 336.568C1142.67 335.023 1144.27 333.818 1146.3 332.955C1148.33 332.076 1150.65 331.636 1153.27 331.636C1157.05 331.636 1160.02 332.455 1162.18 334.091C1164.35 335.712 1165.78 337.886 1166.48 340.614ZM350.727 444.773C348.515 444.773 346.515 444.364 344.727 443.545C342.939 442.712 341.523 441.508 340.477 439.932C339.447 438.356 338.932 436.424 338.932 434.136C338.932 432.167 339.311 430.545 340.068 429.273C340.826 428 341.848 426.992 343.136 426.25C344.424 425.508 345.864 424.947 347.455 424.568C349.045 424.189 350.667 423.902 352.318 423.705C354.409 423.462 356.106 423.265 357.409 423.114C358.712 422.947 359.659 422.682 360.25 422.318C360.841 421.955 361.136 421.364 361.136 420.545V420.386C361.136 418.402 360.576 416.864 359.455 415.773C358.348 414.682 356.697 414.136 354.5 414.136C352.212 414.136 350.409 414.644 349.091 415.659C347.788 416.659 346.886 417.773 346.386 419L340 417.545C340.758 415.424 341.864 413.712 343.318 412.409C344.788 411.091 346.477 410.136 348.386 409.545C350.295 408.939 352.303 408.636 354.409 408.636C355.803 408.636 357.28 408.803 358.841 409.136C360.417 409.455 361.886 410.045 363.25 410.909C364.629 411.773 365.758 413.008 366.636 414.614C367.515 416.205 367.955 418.273 367.955 420.818V444H361.318V439.227H361.045C360.606 440.106 359.947 440.97 359.068 441.818C358.189 442.667 357.061 443.371 355.682 443.932C354.303 444.492 352.652 444.773 350.727 444.773ZM352.205 439.318C354.083 439.318 355.689 438.947 357.023 438.205C358.371 437.462 359.394 436.492 360.091 435.295C360.803 434.083 361.159 432.788 361.159 431.409V426.909C360.917 427.152 360.447 427.379 359.75 427.591C359.068 427.788 358.288 427.962 357.409 428.114C356.53 428.25 355.674 428.379 354.841 428.5C354.008 428.606 353.311 428.697 352.75 428.773C351.432 428.939 350.227 429.22 349.136 429.614C348.061 430.008 347.197 430.576 346.545 431.318C345.909 432.045 345.591 433.015 345.591 434.227C345.591 435.909 346.212 437.182 347.455 438.045C348.697 438.894 350.28 439.318 352.205 439.318ZM352.114 404.432L345.091 393.955H352.25L357.545 404.432H352.114ZM400.739 397.455V444H393.943V397.455H400.739ZM420.04 444.773C417.828 444.773 415.828 444.364 414.04 443.545C412.252 442.712 410.835 441.508 409.79 439.932C408.759 438.356 408.244 436.424 408.244 434.136C408.244 432.167 408.623 430.545 409.381 429.273C410.138 428 411.161 426.992 412.449 426.25C413.737 425.508 415.176 424.947 416.767 424.568C418.358 424.189 419.979 423.902 421.631 423.705C423.722 423.462 425.419 423.265 426.722 423.114C428.025 422.947 428.972 422.682 429.562 422.318C430.153 421.955 430.449 421.364 430.449 420.545V420.386C430.449 418.402 429.888 416.864 428.767 415.773C427.661 414.682 426.009 414.136 423.812 414.136C421.525 414.136 419.722 414.644 418.403 415.659C417.1 416.659 416.199 417.773 415.699 419L409.312 417.545C410.07 415.424 411.176 413.712 412.631 412.409C414.1 411.091 415.79 410.136 417.699 409.545C419.608 408.939 421.616 408.636 423.722 408.636C425.116 408.636 426.593 408.803 428.153 409.136C429.729 409.455 431.199 410.045 432.562 410.909C433.941 411.773 435.07 413.008 435.949 414.614C436.828 416.205 437.267 418.273 437.267 420.818V444H430.631V439.227H430.358C429.919 440.106 429.259 440.97 428.381 441.818C427.502 442.667 426.373 443.371 424.994 443.932C423.616 444.492 421.964 444.773 420.04 444.773ZM421.517 439.318C423.396 439.318 425.002 438.947 426.335 438.205C427.684 437.462 428.706 436.492 429.403 435.295C430.116 434.083 430.472 432.788 430.472 431.409V426.909C430.229 427.152 429.759 427.379 429.062 427.591C428.381 427.788 427.6 427.962 426.722 428.114C425.843 428.25 424.987 428.379 424.153 428.5C423.32 428.606 422.623 428.697 422.062 428.773C420.744 428.939 419.54 429.22 418.449 429.614C417.373 430.008 416.509 430.576 415.858 431.318C415.222 432.045 414.903 433.015 414.903 434.227C414.903 435.909 415.525 437.182 416.767 438.045C418.009 438.894 419.593 439.318 421.517 439.318ZM463.256 457.091V409.091H469.892V414.75H470.46C470.854 414.023 471.422 413.182 472.165 412.227C472.907 411.273 473.938 410.439 475.256 409.727C476.574 409 478.316 408.636 480.483 408.636C483.301 408.636 485.816 409.348 488.028 410.773C490.241 412.197 491.975 414.25 493.233 416.932C494.506 419.614 495.142 422.841 495.142 426.614C495.142 430.386 494.513 433.621 493.256 436.318C491.998 439 490.271 441.068 488.074 442.523C485.877 443.962 483.369 444.682 480.551 444.682C478.43 444.682 476.695 444.326 475.347 443.614C474.013 442.902 472.968 442.068 472.21 441.114C471.453 440.159 470.869 439.311 470.46 438.568H470.051V457.091H463.256ZM469.915 426.545C469.915 429 470.271 431.152 470.983 433C471.695 434.848 472.725 436.295 474.074 437.341C475.422 438.371 477.074 438.886 479.028 438.886C481.059 438.886 482.756 438.348 484.119 437.273C485.483 436.182 486.513 434.705 487.21 432.841C487.922 430.977 488.278 428.879 488.278 426.545C488.278 424.242 487.93 422.174 487.233 420.341C486.551 418.508 485.521 417.061 484.142 416C482.778 414.939 481.074 414.409 479.028 414.409C477.059 414.409 475.392 414.917 474.028 415.932C472.68 416.947 471.657 418.364 470.96 420.182C470.263 422 469.915 424.121 469.915 426.545ZM502.756 444V409.091H509.324V414.636H509.688C510.324 412.758 511.445 411.28 513.051 410.205C514.672 409.114 516.506 408.568 518.551 408.568C518.975 408.568 519.475 408.583 520.051 408.614C520.642 408.644 521.104 408.682 521.438 408.727V415.227C521.165 415.152 520.68 415.068 519.983 414.977C519.286 414.871 518.589 414.818 517.892 414.818C516.286 414.818 514.854 415.159 513.597 415.841C512.354 416.508 511.369 417.439 510.642 418.636C509.915 419.818 509.551 421.167 509.551 422.682V444H502.756ZM540.773 444.705C537.5 444.705 534.644 443.955 532.205 442.455C529.765 440.955 527.871 438.856 526.523 436.159C525.174 433.462 524.5 430.311 524.5 426.705C524.5 423.083 525.174 419.917 526.523 417.205C527.871 414.492 529.765 412.386 532.205 410.886C534.644 409.386 537.5 408.636 540.773 408.636C544.045 408.636 546.902 409.386 549.341 410.886C551.78 412.386 553.674 414.492 555.023 417.205C556.371 419.917 557.045 423.083 557.045 426.705C557.045 430.311 556.371 433.462 555.023 436.159C553.674 438.856 551.78 440.955 549.341 442.455C546.902 443.955 544.045 444.705 540.773 444.705ZM540.795 439C542.917 439 544.674 438.439 546.068 437.318C547.462 436.197 548.492 434.705 549.159 432.841C549.841 430.977 550.182 428.924 550.182 426.682C550.182 424.455 549.841 422.409 549.159 420.545C548.492 418.667 547.462 417.159 546.068 416.023C544.674 414.886 542.917 414.318 540.795 414.318C538.659 414.318 536.886 414.886 535.477 416.023C534.083 417.159 533.045 418.667 532.364 420.545C531.697 422.409 531.364 424.455 531.364 426.682C531.364 428.924 531.697 430.977 532.364 432.841C533.045 434.705 534.083 436.197 535.477 437.318C536.886 438.439 538.659 439 540.795 439ZM564.631 457.091V409.091H571.267V414.75H571.835C572.229 414.023 572.797 413.182 573.54 412.227C574.282 411.273 575.313 410.439 576.631 409.727C577.949 409 579.691 408.636 581.858 408.636C584.676 408.636 587.191 409.348 589.403 410.773C591.616 412.197 593.35 414.25 594.608 416.932C595.881 419.614 596.517 422.841 596.517 426.614C596.517 430.386 595.888 433.621 594.631 436.318C593.373 439 591.646 441.068 589.449 442.523C587.252 443.962 584.744 444.682 581.926 444.682C579.805 444.682 578.07 444.326 576.722 443.614C575.388 442.902 574.343 442.068 573.585 441.114C572.828 440.159 572.244 439.311 571.835 438.568H571.426V457.091H564.631ZM571.29 426.545C571.29 429 571.646 431.152 572.358 433C573.07 434.848 574.1 436.295 575.449 437.341C576.797 438.371 578.449 438.886 580.403 438.886C582.434 438.886 584.131 438.348 585.494 437.273C586.858 436.182 587.888 434.705 588.585 432.841C589.297 430.977 589.653 428.879 589.653 426.545C589.653 424.242 589.305 422.174 588.608 420.341C587.926 418.508 586.896 417.061 585.517 416C584.153 414.939 582.449 414.409 580.403 414.409C578.434 414.409 576.767 414.917 575.403 415.932C574.055 416.947 573.032 418.364 572.335 420.182C571.638 422 571.29 424.121 571.29 426.545ZM604.131 444V409.091H610.699V414.636H611.062C611.699 412.758 612.82 411.28 614.426 410.205C616.047 409.114 617.881 408.568 619.926 408.568C620.35 408.568 620.85 408.583 621.426 408.614C622.017 408.644 622.479 408.682 622.812 408.727V415.227C622.54 415.152 622.055 415.068 621.358 414.977C620.661 414.871 619.964 414.818 619.267 414.818C617.661 414.818 616.229 415.159 614.972 415.841C613.729 416.508 612.744 417.439 612.017 418.636C611.29 419.818 610.926 421.167 610.926 422.682V444H604.131ZM628.693 444V409.091H635.489V444H628.693ZM632.125 403.705C630.943 403.705 629.928 403.311 629.08 402.523C628.246 401.72 627.83 400.765 627.83 399.659C627.83 398.538 628.246 397.583 629.08 396.795C629.928 395.992 630.943 395.591 632.125 395.591C633.307 395.591 634.314 395.992 635.148 396.795C635.996 397.583 636.42 398.538 636.42 399.659C636.42 400.765 635.996 401.72 635.148 402.523C634.314 403.311 633.307 403.705 632.125 403.705ZM659.676 444.705C656.237 444.705 653.275 443.97 650.79 442.5C648.32 441.015 646.411 438.932 645.062 436.25C643.729 433.553 643.062 430.394 643.062 426.773C643.062 423.197 643.729 420.045 645.062 417.318C646.411 414.591 648.29 412.462 650.699 410.932C653.123 409.402 655.956 408.636 659.199 408.636C661.169 408.636 663.078 408.962 664.926 409.614C666.775 410.265 668.434 411.288 669.903 412.682C671.373 414.076 672.532 415.886 673.381 418.114C674.229 420.326 674.653 423.015 674.653 426.182V428.591H646.903V423.5H667.994C667.994 421.712 667.631 420.129 666.903 418.75C666.176 417.356 665.153 416.258 663.835 415.455C662.532 414.652 661.002 414.25 659.244 414.25C657.335 414.25 655.669 414.72 654.244 415.659C652.835 416.583 651.744 417.795 650.972 419.295C650.214 420.78 649.835 422.394 649.835 424.136V428.114C649.835 430.447 650.244 432.432 651.062 434.068C651.896 435.705 653.055 436.955 654.54 437.818C656.025 438.667 657.759 439.091 659.744 439.091C661.032 439.091 662.206 438.909 663.267 438.545C664.328 438.167 665.244 437.606 666.017 436.864C666.79 436.121 667.381 435.205 667.79 434.114L674.222 435.273C673.706 437.167 672.782 438.826 671.449 440.25C670.131 441.659 668.472 442.758 666.472 443.545C664.487 444.318 662.222 444.705 659.676 444.705ZM656.131 404.432L661.449 393.955H668.608L661.562 404.432H656.131ZM698.489 409.091V414.545H679.42V409.091H698.489ZM684.534 400.727H691.33V433.75C691.33 435.068 691.527 436.061 691.92 436.727C692.314 437.379 692.822 437.826 693.443 438.068C694.08 438.295 694.769 438.409 695.511 438.409C696.057 438.409 696.534 438.371 696.943 438.295C697.352 438.22 697.67 438.159 697.898 438.114L699.125 443.727C698.731 443.879 698.17 444.03 697.443 444.182C696.716 444.348 695.807 444.439 694.716 444.455C692.928 444.485 691.261 444.167 689.716 443.5C688.17 442.833 686.92 441.803 685.966 440.409C685.011 439.015 684.534 437.265 684.534 435.159V400.727ZM720.676 444.705C717.237 444.705 714.275 443.97 711.79 442.5C709.32 441.015 707.411 438.932 706.062 436.25C704.729 433.553 704.062 430.394 704.062 426.773C704.062 423.197 704.729 420.045 706.062 417.318C707.411 414.591 709.29 412.462 711.699 410.932C714.123 409.402 716.956 408.636 720.199 408.636C722.169 408.636 724.078 408.962 725.926 409.614C727.775 410.265 729.434 411.288 730.903 412.682C732.373 414.076 733.532 415.886 734.381 418.114C735.229 420.326 735.653 423.015 735.653 426.182V428.591H707.903V423.5H728.994C728.994 421.712 728.631 420.129 727.903 418.75C727.176 417.356 726.153 416.258 724.835 415.455C723.532 414.652 722.002 414.25 720.244 414.25C718.335 414.25 716.669 414.72 715.244 415.659C713.835 416.583 712.744 417.795 711.972 419.295C711.214 420.78 710.835 422.394 710.835 424.136V428.114C710.835 430.447 711.244 432.432 712.062 434.068C712.896 435.705 714.055 436.955 715.54 437.818C717.025 438.667 718.759 439.091 720.744 439.091C722.032 439.091 723.206 438.909 724.267 438.545C725.328 438.167 726.244 437.606 727.017 436.864C727.79 436.121 728.381 435.205 728.79 434.114L735.222 435.273C734.706 437.167 733.782 438.826 732.449 440.25C731.131 441.659 729.472 442.758 727.472 443.545C725.487 444.318 723.222 444.705 720.676 444.705ZM717.131 404.432L722.449 393.955H729.608L722.562 404.432H717.131ZM760.131 457.091V409.091H766.767V414.75H767.335C767.729 414.023 768.297 413.182 769.04 412.227C769.782 411.273 770.813 410.439 772.131 409.727C773.449 409 775.191 408.636 777.358 408.636C780.176 408.636 782.691 409.348 784.903 410.773C787.116 412.197 788.85 414.25 790.108 416.932C791.381 419.614 792.017 422.841 792.017 426.614C792.017 430.386 791.388 433.621 790.131 436.318C788.873 439 787.146 441.068 784.949 442.523C782.752 443.962 780.244 444.682 777.426 444.682C775.305 444.682 773.57 444.326 772.222 443.614C770.888 442.902 769.843 442.068 769.085 441.114C768.328 440.159 767.744 439.311 767.335 438.568H766.926V457.091H760.131ZM766.79 426.545C766.79 429 767.146 431.152 767.858 433C768.57 434.848 769.6 436.295 770.949 437.341C772.297 438.371 773.949 438.886 775.903 438.886C777.934 438.886 779.631 438.348 780.994 437.273C782.358 436.182 783.388 434.705 784.085 432.841C784.797 430.977 785.153 428.879 785.153 426.545C785.153 424.242 784.805 422.174 784.108 420.341C783.426 418.508 782.396 417.061 781.017 416C779.653 414.939 777.949 414.409 775.903 414.409C773.934 414.409 772.267 414.917 770.903 415.932C769.555 416.947 768.532 418.364 767.835 420.182C767.138 422 766.79 424.121 766.79 426.545ZM814.335 444.705C811.063 444.705 808.206 443.955 805.767 442.455C803.328 440.955 801.434 438.856 800.085 436.159C798.737 433.462 798.062 430.311 798.062 426.705C798.062 423.083 798.737 419.917 800.085 417.205C801.434 414.492 803.328 412.386 805.767 410.886C808.206 409.386 811.063 408.636 814.335 408.636C817.608 408.636 820.464 409.386 822.903 410.886C825.343 412.386 827.237 414.492 828.585 417.205C829.934 419.917 830.608 423.083 830.608 426.705C830.608 430.311 829.934 433.462 828.585 436.159C827.237 438.856 825.343 440.955 822.903 442.455C820.464 443.955 817.608 444.705 814.335 444.705ZM814.358 439C816.479 439 818.237 438.439 819.631 437.318C821.025 436.197 822.055 434.705 822.722 432.841C823.403 430.977 823.744 428.924 823.744 426.682C823.744 424.455 823.403 422.409 822.722 420.545C822.055 418.667 821.025 417.159 819.631 416.023C818.237 414.886 816.479 414.318 814.358 414.318C812.222 414.318 810.449 414.886 809.04 416.023C807.646 417.159 806.608 418.667 805.926 420.545C805.259 422.409 804.926 424.455 804.926 426.682C804.926 428.924 805.259 430.977 805.926 432.841C806.608 434.705 807.646 436.197 809.04 437.318C810.449 438.439 812.222 439 814.358 439ZM860.307 429.523V409.091H867.125V444H860.443V437.955H860.08C859.277 439.818 857.989 441.371 856.216 442.614C854.458 443.841 852.269 444.455 849.648 444.455C847.405 444.455 845.42 443.962 843.693 442.977C841.981 441.977 840.633 440.5 839.648 438.545C838.678 436.591 838.193 434.174 838.193 431.295V409.091H844.989V430.477C844.989 432.856 845.648 434.75 846.966 436.159C848.284 437.568 849.996 438.273 852.102 438.273C853.375 438.273 854.64 437.955 855.898 437.318C857.17 436.682 858.223 435.72 859.057 434.432C859.905 433.144 860.322 431.508 860.307 429.523ZM876.256 444V409.091H882.824V414.636H883.188C883.824 412.758 884.945 411.28 886.551 410.205C888.172 409.114 890.006 408.568 892.051 408.568C892.475 408.568 892.975 408.583 893.551 408.614C894.142 408.644 894.604 408.682 894.938 408.727V415.227C894.665 415.152 894.18 415.068 893.483 414.977C892.786 414.871 892.089 414.818 891.392 414.818C889.786 414.818 888.354 415.159 887.097 415.841C885.854 416.508 884.869 417.439 884.142 418.636C883.415 419.818 883.051 421.167 883.051 422.682V444H876.256ZM934.051 409.091V414.545H914.983V409.091H934.051ZM920.097 400.727H926.892V433.75C926.892 435.068 927.089 436.061 927.483 436.727C927.877 437.379 928.384 437.826 929.006 438.068C929.642 438.295 930.331 438.409 931.074 438.409C931.619 438.409 932.097 438.371 932.506 438.295C932.915 438.22 933.233 438.159 933.46 438.114L934.688 443.727C934.294 443.879 933.733 444.03 933.006 444.182C932.278 444.348 931.369 444.439 930.278 444.455C928.491 444.485 926.824 444.167 925.278 443.5C923.733 442.833 922.483 441.803 921.528 440.409C920.574 439.015 920.097 437.265 920.097 435.159V400.727ZM955.898 444.705C952.625 444.705 949.769 443.955 947.33 442.455C944.89 440.955 942.996 438.856 941.648 436.159C940.299 433.462 939.625 430.311 939.625 426.705C939.625 423.083 940.299 419.917 941.648 417.205C942.996 414.492 944.89 412.386 947.33 410.886C949.769 409.386 952.625 408.636 955.898 408.636C959.17 408.636 962.027 409.386 964.466 410.886C966.905 412.386 968.799 414.492 970.148 417.205C971.496 419.917 972.17 423.083 972.17 426.705C972.17 430.311 971.496 433.462 970.148 436.159C968.799 438.856 966.905 440.955 964.466 442.455C962.027 443.955 959.17 444.705 955.898 444.705ZM955.92 439C958.042 439 959.799 438.439 961.193 437.318C962.587 436.197 963.617 434.705 964.284 432.841C964.966 430.977 965.307 428.924 965.307 426.682C965.307 424.455 964.966 422.409 964.284 420.545C963.617 418.667 962.587 417.159 961.193 416.023C959.799 414.886 958.042 414.318 955.92 414.318C953.784 414.318 952.011 414.886 950.602 416.023C949.208 417.159 948.17 418.667 947.489 420.545C946.822 422.409 946.489 424.455 946.489 426.682C946.489 428.924 946.822 430.977 947.489 432.841C948.17 434.705 949.208 436.197 950.602 437.318C952.011 438.439 953.784 439 955.92 439ZM1001.87 429.523V409.091H1008.69V444H1002.01V437.955H1001.64C1000.84 439.818 999.551 441.371 997.778 442.614C996.021 443.841 993.831 444.455 991.21 444.455C988.968 444.455 986.983 443.962 985.256 442.977C983.544 441.977 982.195 440.5 981.21 438.545C980.241 436.591 979.756 434.174 979.756 431.295V409.091H986.551V430.477C986.551 432.856 987.21 434.75 988.528 436.159C989.847 437.568 991.559 438.273 993.665 438.273C994.938 438.273 996.203 437.955 997.46 437.318C998.733 436.682 999.786 435.72 1000.62 434.432C1001.47 433.144 1001.88 431.508 1001.87 429.523ZM1043.98 417.614L1037.82 418.705C1037.56 417.917 1037.15 417.167 1036.59 416.455C1036.05 415.742 1035.3 415.159 1034.36 414.705C1033.42 414.25 1032.25 414.023 1030.84 414.023C1028.92 414.023 1027.31 414.455 1026.02 415.318C1024.73 416.167 1024.09 417.265 1024.09 418.614C1024.09 419.78 1024.52 420.72 1025.39 421.432C1026.25 422.144 1027.64 422.727 1029.57 423.182L1035.11 424.455C1038.33 425.197 1040.72 426.341 1042.3 427.886C1043.87 429.432 1044.66 431.439 1044.66 433.909C1044.66 436 1044.05 437.864 1042.84 439.5C1041.64 441.121 1039.97 442.394 1037.82 443.318C1035.68 444.242 1033.2 444.705 1030.39 444.705C1026.48 444.705 1023.29 443.871 1020.82 442.205C1018.35 440.523 1016.83 438.136 1016.27 435.045L1022.84 434.045C1023.25 435.758 1024.09 437.053 1025.36 437.932C1026.64 438.795 1028.3 439.227 1030.34 439.227C1032.57 439.227 1034.35 438.765 1035.68 437.841C1037.02 436.902 1037.68 435.758 1037.68 434.409C1037.68 433.318 1037.27 432.402 1036.45 431.659C1035.65 430.917 1034.42 430.356 1032.75 429.977L1026.84 428.682C1023.58 427.939 1021.17 426.758 1019.61 425.136C1018.07 423.515 1017.3 421.462 1017.3 418.977C1017.3 416.917 1017.87 415.114 1019.02 413.568C1020.17 412.023 1021.77 410.818 1023.8 409.955C1025.83 409.076 1028.15 408.636 1030.77 408.636C1034.55 408.636 1037.52 409.455 1039.68 411.091C1041.85 412.712 1043.28 414.886 1043.98 417.614ZM1056.61 428.159C1055.37 428.159 1054.3 427.72 1053.4 426.841C1052.51 425.947 1052.06 424.871 1052.06 423.614C1052.06 422.371 1052.51 421.311 1053.4 420.432C1054.3 419.538 1055.37 419.091 1056.61 419.091C1057.85 419.091 1058.92 419.538 1059.81 420.432C1060.71 421.311 1061.15 422.371 1061.15 423.614C1061.15 424.447 1060.94 425.212 1060.52 425.909C1060.11 426.591 1059.56 427.136 1058.88 427.545C1058.2 427.955 1057.44 428.159 1056.61 428.159ZM1086.55 409.091V414.545H1067.48V409.091H1086.55ZM1072.6 400.727H1079.39V433.75C1079.39 435.068 1079.59 436.061 1079.98 436.727C1080.38 437.379 1080.88 437.826 1081.51 438.068C1082.14 438.295 1082.83 438.409 1083.57 438.409C1084.12 438.409 1084.6 438.371 1085.01 438.295C1085.41 438.22 1085.73 438.159 1085.96 438.114L1087.19 443.727C1086.79 443.879 1086.23 444.03 1085.51 444.182C1084.78 444.348 1083.87 444.439 1082.78 444.455C1080.99 444.485 1079.32 444.167 1077.78 443.5C1076.23 442.833 1074.98 441.803 1074.03 440.409C1073.07 439.015 1072.6 437.265 1072.6 435.159V400.727ZM1108.74 444.705C1105.3 444.705 1102.34 443.97 1099.85 442.5C1097.38 441.015 1095.47 438.932 1094.12 436.25C1092.79 433.553 1092.12 430.394 1092.12 426.773C1092.12 423.197 1092.79 420.045 1094.12 417.318C1095.47 414.591 1097.35 412.462 1099.76 410.932C1102.19 409.402 1105.02 408.636 1108.26 408.636C1110.23 408.636 1112.14 408.962 1113.99 409.614C1115.84 410.265 1117.5 411.288 1118.97 412.682C1120.44 414.076 1121.59 415.886 1122.44 418.114C1123.29 420.326 1123.72 423.015 1123.72 426.182V428.591H1095.97V423.5H1117.06C1117.06 421.712 1116.69 420.129 1115.97 418.75C1115.24 417.356 1114.22 416.258 1112.9 415.455C1111.59 414.652 1110.06 414.25 1108.31 414.25C1106.4 414.25 1104.73 414.72 1103.31 415.659C1101.9 416.583 1100.81 417.795 1100.03 419.295C1099.28 420.78 1098.9 422.394 1098.9 424.136V428.114C1098.9 430.447 1099.31 432.432 1100.12 434.068C1100.96 435.705 1102.12 436.955 1103.6 437.818C1105.09 438.667 1106.82 439.091 1108.81 439.091C1110.09 439.091 1111.27 438.909 1112.33 438.545C1113.39 438.167 1114.31 437.606 1115.08 436.864C1115.85 436.121 1116.44 435.205 1116.85 434.114L1123.28 435.273C1122.77 437.167 1121.84 438.826 1120.51 440.25C1119.19 441.659 1117.53 442.758 1115.53 443.545C1113.55 444.318 1111.28 444.705 1108.74 444.705ZM1157.41 417.614L1151.26 418.705C1151 417.917 1150.59 417.167 1150.03 416.455C1149.48 415.742 1148.74 415.159 1147.8 414.705C1146.86 414.25 1145.69 414.023 1144.28 414.023C1142.35 414.023 1140.75 414.455 1139.46 415.318C1138.17 416.167 1137.53 417.265 1137.53 418.614C1137.53 419.78 1137.96 420.72 1138.82 421.432C1139.69 422.144 1141.08 422.727 1143.01 423.182L1148.55 424.455C1151.76 425.197 1154.16 426.341 1155.73 427.886C1157.31 429.432 1158.1 431.439 1158.1 433.909C1158.1 436 1157.49 437.864 1156.28 439.5C1155.08 441.121 1153.41 442.394 1151.26 443.318C1149.12 444.242 1146.64 444.705 1143.82 444.705C1139.91 444.705 1136.73 443.871 1134.26 442.205C1131.79 440.523 1130.27 438.136 1129.71 435.045L1136.28 434.045C1136.69 435.758 1137.53 437.053 1138.8 437.932C1140.07 438.795 1141.73 439.227 1143.78 439.227C1146.01 439.227 1147.79 438.765 1149.12 437.841C1150.45 436.902 1151.12 435.758 1151.12 434.409C1151.12 433.318 1150.71 432.402 1149.89 431.659C1149.09 430.917 1147.85 430.356 1146.19 429.977L1140.28 428.682C1137.02 427.939 1134.61 426.758 1133.05 425.136C1131.51 423.515 1130.73 421.462 1130.73 418.977C1130.73 416.917 1131.31 415.114 1132.46 413.568C1133.61 412.023 1135.2 410.818 1137.23 409.955C1139.26 409.076 1141.59 408.636 1144.21 408.636C1147.98 408.636 1150.95 409.455 1153.12 411.091C1155.29 412.712 1156.72 414.886 1157.41 417.614Z" fill="black"/>
<defs>
<linearGradient id="paint0_linear_1_2" x1="600" y1="0" x2="600" y2="630" gradientUnits="userSpaceOnUse">
<stop stop-color="#F5F5F5"/>
<stop offset="1" stop-color="#E0E0E5"/>
</linearGradient>
<clipPath id="clip0_1_2">
<rect width="234" height="339" fill="white" transform="translate(42 135)"/>
</clipPath>
</defs>
</svg>
